<svg width="24" height="24" viewBox="0 0 24 24" fill="none" xmlns="http://www.w3.org/2000/svg">
<g id="Icon">
<path id="arrow-right" d="M2.29395 11.2917L9.29297 4.29269C9.48797 4.09769 9.744 3.99972 10 3.99972C10.256 3.99972 10.512 4.09769 10.707 4.29269C11.098 4.68369 11.098 5.31575 10.707 5.70675L5.41406 10.9997L21 10.9997C21.553 10.9997 22 11.4477 22 11.9997C22 12.5517 21.553 12.9997 21 12.9997L5.41406 12.9997L10.707 18.2927C11.098 18.6837 11.098 19.3158 10.707 19.7068C10.316 20.0978 9.68397 20.0978 9.29297 19.7068L2.29395 12.7077C2.20094 12.6147 2.1279 12.5048 2.0769 12.3818C1.9759 12.1378 1.9759 11.8616 2.0769 11.6176C2.1279 11.4946 2.20094 11.3847 2.29395 11.2917Z" fill="#47474F"/>
</g>
</svg>
