<svg width="24" height="24" viewBox="0 0 24 24" fill="none" xmlns="http://www.w3.org/2000/svg">
<g id="Icon">
<path id="phone" d="M17.6252 14.1733L20.2682 15.7493C20.8142 16.0753 21.0961 16.7093 20.9711 17.3333C20.4601 19.8923 17.8902 21.5323 15.3732 20.8413C9.4342 19.2113 4.79509 14.5863 3.15909 8.63427C2.46709 6.11627 4.10519 3.54425 6.66519 3.03225L6.68204 3.02925C7.30704 2.90425 7.94419 3.18726 8.26919 3.73626L9.83218 6.37526C10.3882 7.31426 10.112 8.52325 9.20303 9.12725L7.54214 10.2323C8.71414 13.0393 10.9541 15.2883 13.7531 16.4583L14.8681 14.7933C15.4771 13.8863 16.6872 13.6143 17.6252 14.1733Z" fill="#126FE1"/>
</g>
</svg>
