<svg width="24" height="24" viewBox="0 0 24 24" fill="none" xmlns="http://www.w3.org/2000/svg">
<g id="Icon">
<path id="envelope" d="M18 4H6C4 4 3 5 3 7V16C3 18 4 19 6 19H18C20 19 21 18 21 16V7C21 5 20 4 18 4ZM17.9409 8.606L13.0291 12.178C12.7211 12.402 12.36 12.514 12 12.514C11.64 12.514 11.2779 12.402 10.9709 12.179L6.05908 8.606C5.72408 8.363 5.65004 7.893 5.89404 7.558C6.13704 7.224 6.60389 7.14801 6.94189 7.39301L11.854 10.965C11.942 11.028 12.059 11.029 12.147 10.965L17.0591 7.39301C17.3961 7.14801 17.8639 7.224 18.1069 7.558C18.3509 7.894 18.2759 8.363 17.9409 8.606Z" fill="#126FE1"/>
</g>
</svg>
