<svg width="16" height="16" viewBox="0 0 16 16" fill="none" xmlns="http://www.w3.org/2000/svg">
<g id="Icon">
<path id="info-circle" d="M7.99992 1.33594C4.31792 1.33594 1.33325 4.3206 1.33325 8.0026C1.33325 11.6846 4.31792 14.6693 7.99992 14.6693C11.6819 14.6693 14.6666 11.6846 14.6666 8.0026C14.6666 4.3206 11.6819 1.33594 7.99992 1.33594ZM8.49992 11.0026C8.49992 11.2786 8.27592 11.5026 7.99992 11.5026C7.72392 11.5026 7.49992 11.2786 7.49992 11.0026V7.95524C7.49992 7.67924 7.72392 7.45524 7.99992 7.45524C8.27592 7.45524 8.49992 7.67924 8.49992 7.95524V11.0026ZM8.01326 6.33594C7.64526 6.33594 7.34318 6.03727 7.34318 5.66927C7.34318 5.30127 7.63859 5.0026 8.00659 5.0026H8.01326C8.38193 5.0026 8.67993 5.30127 8.67993 5.66927C8.67993 6.03727 8.38126 6.33594 8.01326 6.33594Z" fill="#47474F"/>
</g>
</svg>
