<svg width="25" height="24" viewBox="0 0 25 24" fill="none" xmlns="http://www.w3.org/2000/svg">
<g id="Socials">
<path id="Vector" d="M13.5276 2.00123C14.2573 1.99843 14.9871 2.00576 15.7166 2.02323L15.9106 2.03023C16.1346 2.03823 16.3556 2.04823 16.6226 2.06023C17.6866 2.11023 18.4126 2.27823 19.0496 2.52523C19.7096 2.77923 20.2656 3.12323 20.8216 3.67923C21.33 4.17884 21.7234 4.78318 21.9746 5.45023C22.2216 6.08723 22.3896 6.81423 22.4396 7.87823C22.4516 8.14423 22.4616 8.36623 22.4696 8.59023L22.4756 8.78423C22.4934 9.51342 22.501 10.2428 22.4986 10.9722L22.4996 11.7182V13.0282C22.5021 13.758 22.4944 14.4877 22.4766 15.2172L22.4706 15.4112C22.4626 15.6352 22.4526 15.8562 22.4406 16.1232C22.3906 17.1872 22.2206 17.9132 21.9746 18.5502C21.7242 19.218 21.3307 19.8228 20.8216 20.3222C20.3216 20.8306 19.7169 21.224 19.0496 21.4752C18.4126 21.7222 17.6866 21.8902 16.6226 21.9402C16.3556 21.9522 16.1346 21.9622 15.9106 21.9702L15.7166 21.9762C14.9871 21.994 14.2573 22.0017 13.5276 21.9992L12.7816 22.0002H11.4726C10.7429 22.0027 10.0131 21.995 9.2836 21.9772L9.0896 21.9712C8.85221 21.9626 8.61487 21.9526 8.3776 21.9412C7.3136 21.8912 6.5876 21.7212 5.9496 21.4752C5.28228 21.2246 4.67784 20.8311 4.1786 20.3222C3.66965 19.8225 3.27582 19.2178 3.0246 18.5502C2.7776 17.9132 2.6096 17.1872 2.5596 16.1232C2.54846 15.8859 2.53846 15.6486 2.5296 15.4112L2.5246 15.2172C2.50616 14.4877 2.49783 13.758 2.4996 13.0282V10.9722C2.49681 10.2428 2.50414 9.51343 2.5216 8.78423L2.5286 8.59023C2.5366 8.36623 2.5466 8.14423 2.5586 7.87823C2.6086 6.81323 2.7766 6.08823 3.0236 5.45023C3.27497 4.78285 3.66956 4.17868 4.1796 3.68023C4.67849 3.17098 5.28256 2.7768 5.9496 2.52523C6.5876 2.27823 7.3126 2.11023 8.3776 2.06023L9.0896 2.03023L9.2836 2.02523C10.0128 2.0068 10.7422 1.99847 11.4716 2.00023L13.5276 2.00123ZM12.4996 7.00123C11.8371 6.99186 11.1794 7.11425 10.5646 7.3613C9.9498 7.60834 9.39025 7.97511 8.91845 8.44029C8.44664 8.90546 8.072 9.45977 7.81629 10.071C7.56057 10.6822 7.42889 11.3382 7.42889 12.0007C7.42889 12.6633 7.56057 13.3192 7.81629 13.9305C8.072 14.5417 8.44664 15.096 8.91845 15.5612C9.39025 16.0264 9.9498 16.3931 10.5646 16.6402C11.1794 16.8872 11.8371 17.0096 12.4996 17.0002C13.8257 17.0002 15.0975 16.4734 16.0351 15.5358C16.9728 14.5981 17.4996 13.3263 17.4996 12.0002C17.4996 10.6741 16.9728 9.40238 16.0351 8.4647C15.0975 7.52701 13.8257 7.00123 12.4996 7.00123ZM12.4996 9.00123C12.8981 8.99389 13.2941 9.06603 13.6644 9.21344C14.0347 9.36085 14.3719 9.58057 14.6564 9.85978C14.9408 10.139 15.1668 10.4721 15.321 10.8396C15.4753 11.2071 15.5548 11.6016 15.5549 12.0002C15.5549 12.3988 15.4756 12.7934 15.3214 13.1609C15.1673 13.5285 14.9414 13.8617 14.6571 14.141C14.3727 14.4203 14.0356 14.6401 13.6653 14.7876C13.2951 14.9352 12.8991 15.0074 12.5006 15.0002C11.705 15.0002 10.9419 14.6842 10.3793 14.1216C9.81667 13.5589 9.5006 12.7959 9.5006 12.0002C9.5006 11.2046 9.81667 10.4415 10.3793 9.87891C10.9419 9.3163 11.705 9.00023 12.5006 9.00023L12.4996 9.00123ZM17.7496 5.50123C17.427 5.51414 17.1219 5.65138 16.8982 5.8842C16.6745 6.11702 16.5496 6.42736 16.5496 6.75023C16.5496 7.0731 16.6745 7.38344 16.8982 7.61626C17.1219 7.84908 17.427 7.98632 17.7496 7.99923C18.0811 7.99923 18.3991 7.86753 18.6335 7.63311C18.8679 7.39869 18.9996 7.08075 18.9996 6.74923C18.9996 6.41771 18.8679 6.09977 18.6335 5.86535C18.3991 5.63093 18.0811 5.49923 17.7496 5.49923V5.50123Z" fill="#126FE1"/>
</g>
</svg>
