<svg width="32" height="32" viewBox="0 0 32 32" fill="none" xmlns="http://www.w3.org/2000/svg">
<g id="trash">
<path id="trash_2" d="M27.6668 8C27.6668 8.552 27.2188 9 26.6668 9H5.3335C4.7815 9 4.3335 8.552 4.3335 8C4.3335 7.448 4.7815 7 5.3335 7H10.9522C11.0762 6.75733 11.1722 6.48267 11.2748 6.17601L11.5442 5.36666C11.8162 4.55066 12.5802 4 13.4415 4H18.5588C19.4202 4 20.1842 4.55066 20.4562 5.36666L20.7255 6.17601C20.8282 6.48267 20.9242 6.75733 21.0482 7H26.6668C27.2188 7 27.6668 7.448 27.6668 8ZM24.7468 10.3333C24.9775 10.3333 25.1615 10.5293 25.1455 10.76L24.2535 24.2667C24.1068 26.3733 23.0002 28 20.2535 28H11.7468C9.00016 28 7.89349 26.3733 7.74683 24.2667L6.85483 10.76C6.84016 10.5293 7.02283 10.3333 7.2535 10.3333H24.7468ZM14.3335 14.6667C14.3335 14.12 13.8802 13.6667 13.3335 13.6667C12.7868 13.6667 12.3335 14.12 12.3335 14.6667V21.3333C12.3335 21.88 12.7868 22.3333 13.3335 22.3333C13.8802 22.3333 14.3335 21.88 14.3335 21.3333V14.6667ZM19.6668 14.6667C19.6668 14.12 19.2135 13.6667 18.6668 13.6667C18.1202 13.6667 17.6668 14.12 17.6668 14.6667V21.3333C17.6668 21.88 18.1202 22.3333 18.6668 22.3333C19.2135 22.3333 19.6668 21.88 19.6668 21.3333V14.6667Z" fill="#FDFEFF"/>
</g>
</svg>
