<svg width="16" height="17" viewBox="0 0 16 17" fill="none" xmlns="http://www.w3.org/2000/svg">
<path d="M8 1.5C4.1339 1.5 1 4.6339 1 8.5C1 12.3661 4.1339 15.5 8 15.5C11.8661 15.5 15 12.3661 15 8.5C15 4.6339 11.8661 1.5 8 1.5ZM7.475 5.35C7.475 5.0602 7.7102 4.825 8 4.825C8.2898 4.825 8.525 5.0602 8.525 5.35V8.54973C8.525 8.83953 8.2898 9.07473 8 9.07473C7.7102 9.07473 7.475 8.83953 7.475 8.54973V5.35ZM8.01401 11.65C7.62761 11.65 7.31042 11.3364 7.31042 10.95C7.31042 10.5636 7.62061 10.25 8.00701 10.25H8.01401C8.40111 10.25 8.71401 10.5636 8.71401 10.95C8.71401 11.3364 8.40041 11.65 8.01401 11.65Z" fill="#B3261E"/>
</svg>
