<svg width="17" height="20" viewBox="0 0 17 20" fill="none" xmlns="http://www.w3.org/2000/svg">
<path d="M10.6643 17.751C10.7533 17.906 10.7523 18.098 10.6623 18.252C10.2063 19.033 9.39829 19.5 8.50029 19.5C7.60229 19.5 6.79429 19.033 6.33829 18.252C6.24829 18.098 6.24729 17.906 6.33629 17.751C6.42529 17.596 6.5903 17.5 6.7703 17.5H10.2303C10.4093 17.5 10.5743 17.596 10.6643 17.751ZM16.8913 15.688C16.8723 15.665 14.9953 13.282 14.9953 10.5V6.995C14.9953 3.414 12.0813 0.5 8.50029 0.5C4.91929 0.5 2.00529 3.414 2.00529 6.995V10.5C2.00529 13.281 0.129295 15.664 0.109295 15.688C-0.0107046 15.838 -0.0337022 16.044 0.0492978 16.217C0.132298 16.39 0.307295 16.5 0.499295 16.5H16.4993C16.6913 16.5 16.8663 16.39 16.9493 16.217C17.0343 16.043 17.0103 15.838 16.8913 15.688Z" fill="#47474F"/>
</svg>
