<svg width="24" height="24" viewBox="0 0 24 24" fill="none" xmlns="http://www.w3.org/2000/svg">
<g id="Icon">
<path id="Vector" d="M16.2103 14.6361C17.2996 13.1495 17.7874 11.3063 17.5763 9.47538C17.3652 7.64443 16.4706 5.96073 15.0715 4.76112C13.6725 3.56151 11.8721 2.93446 10.0307 3.00543C8.18923 3.07639 6.44246 3.84013 5.13986 5.14386C3.83725 6.44758 3.07486 8.19514 3.00523 10.0369C2.93559 11.8787 3.56384 13.6788 4.76428 15.0772C5.96472 16.4756 7.64882 17.3691 9.47966 17.579C11.3105 17.7888 13.1531 17.2995 14.6387 16.209H14.6376C14.6713 16.254 14.7073 16.2968 14.7478 16.3384L19.0789 20.6701C19.2898 20.8812 19.576 20.9999 19.8744 21C20.1728 21.0001 20.4591 20.8816 20.6702 20.6707C20.8812 20.4597 20.9999 20.1735 21 19.8751C21.0001 19.5766 20.8817 19.2903 20.6707 19.0792L16.3396 14.7475C16.2994 14.7068 16.2562 14.6703 16.2103 14.6361ZM16.5005 10.3112C16.5005 11.1238 16.3405 11.9285 16.0295 12.6793C15.7186 13.43 15.2628 14.1122 14.6883 14.6868C14.1138 15.2615 13.4317 15.7173 12.681 16.0283C11.9303 16.3392 11.1258 16.4993 10.3132 16.4993C9.50071 16.4993 8.69615 16.3392 7.94547 16.0283C7.1948 15.7173 6.51272 15.2615 5.93818 14.6868C5.36364 14.1122 4.90788 13.43 4.59695 12.6793C4.28601 11.9285 4.12597 11.1238 4.12597 10.3112C4.12597 8.66997 4.77784 7.096 5.93818 5.9355C7.09851 4.77499 8.67227 4.12303 10.3132 4.12303C11.9542 4.12303 13.528 4.77499 14.6883 5.9355C15.8486 7.096 16.5005 8.66997 16.5005 10.3112Z" fill="#FDFEFF"/>
</g>
</svg>
