<svg width="193" height="133" viewBox="0 0 193 133" fill="none" xmlns="http://www.w3.org/2000/svg">
<rect width="193" height="133" fill="#E5E5E5"/>
<g id="0 results for searches" clip-path="url(#clip0_202_3603)">
<rect width="1440" height="1828" transform="translate(-406 -618)" fill="#FDFEFF"/>
<g id="Main Content">
<g id="Posts">
<g id="Text">
<path id="Vector" fill-rule="evenodd" clip-rule="evenodd" d="M77.4446 2.73213C67.4493 7.89063 61.347 13.5973 59.1484 19.8439C57.5544 24.3721 57.3797 28.0977 58.2369 39.2515C58.6269 44.3266 58.5561 46.1137 57.9036 47.6796C57.4482 48.7725 56.6736 51.5803 56.1828 53.9192C55.0064 59.5247 52.0473 69.8476 50.4651 73.8666C49.7702 75.6306 48.7791 78.691 48.2629 80.6673L47.3237 84.2599L44.7717 84.2794C41.4043 84.3048 40.3879 85.6117 40.7383 89.4669L40.9967 92.3084L38.2334 93.7117C36.1085 94.7909 34.8962 95.0381 32.9848 94.7809C31.1873 94.5396 29.9112 94.7561 28.3739 95.5627C26.7586 96.4107 26.1846 96.4982 25.9834 95.927C25.8377 95.5136 24.9575 94.7809 24.0272 94.2983C22.5129 93.5136 22.1194 93.5248 20.2788 94.4048C18.3385 95.332 17.2831 96.9423 16.8554 99.6266C16.7191 100.482 16.0448 100.902 14.3635 101.176C9.18506 102.02 9.18801 107.29 14.3682 110.197C15.718 110.954 16.7563 112.013 16.8607 112.738C17.0129 113.795 16.3734 114.224 12.5837 115.61C10.1325 116.506 8.12731 117.47 8.12731 117.751C8.12731 118.508 8.67595 118.408 13.4155 116.792L17.7309 115.321L21.307 117.499C26.2342 120.499 29.595 120.52 36.2241 117.59C42.5187 114.809 43.9198 114.474 44.551 115.604C44.9864 116.385 45.3858 116.337 47.6612 115.235C49.0971 114.54 51.7258 113.469 53.5027 112.857C55.2796 112.243 57.3361 111.347 58.0717 110.863C60.2533 109.43 61.8113 110.029 61.8113 112.301C61.8113 112.547 58.7083 113.789 54.9156 115.061C51.1229 116.333 48.4021 117.442 48.8688 117.525C49.336 117.608 52.8797 116.635 56.7438 115.362C61.386 113.834 64.1781 113.201 64.9728 113.495C66.2925 113.985 67.021 115.307 65.971 115.307C64.9014 115.307 52.9818 120.119 52.6278 120.693C51.9913 121.726 54.0354 121.187 59.6038 118.855C62.7098 117.554 65.6483 116.489 66.1332 116.489C66.6187 116.489 67.5927 117.685 68.2988 119.146C70.6857 124.09 75.1486 126.081 83.9339 126.125C90.4863 126.157 95.3756 124.905 103.697 121.063C106.817 119.622 108.382 119.184 109.006 119.576C110.142 120.288 115.495 118.063 115.495 116.878C115.495 116.013 115.95 115.789 122.835 113.241C125.087 112.408 127.842 111.029 128.957 110.177C130.616 108.908 131.265 108.725 132.531 109.172C134.927 110.016 134.378 111.244 131.129 112.305C123.149 114.913 115.742 118.693 116.702 119.667C116.879 119.847 119.401 118.81 122.307 117.364C125.212 115.918 129.677 114.052 132.228 113.216C134.78 112.381 137.503 111.28 138.279 110.77C139.464 109.991 139.975 109.962 141.478 110.586C142.462 110.995 143.181 111.587 143.077 111.902C142.972 112.216 140.011 113.222 136.498 114.135C132.985 115.048 129.821 116.085 129.469 116.439C128.554 117.356 129.915 117.261 133.488 116.158C135.893 115.416 149.116 112.35 149.911 112.35C150.032 112.35 150.291 114.066 150.486 116.164C150.946 121.095 152.877 124.865 156.893 128.673C160.9 132.472 163.229 133.261 169.464 132.933C175.485 132.616 179.504 130.805 184.523 126.147C188.711 122.261 190.913 117.978 191.397 112.777C192.129 104.92 189.023 98.1469 182.751 93.9264C175.789 89.2404 162.376 84.7016 151.481 83.3438C148.399 82.96 145.611 82.5739 145.287 82.4864C144.963 82.3988 143.382 78.7702 141.775 74.423C138.39 65.2634 133.441 53.9966 130.381 48.4821C129.208 46.368 127.086 42.391 125.665 39.6453C124.245 36.899 122.367 33.7056 121.494 32.5489C120.62 31.3916 118.597 28.4844 117 26.0882C114.26 21.9794 114.055 21.3981 113.395 15.8901C113.01 12.6778 112.364 9.64877 111.958 9.15911C111.545 8.66 110.263 8.26911 109.037 8.26911C106.421 8.26911 94.3975 10.3856 92.1522 11.2413C88.9961 12.4442 87.9991 11.3194 86.2606 4.59257C85.3497 1.06861 84.6825 0.0183428 83.3439 1.04229e-05C83.0195 -0.00412915 80.3648 1.22533 77.4446 2.73213ZM84.2583 6.11239C85.1196 9.45302 86.6788 13.7671 87.2682 14.4412C87.5655 14.7807 88.9548 14.6281 90.8579 14.0468C94.9845 12.7872 101.452 11.4063 105.516 10.9184C109.961 10.3844 110.578 11.0686 111.103 17.1018C111.339 19.8162 111.916 22.3998 112.471 23.2354C112.999 24.0296 115.309 27.4401 117.604 30.815C125.459 42.3609 134.261 59.5028 138.189 70.905C141.113 79.3935 143.867 86.7034 144.703 88.1948C145.186 89.0582 145.582 90.1617 145.582 90.6466C145.582 91.1316 146.976 92.4018 148.679 93.4692C152.504 95.8655 153.811 97.3894 153.828 99.4722C153.838 100.689 153.385 101.32 151.977 102.05C150.318 102.91 149.911 102.921 148.29 102.155C145.086 100.641 144.065 102.02 145.981 105.271C146.801 106.662 146.839 107.109 146.204 107.876C144.577 109.841 141.414 108.311 139.978 104.866C138.919 102.328 137.687 102.537 137.429 105.299C137.176 107.996 136.714 108.349 134.465 107.563C131.913 106.67 130.61 104.078 131.093 100.851C132.254 93.0914 123.331 58.879 119.792 57.517C118.369 56.97 118.266 57.8381 119.504 59.941C123.009 65.8973 129.445 93.5822 128.731 99.6354C128.539 101.262 128.667 103.338 129.015 104.249C130.158 107.241 128.53 108.181 106.822 117.067C101.24 119.351 96.3956 121.22 96.0576 121.22C95.719 121.22 93.7822 121.801 91.7529 122.51C86.9891 124.175 81.4768 124.142 76.3013 122.416C71.8998 120.947 69.8468 118.933 68.877 115.132C67.8841 111.242 67.8346 111.167 66.2541 111.167C64.4666 111.167 62.2945 109.177 62.7594 107.964C63.1876 106.844 65.6164 105.253 66.8966 105.253C67.4452 105.253 68.8044 105.949 69.917 106.8C72.3599 108.668 73.3156 108.084 72.2874 105.354C71.6886 103.764 71.7181 103.159 72.4579 101.838C73.7197 99.5852 76.0518 98.8702 77.9891 100.142C79.251 100.971 79.5094 101.595 79.5094 103.807C79.5094 107.479 80.6521 107.738 83.5209 104.715C85.9214 102.185 86.7184 101.926 89.1884 102.867C91.4756 103.739 91.7481 106.007 89.9011 108.805C87.8634 111.892 87.9047 112.941 90.0627 112.941C92.2773 112.941 94.4601 114.681 93.9427 116.033C93.7297 116.59 92.6513 117.373 91.547 117.773C88.3212 118.942 89.2739 120.441 92.8195 119.774C94.2683 119.502 95.106 118.887 95.7615 117.616C96.9195 115.371 96.4623 113.925 93.9999 112.042L92.0519 110.553L92.961 108.02C93.7923 105.703 93.7852 105.315 92.8761 103.489C91.8938 101.515 91.9009 101.471 93.502 99.7963C94.8211 98.416 94.9656 98.0044 94.2807 97.5798C93.7226 97.2345 92.6324 97.5207 91.0461 98.429C89.73 99.1824 87.5915 99.9855 86.2936 100.214C84.9957 100.441 83.5787 100.922 83.1451 101.282C82.5351 101.787 81.934 101.432 80.4904 99.7117C76.9921 95.5438 71.7175 96.4072 70.0675 101.418C69.4822 103.197 69.1932 103.43 67.9602 103.119C65.7786 102.57 63.5776 103.358 61.7187 105.353C60.051 107.142 53.3658 109.816 47.063 111.213C45.6029 111.537 43.944 111.943 43.3759 112.116C42.5175 112.376 42.3435 112.046 42.3435 110.156C42.3435 107.536 41.0728 105.414 39.0393 104.64C37.8523 104.187 37.6228 103.692 37.6158 101.572C37.6116 100.182 37.4547 98.471 37.2671 97.7702C37.0146 96.8282 37.2429 96.3959 38.1443 96.1091C38.8145 95.8962 40.6303 94.8536 42.1807 93.7921C43.7304 92.7312 46.3427 91.1345 47.9862 90.2445C49.6292 89.3545 52.4166 87.1392 54.1805 85.3214L57.3868 82.0156L55.2536 82.3486L53.1204 82.6815L55.9539 75.8808C57.5119 72.1404 59.7324 67.7033 60.8887 66.0203C63.1935 62.6661 63.4513 61.6773 62.098 61.3875C61.3447 61.2267 61.153 59.1143 60.8733 47.9055L60.5412 34.6145L63.9858 37.9079C68.2186 41.9552 70.6279 42.8411 75.9697 42.3136C79.1908 41.9954 80.137 42.0995 80.8904 42.8541C82.1753 44.1427 82.7729 47.6861 81.885 48.7583C80.6686 50.2278 81.7552 50.9369 83.6884 49.9345C84.6524 49.4354 86.3502 49.1036 87.4611 49.1977C90.8013 49.4809 90.0763 47.789 86.542 47.0534C85.0506 46.7423 83.6389 44.6589 83.6389 42.7671C83.6389 42.0616 84.0277 41.9256 85.2612 42.2C92.0714 43.7157 97.3201 42.8079 101.127 39.4572C103.924 36.9954 104.877 34.5962 104.877 30.0119C104.877 24.5944 103.137 21.5566 98.6173 19.0781C94.3639 16.7458 91.3387 16.5973 86.0464 18.4607C82.8106 19.6003 82.2201 19.6659 81.9835 18.9102C81.8313 18.4241 80.606 16.9551 79.2604 15.6452C76.9384 13.385 73.4625 11.8173 70.7742 11.8173C68.5767 11.8173 68.7979 10.7097 71.3753 8.80962C74.7893 6.29217 81.7759 2.94798 82.7988 3.34183C83.2537 3.51628 83.9109 4.76348 84.2583 6.11239ZM73.315 14.2401C76.1733 15.0172 79.369 17.9392 80.0285 20.3774C80.4137 21.802 80.2002 22.7079 78.9784 24.8274C77.7502 26.9587 77.4446 28.265 77.4446 31.3892C77.4446 33.7748 77.7508 35.6601 78.2327 36.2426C79.2445 37.4638 78.677 38.3437 76.2116 39.3762C73.5375 40.4963 71.616 40.4159 69.0144 39.0746C64.7816 36.8919 62.2302 33.1154 61.5411 28.0125C60.6267 21.2437 64.82 14.6387 70.6603 13.6482C70.8226 13.6204 72.0172 13.8871 73.315 14.2401ZM97.4841 20.7405C100.651 22.145 102.156 24.7127 102.823 29.854C103.149 32.3656 102.998 33.119 101.821 34.8588C99.3919 38.4472 95.9473 40.41 91.5906 40.6879C87.8357 40.928 87.0711 40.5471 88.4764 39.1385C88.9961 38.6175 89.0097 38.2538 88.5277 37.7707C87.6617 36.9025 86.5886 37.6134 86.5886 39.0551C86.5886 40.4945 86.1803 40.4898 83.7811 39.0232C81.396 37.5661 79.5135 34.5631 79.5147 32.2195C79.5206 22.9356 88.9088 16.938 97.4841 20.7405ZM73.315 37.2461C72.8213 38.0468 73.4873 39.0202 74.5297 39.0202C74.9975 39.0202 75.3798 38.488 75.3798 37.8375C75.3798 36.6134 73.9563 36.2053 73.315 37.2461ZM59.1672 55.6128C59.3796 56.2823 59.2369 58.151 58.8505 59.7648C58.3101 62.0227 58.3089 62.8943 58.8451 63.5419C59.3997 64.2119 59.0717 65.203 57.2334 68.4083C55.9639 70.6217 54.3186 73.9671 53.5764 75.8429C51.2663 81.6821 50.1613 80.4112 52.3016 74.3769C52.9116 72.6566 54.2667 67.7903 55.3132 63.562C56.3592 59.3337 57.3119 55.5419 57.4299 55.135C57.762 53.9919 58.7395 54.261 59.1672 55.6128ZM153.616 85.4598C161.409 86.8045 166.617 88.3575 173.574 91.4119C181.031 94.6851 184.903 97.8921 187.287 102.768C188.715 105.689 188.924 106.781 188.848 110.925C188.731 117.361 187.195 120.906 182.837 124.8C178.87 128.345 174.473 130.137 168.77 130.537C164.982 130.802 164.249 130.671 161.952 129.322C158.431 127.253 154.651 122.999 153.889 120.248C152.945 116.838 153.116 111.926 154.264 109.502C156.601 104.566 163.163 100.102 168.965 99.5018C172.37 99.1493 173.068 98.416 170.591 97.7927C168.607 97.2936 163.504 98.4426 161.043 99.9429C158.319 101.604 157.774 101.44 156.368 98.5384C155.13 95.9843 153.69 94.5798 149.712 92.0429C148.244 91.1073 147.591 90.2191 147.454 88.9719C147.348 88.0062 147.016 86.9636 146.716 86.6549C145.801 85.7111 146.109 84.5555 147.275 84.5555C147.881 84.5555 150.734 84.9624 153.616 85.4598ZM45.5463 87.7123C46.0259 88.484 45.9651 88.8648 45.2932 89.2942C44.8065 89.6052 44.2006 89.8637 43.9475 89.869C43.2437 89.8826 42.7629 88.2197 43.1659 87.1676C43.5918 86.0541 44.6678 86.3001 45.5463 87.7123ZM23.8732 97.1221C24.1358 97.529 24.6242 98.7927 24.9593 99.9311C25.6543 102.293 26.9574 102.62 27.9249 100.674C28.2877 99.9447 29.067 98.814 29.6564 98.1611C31.4156 96.212 34.39 96.7395 35.3097 99.1635C35.9067 100.738 35.3315 102.298 33.3464 104.484C31.4409 106.583 32.3382 107.63 35.6985 107.232C41.3984 106.555 41.1447 110.634 35.2348 114.677C29.2328 118.783 22.3748 117.386 19.3001 111.432C18.2116 109.324 17.3869 108.45 16.3504 108.304C14.3688 108.026 12.7601 106.45 12.9683 104.99C13.219 103.234 16.0991 103.044 18.2547 104.641C20.9661 106.651 22.0775 105.2 19.926 102.458C19.2771 101.631 18.7461 100.458 18.7461 99.8513C18.7461 97.416 22.7028 95.3096 23.8732 97.1221ZM153.242 105.697C153.21 107.154 150.399 110.895 149.207 111.067C148.013 111.238 147.926 111.119 148.486 110.07C148.835 109.415 149.122 108.241 149.122 107.46C149.122 106.68 149.299 105.864 149.515 105.648C150.055 105.106 153.253 105.148 153.242 105.697ZM1.06521 107.004C0.587953 107.307 0.369677 107.728 0.580284 107.939C1.11594 108.475 4.58771 107.645 4.58771 106.981C4.58771 106.276 2.18844 106.292 1.06521 107.004ZM23.0232 107.592C22.2934 108.283 21.6958 109.369 21.6958 110.007C21.6958 112.295 25.6395 114.776 27.8978 113.907C28.8505 113.54 29.9608 111.153 29.946 109.502C29.9301 107.75 29.0039 106.945 26.6477 106.637C24.8478 106.402 24.0632 106.609 23.0232 107.592ZM27.2671 109.34C27.8488 110.283 26.9191 111.758 25.7439 111.758C25.1192 111.758 24.4455 111.333 24.2461 110.812C23.6921 109.365 26.453 108.019 27.2671 109.34ZM74.5285 110.708C72.2897 113.912 74.5356 118.572 78.1207 118.161C81.5847 117.764 82.6047 111.645 79.4864 109.972C77.6564 108.99 75.5055 109.309 74.5285 110.708ZM5.03016 112.688C3.35179 113.601 2.8533 114.731 4.14526 114.695C4.55113 114.683 5.54635 114.293 6.35751 113.828C7.16867 113.363 8.41402 112.974 9.12489 112.962C9.83576 112.951 10.5814 112.675 10.782 112.35C11.3531 111.424 6.86957 111.688 5.03016 112.688ZM78.8882 112.608C79.9335 113.87 78.6321 116.025 76.9685 115.786C74.7846 115.473 74.8678 111.758 77.0588 111.758C77.6782 111.758 78.5012 112.14 78.8882 112.608ZM143.398 116.137C139.588 117.528 140.416 118.2 144.528 117.055C146.876 116.402 148.118 115.261 146.354 115.377C145.767 115.416 144.437 115.758 143.398 116.137ZM146.155 119.763C145.13 121 145.984 121.662 147.128 120.516C147.679 119.963 147.82 119.441 147.475 119.227C147.157 119.029 146.562 119.271 146.155 119.763ZM129.359 122.994C129.136 123.356 130.053 123.586 131.719 123.586C133.385 123.586 134.301 123.356 134.078 122.994C133.878 122.669 132.816 122.403 131.719 122.403C130.621 122.403 129.559 122.669 129.359 122.994ZM190.434 123.563C189.957 123.866 189.737 124.285 189.947 124.495C190.516 125.065 192.848 124.18 192.456 123.543C192.032 122.857 191.54 122.862 190.434 123.563Z" fill="black"/>
</g>
</g>
</g>
</g>
<defs>
<clipPath id="clip0_202_3603">
<rect width="1440" height="1828" fill="white" transform="translate(-406 -618)"/>
</clipPath>
</defs>
</svg>
