<svg width="24" height="24" viewBox="0 0 24 24" fill="none" xmlns="http://www.w3.org/2000/svg">
<g id="Type=Like-Outline, Property=Default, Size=Medium">
<path id="heart" d="M20.0938 10.3223L20.0938 10.3222C20.4283 8.59788 20.2183 6.92886 19.5263 5.72087C18.8552 4.54935 17.7068 3.75826 15.9746 3.75005L15.9743 3.75005C14.7745 3.744 13.9755 4.33433 13.4492 4.96774C13.1839 5.28708 12.9956 5.61003 12.8741 5.85377C12.8137 5.97478 12.771 6.07388 12.7443 6.13996C12.731 6.17293 12.7217 6.19747 12.7163 6.21217L12.7112 6.22657C12.7111 6.2269 12.7111 6.22674 12.711 6.22695C12.7109 6.22744 12.7107 6.22803 12.7107 6.22785L12.0002 8.36147L11.2895 6.22792C11.2895 6.22797 11.2894 6.22748 11.2892 6.22702C11.2891 6.22684 11.2891 6.22689 11.2891 6.22665L11.2839 6.21225C11.2785 6.19757 11.2693 6.17304 11.256 6.14009C11.2293 6.07403 11.1865 5.97497 11.1262 5.85401C11.0046 5.61036 10.8164 5.2875 10.551 4.96821C10.0246 4.33494 9.22523 3.74442 8.02466 3.75005L20.0938 10.3223ZM20.0938 10.3223C19.5585 13.0833 17.5213 15.3247 15.5104 16.9127M20.0938 10.3223L15.5104 16.9127M15.5104 16.9127C14.5161 17.6979 13.555 18.3022 12.8423 18.71M15.5104 16.9127L12.8423 18.71M12.8423 18.71C12.4909 18.9111 12.2014 19.0636 12.0001 19.1656M12.8423 18.71L12.0001 19.1656M12.0001 19.1656C11.7988 19.0636 11.5093 18.9111 11.1578 18.71C10.4451 18.3022 9.48395 17.6979 8.48962 16.9127C6.47854 15.3246 4.44112 13.0833 3.90532 10.3223L12.0001 19.1656ZM3.90531 10.3222C3.57089 8.59805 3.78285 6.92907 4.47599 5.72092C5.14846 4.54879 6.29735 3.75827 8.02462 3.75005L3.90531 10.3222Z" stroke="#47474F" stroke-width="1.5"/>
</g>
</svg>
