<svg width="24" height="24" viewBox="0 0 24 24" fill="none" xmlns="http://www.w3.org/2000/svg">
<g id="Icon">
<path id="Vector" d="M14.584 3.0859C14.2475 2.74154 13.8456 2.46791 13.4018 2.2811C12.9581 2.09428 12.4815 1.99805 12 1.99805C11.5185 1.99805 11.0419 2.09428 10.5982 2.2811C10.1544 2.46791 9.75249 2.74154 9.41599 3.0859L8.63841 3.88348L7.5258 3.86973C7.04419 3.86403 6.5663 3.95469 6.12024 4.13637C5.67417 4.31805 5.26894 4.58709 4.92836 4.92766C4.58779 5.26823 4.31875 5.67347 4.13707 6.11953C3.95539 6.5656 3.86473 7.04349 3.87043 7.5251L3.88293 8.63771L3.08785 9.41529C2.74349 9.75178 2.46987 10.1537 2.28305 10.5975C2.09624 11.0412 2 11.5178 2 11.9993C2 12.4808 2.09624 12.9574 2.28305 13.4011C2.46987 13.8449 2.74349 14.2468 3.08785 14.5833L3.88418 15.3609L3.87043 16.4735C3.86473 16.9551 3.95539 17.433 4.13707 17.8791C4.31875 18.3251 4.58779 18.7304 4.92836 19.0709C5.26894 19.4115 5.67417 19.6805 6.12024 19.8622C6.5663 20.0439 7.04419 20.1346 7.5258 20.1289L8.63841 20.1164L9.41599 20.9114C9.75249 21.2558 10.1544 21.5294 10.5982 21.7162C11.0419 21.9031 11.5185 21.9993 12 21.9993C12.4815 21.9993 12.9581 21.9031 13.4018 21.7162C13.8456 21.5294 14.2475 21.2558 14.584 20.9114L15.3616 20.1151L16.4742 20.1289C16.9558 20.1346 17.4337 20.0439 17.8798 19.8622C18.3258 19.6805 18.7311 19.4115 19.0716 19.0709C19.4122 18.7304 19.6812 18.3251 19.8629 17.8791C20.0446 17.433 20.1353 16.9551 20.1296 16.4735L20.1171 15.3609L20.9121 14.5833C21.2565 14.2468 21.5301 13.8449 21.7169 13.4011C21.9038 12.9574 22 12.4808 22 11.9993C22 11.5178 21.9038 11.0412 21.7169 10.5975C21.5301 10.1537 21.2565 9.75178 20.9121 9.41529L20.1158 8.63771L20.1296 7.5251C20.1353 7.04349 20.0446 6.5656 19.8629 6.11953C19.6812 5.67347 19.4122 5.26823 19.0716 4.92766C18.7311 4.58709 18.3258 4.31805 17.8798 4.13637C17.4337 3.95469 16.9558 3.86403 16.4742 3.86973L15.3616 3.88223L14.584 3.0859ZM14.9428 10.5667L11.1924 14.317C11.1344 14.3752 11.0654 14.4214 10.9894 14.4529C10.9135 14.4844 10.8321 14.5007 10.7499 14.5007C10.6677 14.5007 10.5862 14.4844 10.5103 14.4529C10.4344 14.4214 10.3654 14.3752 10.3073 14.317L8.43214 12.4418C8.37402 12.3837 8.32793 12.3147 8.29647 12.2388C8.26502 12.1629 8.24883 12.0815 8.24883 11.9993C8.24883 11.9171 8.26502 11.8357 8.29647 11.7598C8.32793 11.6839 8.37402 11.6149 8.43214 11.5568C8.49026 11.4986 8.55925 11.4525 8.63518 11.4211C8.71111 11.3896 8.7925 11.3734 8.87469 11.3734C8.95687 11.3734 9.03826 11.3896 9.11419 11.4211C9.19012 11.4525 9.25911 11.4986 9.31723 11.5568L10.7499 12.9906L14.0577 9.68156C14.1751 9.56419 14.3343 9.49826 14.5003 9.49826C14.6662 9.49826 14.8254 9.56419 14.9428 9.68156C15.0602 9.79893 15.1261 9.95812 15.1261 10.1241C15.1261 10.2901 15.0602 10.4493 14.9428 10.5667Z" fill="#126FE1"/>
</g>
</svg>
