<svg width="24" height="24" viewBox="0 0 24 24" fill="none" xmlns="http://www.w3.org/2000/svg">
<g id="Icon">
<path id="arrow-left" d="M21.9988 12.0003C21.9988 12.5523 21.5518 13.0003 20.9988 13.0003H5.41291L10.7059 18.2933C11.0969 18.6842 11.0969 19.3163 10.7059 19.7073C10.5109 19.9023 10.2548 20.0003 9.99885 20.0003C9.74285 20.0003 9.48681 19.9023 9.29181 19.7073L2.29279 12.7083C2.19979 12.6153 2.12675 12.5054 2.07575 12.3824C1.97475 12.1384 1.97475 11.8622 2.07575 11.6182C2.12675 11.4952 2.19979 11.3853 2.29279 11.2923L9.29181 4.29325C9.68281 3.90225 10.3149 3.90225 10.7059 4.29325C11.0969 4.68425 11.0969 5.31631 10.7059 5.70731L5.41291 11.0003H20.9988C21.5518 11.0003 21.9988 11.4483 21.9988 12.0003Z" fill="#47474F"/>
</g>
</svg>
