<svg width="24" height="24" viewBox="0 0 24 24" fill="none" xmlns="http://www.w3.org/2000/svg">
<g id="system-uicons:list-numbered">
<g id="Group">
<g id="Vector">
<path fill-rule="evenodd" clip-rule="evenodd" d="M21.625 11.9336H9.625H21.625ZM21.625 17.9336H9.625H21.625ZM21.625 5.93359H9.625H21.625Z" fill="#47474F"/>
<path d="M21.625 11.9336H9.625M21.625 17.9336H9.625M21.625 5.93359H9.625" stroke="#47474F" stroke-width="2" stroke-linecap="round" stroke-linejoin="round"/>
</g>
<path id="Vector_2" d="M5.27987 17.9122L5.28067 17.6245L5.28004 17.6245L6.00951 18.2495C5.8083 18.2178 5.64044 18.0725 5.58164 17.877C5.4832 17.9008 5.38153 17.9121 5.27987 17.9122ZM5.27987 17.9122C5.27968 17.9122 5.27948 17.9122 5.27929 17.9122M5.27987 17.9122L5.27929 18.1245V17.9122M5.27929 17.9122V17.6245L5.10393 17.624C5.18335 17.6242 5.24762 17.6887 5.24762 17.7681C5.24762 17.8476 5.18311 17.9122 5.10353 17.9122H5.27929ZM5.33861 4.50423C5.35525 4.50143 5.37218 4.5 5.38921 4.5C5.5577 4.5 5.69428 4.63659 5.69428 4.80508V7.61226C5.69428 7.62691 5.68241 7.63879 5.66776 7.63879C5.65311 7.63879 5.64123 7.62691 5.64123 7.61226V4.99039C5.64123 4.77705 5.51788 4.59252 5.33861 4.50423ZM4.28098 13.5136L4.66629 13.165C4.66873 13.2988 4.72011 13.4208 4.80329 13.5136H4.28098ZM6.33241 11.1982C6.33586 11.1595 6.33739 11.1209 6.33739 11.0821C6.33739 10.9006 6.29261 10.7177 6.19812 10.5558C6.30185 10.669 6.35814 10.8133 6.35814 10.9895C6.35814 11.0675 6.35059 11.1342 6.33241 11.1982ZM6.42992 18.6488C6.42992 18.5802 6.42367 18.5127 6.41119 18.4471C6.46187 18.5129 6.49913 18.6079 6.49913 18.7501C6.49913 18.9418 6.41508 19.1096 6.23193 19.2454C6.35897 19.0785 6.42992 18.8729 6.42992 18.6488ZM6.32959 16.6846C6.31689 16.6293 6.29944 16.5754 6.27729 16.5233C6.30453 16.574 6.32172 16.628 6.32959 16.6846ZM4.1633 10.679C4.1633 10.679 4.16377 10.6788 4.16469 10.6785L4.1633 10.679Z" fill="#47474F" stroke="#47474F"/>
</g>
</g>
</svg>
