<svg width="18" height="16" viewBox="0 0 18 16" fill="none" xmlns="http://www.w3.org/2000/svg">
<g id="strikethrough">
<path id="Union" fill-rule="evenodd" clip-rule="evenodd" d="M9.75 1.5C7.85787 1.5 6.5 2.82216 6.5 4.25C6.5 4.89142 6.77402 5.51151 7.2474 6H5.41525C5.14959 5.47259 5 4.88236 5 4.25C5 1.81185 7.22385 0 9.75 0C12.2761 0 14.5 1.81185 14.5 4.25C14.5 4.66421 14.1642 5 13.75 5C13.3358 5 13 4.66421 13 4.25C13 2.82216 11.6421 1.5 9.75 1.5ZM9.75 8.5H0.75C0.335786 8.5 0 8.16421 0 7.75C0 7.33579 0.335786 7 0.75 7H9.75H16.75C17.1642 7 17.5 7.33579 17.5 7.75C17.5 8.16421 17.1642 8.5 16.75 8.5H13.3755C14.0709 9.22882 14.5 10.179 14.5 11.25C14.5 13.6882 12.2761 15.5 9.75 15.5C7.22385 15.5 5 13.6882 5 11.25C5 10.8358 5.33579 10.5 5.75 10.5C6.16421 10.5 6.5 10.8358 6.5 11.25C6.5 12.6778 7.85787 14 9.75 14C11.6421 14 13 12.6778 13 11.25C13 9.82216 11.6421 8.5 9.75 8.5Z" fill="#47474F"/>
</g>
</svg>
