<svg width="18" height="16" viewBox="0 0 18 16" fill="none" xmlns="http://www.w3.org/2000/svg">
<path fill-rule="evenodd" clip-rule="evenodd" d="M1 0.25C0.585786 0.25 0.25 0.585786 0.25 1C0.25 1.41421 0.585786 1.75 1 1.75H6.25V15C6.25 15.4142 6.58579 15.75 7 15.75C7.41421 15.75 7.75 15.4142 7.75 15V1.75H13C13.4142 1.75 13.75 1.41421 13.75 1C13.75 0.585786 13.4142 0.25 13 0.25H7H1ZM11 7.25C10.5858 7.25 10.25 7.58579 10.25 8C10.25 8.41421 10.5858 8.75 11 8.75H13.25V15C13.25 15.4142 13.5858 15.75 14 15.75C14.4142 15.75 14.75 15.4142 14.75 15V8.75H17C17.4142 8.75 17.75 8.41421 17.75 8C17.75 7.58579 17.4142 7.25 17 7.25H14H11Z" fill="#47474F"/>
</svg>
