<svg width="10" height="16" viewBox="0 0 10 16" fill="none" xmlns="http://www.w3.org/2000/svg">
<g id="italic">
<path id="Union" fill-rule="evenodd" clip-rule="evenodd" d="M9 0.250244H7.01868C7.00593 0.249918 6.99322 0.24992 6.98056 0.250244H5C4.58579 0.250244 4.25 0.586031 4.25 1.00024C4.25 1.41446 4.58579 1.75024 5 1.75024H6.00568L2.43425 14.2502H1C0.585786 14.2502 0.25 14.586 0.25 15.0002C0.25 15.4145 0.585786 15.7502 1 15.7502H2.98585C2.99555 15.7504 3.00522 15.7504 3.01487 15.7502H5C5.41421 15.7502 5.75 15.4145 5.75 15.0002C5.75 14.586 5.41421 14.2502 5 14.2502H3.99427L7.5657 1.75024H9C9.41421 1.75024 9.75 1.41446 9.75 1.00024C9.75 0.586031 9.41421 0.250244 9 0.250244Z" fill="#47474F"/>
</g>
</svg>
