<svg width="24" height="24" viewBox="0 0 24 24" fill="none" xmlns="http://www.w3.org/2000/svg">
<g id="link">
<path id="link_2" d="M17.565 14.5479C17.31 14.5479 17.0551 14.4509 16.8601 14.2569C16.4681 13.8679 16.466 13.2339 16.856 12.8429L18.824 10.8649C19.584 10.1129 20 9.10589 20 8.02589C20 6.94589 19.5829 5.9349 18.8259 5.1779C17.2599 3.6099 14.7079 3.6119 13.1389 5.1779L11.1731 7.15391C10.7841 7.54491 10.152 7.54791 9.75905 7.15791C9.36705 6.76891 9.3649 6.13491 9.7549 5.74391L11.7229 3.76591C14.0719 1.41691 17.893 1.4169 20.24 3.7639C21.375 4.8979 22 6.41189 22 8.02589C22 9.64489 21.3741 11.1559 20.2361 12.2819L18.2739 14.2549C18.0789 14.4499 17.822 14.5479 17.565 14.5479ZM12.2739 20.2419L14.2529 18.2739C14.6449 17.8839 14.6471 17.2509 14.2571 16.8599C13.8671 16.4689 13.235 16.4659 12.843 16.8559L10.8631 18.8259C9.29405 20.3939 6.74404 20.3919 5.17604 18.8259C3.60904 17.2579 3.60909 14.7079 5.17409 13.1419L7.15309 11.1739C7.54509 10.7839 7.547 10.1509 7.157 9.7599C6.767 9.3689 6.13493 9.3659 5.74293 9.7559L3.76295 11.7259C1.41495 14.0729 1.41495 17.8919 3.76295 20.2399C4.93795 21.4139 6.47999 21.9999 8.02199 21.9999C9.56199 22.0009 11.1029 21.4149 12.2739 20.2419ZM9.70705 15.7089L15.7329 9.68391C16.1239 9.29291 16.1239 8.65991 15.7329 8.26991C15.3419 7.87991 14.7101 7.87991 14.3191 8.26991L8.29298 14.2949C7.90198 14.6859 7.90198 15.3189 8.29298 15.7089C8.48798 15.9039 8.74401 16.0019 9.00001 16.0019C9.25601 16.0019 9.51204 15.9039 9.70705 15.7089Z" fill="#47474F"/>
</g>
</svg>
