<svg width="12" height="16" viewBox="0 0 12 16" fill="none" xmlns="http://www.w3.org/2000/svg">
<path fill-rule="evenodd" clip-rule="evenodd" d="M1 0.25C0.585786 0.25 0.25 0.585786 0.25 1V8V15C0.25 15.4142 0.585786 15.75 1 15.75H7.5C9.84721 15.75 11.75 13.8472 11.75 11.5C11.75 9.53688 10.419 7.88463 8.61017 7.39646C9.31735 6.63744 9.75 5.61925 9.75 4.5C9.75 2.15279 7.84721 0.25 5.5 0.25H1ZM5.5 7.25C7.01878 7.25 8.25 6.01878 8.25 4.5C8.25 2.98122 7.01878 1.75 5.5 1.75H1.75V7.25H5.5ZM1.75 8.75V14.25H7.5C9.01878 14.25 10.25 13.0188 10.25 11.5C10.25 9.98122 9.01878 8.75 7.5 8.75H5.5H1.75Z" fill="#47474F"/>
</svg>
