<svg width="25" height="24" viewBox="0 0 25 24" fill="none" xmlns="http://www.w3.org/2000/svg">
<path d="M22.948 7.60578L21.748 16.1868C21.591 17.2798 21.164 18.0558 20.491 18.4988C20.258 18.6188 20.0031 18.498 20.0031 18.255V9.66389C20.0031 7.05489 18.4451 5.4969 15.8361 5.4969C15.8361 5.4969 6.72395 5.4969 6.42395 5.4969C6.12395 5.4969 6.11694 5.22676 6.13794 5.10676C6.29594 4.16076 6.67 3.46075 7.25 3.02375C7.857 2.56675 8.67702 2.40785 9.69202 2.55085L20.2531 4.03083C21.2701 4.17483 22.018 4.55589 22.476 5.16389C22.933 5.77089 23.092 6.59278 22.948 7.60578ZM18.502 9.66291V18.3309C18.502 20.1089 17.613 20.9979 15.835 20.9979H5.16699C3.38899 20.9979 2.5 20.1089 2.5 18.3309V9.66291C2.5 7.88491 3.38899 6.99592 5.16699 6.99592H15.835C17.614 6.99592 18.502 7.88491 18.502 9.66291ZM13.75 13.9979C13.75 13.5839 13.414 13.2479 13 13.2479H11.25V11.4979C11.25 11.0839 10.914 10.7479 10.5 10.7479C10.086 10.7479 9.75 11.0839 9.75 11.4979V13.2479H8C7.586 13.2479 7.25 13.5839 7.25 13.9979C7.25 14.4119 7.586 14.7479 8 14.7479H9.75V16.4979C9.75 16.9119 10.086 17.2479 10.5 17.2479C10.914 17.2479 11.25 16.9119 11.25 16.4979V14.7479H13C13.414 14.7479 13.75 14.4119 13.75 13.9979Z" fill="white"/>
</svg>
