<svg width="32" height="32" viewBox="0 0 32 32" fill="none" xmlns="http://www.w3.org/2000/svg">
<g id="briefcase">
<path id="briefcase_2" d="M24 8.0013H22.3333V6.0013C22.3333 4.7213 21.28 3.66797 20 3.66797H12C10.7067 3.66797 9.66667 4.7213 9.66667 6.0013V8.0013H8C5.33333 8.0013 4 9.33464 4 12.0013V13.2812C4 14.5213 4.73334 15.6147 5.88 16.0547C7.72001 16.788 9.62666 17.348 11.5333 17.748C11.68 17.7747 11.8133 17.668 11.8933 17.548C12.8533 16.108 14.4 15.2414 16 15.2414C17.6133 15.2414 19.1467 16.108 20.12 17.548C20.2 17.668 20.3333 17.7747 20.48 17.748C22.3867 17.348 24.28 16.788 26.12 16.068C27.2667 15.6147 28 14.5213 28 13.2812V12.0013C28 9.33464 26.6667 8.0013 24 8.0013ZM11.6667 8.0013V6.0013C11.6667 5.81464 11.8133 5.66797 12 5.66797H20C20.1867 5.66797 20.3333 5.81464 20.3333 6.0013V8.0013H11.6667ZM20.88 19.708C20.7333 19.7347 20.5733 19.748 20.4267 19.748C19.6533 19.748 18.92 19.348 18.4533 18.6546C17.8667 17.7746 16.9467 17.2414 16 17.2414C15.0667 17.2414 14.1467 17.7746 13.56 18.6546C13 19.4813 12.0533 19.8947 11.1333 19.708C9.10668 19.2947 7.09333 18.6946 5.14667 17.9212C4.73333 17.7612 4.34667 17.5479 4 17.2679V24.0013C4 26.668 5.33333 28.0013 8 28.0013H24C26.6667 28.0013 28 26.668 28 24.0013V17.2812C27.6533 17.5479 27.2667 17.7612 26.8533 17.9212C24.9067 18.6946 22.8933 19.2947 20.88 19.708ZM16.0027 21.3346C15.268 21.3346 14.6667 20.7373 14.6667 20.0013C14.6667 19.2653 15.2573 18.668 15.992 18.668H16.0027C16.7373 18.668 17.3333 19.2653 17.3333 20.0013C17.3333 20.7373 16.7373 21.3346 16.0027 21.3346Z" fill="#47474F"/>
</g>
</svg>
