<svg width="16" height="16" viewBox="0 0 16 16" fill="none" xmlns="http://www.w3.org/2000/svg">
<path d="M8 1C4.1339 1 1 4.1339 1 8C1 11.8661 4.1339 15 8 15C11.8661 15 15 11.8661 15 8C15 4.1339 11.8661 1 8 1ZM7.475 4.85C7.475 4.5602 7.7102 4.325 8 4.325C8.2898 4.325 8.525 4.5602 8.525 4.85V8.04973C8.525 8.33953 8.2898 8.57473 8 8.57473C7.7102 8.57473 7.475 8.33953 7.475 8.04973V4.85ZM8.01401 11.15C7.62761 11.15 7.31042 10.8364 7.31042 10.45C7.31042 10.0636 7.62061 9.75 8.00701 9.75H8.01401C8.40111 9.75 8.71401 10.0636 8.71401 10.45C8.71401 10.8364 8.40041 11.15 8.01401 11.15Z" fill="#B3261E"/>
</svg>
