<svg width="16" height="16" viewBox="0 0 16 16" fill="none" xmlns="http://www.w3.org/2000/svg">
<g id="Icon">
<path id="info-circle" d="M8 2C4.6862 2 2 4.6862 2 8C2 11.3138 4.6862 14 8 14C11.3138 14 14 11.3138 14 8C14 4.6862 11.3138 2 8 2ZM8.45 10.7C8.45 10.9484 8.2484 11.15 8 11.15C7.7516 11.15 7.55 10.9484 7.55 10.7V7.95737C7.55 7.70897 7.7516 7.50737 8 7.50737C8.2484 7.50737 8.45 7.70897 8.45 7.95737V10.7ZM8.01201 6.5C7.68081 6.5 7.40894 6.2312 7.40894 5.9C7.40894 5.5688 7.67481 5.3 8.00601 5.3H8.01201C8.34381 5.3 8.61201 5.5688 8.61201 5.9C8.61201 6.2312 8.34321 6.5 8.01201 6.5Z" fill="#47474F"/>
</g>
</svg>
