<svg width="32" height="32" viewBox="0 0 32 32" fill="none" xmlns="http://www.w3.org/2000/svg">
<g id="lock">
<path id="lock_2" d="M22.3332 12.0775V9.33333C22.3332 5.84 19.4932 3 15.9998 3C12.5065 3 9.6665 5.84 9.6665 9.33333V12.0775C7.66917 12.3881 6.6665 13.692 6.6665 16V24C6.6665 26.6667 7.99984 28 10.6665 28H21.3332C23.9998 28 25.3332 26.6667 25.3332 24V16C25.3332 13.692 24.3305 12.3881 22.3332 12.0775ZM16.9998 19.9827V22.6667C16.9998 23.2187 16.5518 23.6667 15.9998 23.6667C15.4478 23.6667 14.9998 23.2187 14.9998 22.6667V19.9492C14.6158 19.6439 14.353 19.1933 14.353 18.6667C14.353 17.7467 15.0932 17 16.0132 17H16.0265C16.9465 17 17.6932 17.7467 17.6932 18.6667C17.6932 19.216 17.4092 19.6801 16.9998 19.9827ZM20.3332 12H11.6665V9.33333C11.6665 6.94667 13.6132 5 15.9998 5C18.3865 5 20.3332 6.94667 20.3332 9.33333V12Z" fill="#47474F"/>
</g>
</svg>
