<svg width="32" height="32" viewBox="0 0 32 32" fill="none" xmlns="http://www.w3.org/2000/svg">
<g id="user-settings">
<path id="user-settings_2" d="M8.01221 8.66536C8.01221 5.72403 10.4042 3.33203 13.3455 3.33203C16.2869 3.33203 18.6789 5.72403 18.6789 8.66536C18.6789 11.6067 16.2869 13.9987 13.3455 13.9987C10.4042 13.9987 8.01221 11.6067 8.01221 8.66536ZM20.3468 18.4253C20.3735 18.4253 20.4001 18.4386 20.4401 18.4386C20.6001 18.4386 20.6802 18.3321 20.6668 18.1987C20.6668 18.0921 20.5602 18.012 20.5068 17.972C19.4002 17.172 17.9202 16.6654 16.0002 16.6654H10.6668C5.2535 16.6654 3.3335 20.6254 3.3335 24.0254C3.3335 27.0654 4.94683 28.6654 8.00016 28.6654H17.3735C17.5869 28.6654 17.7601 28.5186 17.7601 28.2786C17.7601 28.1986 17.6802 28.0387 17.6535 27.9854L16.9601 26.7987C16.6535 26.2787 16.5868 25.6521 16.7601 25.0788C16.8534 24.7854 17.0002 24.5053 17.2135 24.2786C17.2269 24.2653 17.3335 24.148 17.3335 23.9987C17.3335 23.892 17.2802 23.7854 17.2135 23.7188C16.8669 23.3188 16.6668 22.812 16.6668 22.2786C16.6668 21.852 16.8002 21.5053 16.9069 21.292C16.9336 21.2387 16.9468 21.1987 16.9735 21.1587L17.9868 19.492C18.3735 18.7987 19.1069 18.3721 19.8936 18.3721C20.0536 18.3721 20.2002 18.3853 20.3468 18.4253ZM29.1602 25.5454C29.2268 25.5854 29.2534 25.6387 29.2534 25.7054C29.2534 25.7454 29.2536 25.7853 29.2269 25.812L28.2135 27.5187C28.1602 27.6121 28.0268 27.652 27.9334 27.5986C27.6534 27.4386 27.3335 27.3587 27.0135 27.3587C26.6935 27.3587 26.3734 27.4386 26.0934 27.5986C25.5334 27.9186 25.1868 28.5053 25.1868 29.132C25.1868 29.2387 25.0935 29.332 24.9868 29.332H22.9468C22.8268 29.332 22.7336 29.2387 22.7336 29.132V29.092C22.7336 28.4786 22.3735 27.9186 21.8268 27.5986C21.2668 27.2786 20.5602 27.2786 19.9868 27.5986C19.9601 27.612 19.9336 27.6253 19.8936 27.6253C19.8269 27.6253 19.7469 27.5854 19.7069 27.5187L18.6935 25.812C18.6402 25.7187 18.6668 25.5987 18.7734 25.5454C19.3201 25.2254 19.6802 24.6521 19.6802 24.0387V23.9987C19.6802 23.3587 19.3334 22.772 18.7734 22.452C18.7068 22.412 18.6668 22.3453 18.6668 22.2786C18.6668 22.252 18.6802 22.2121 18.6935 22.1854L19.7202 20.4787C19.7735 20.3853 19.8935 20.3454 19.9868 20.3988C20.2668 20.5588 20.5869 20.6387 20.9069 20.6387C21.2269 20.6387 21.5468 20.5588 21.8268 20.3988C22.4002 20.0788 22.7469 19.4921 22.7469 18.8654C22.7469 18.7587 22.8268 18.6654 22.9468 18.6654H24.9735C25.0935 18.6654 25.1868 18.7587 25.1868 18.8654C25.1868 19.4921 25.5334 20.0788 26.0934 20.3988C26.3734 20.5588 26.6935 20.6387 27.0135 20.6387C27.3335 20.6387 27.6534 20.5588 27.9334 20.3988L28.1068 20.3053L29.3335 22.3587L29.1602 22.452C28.5868 22.772 28.2402 23.3587 28.2402 23.9987C28.2402 24.6387 28.5868 25.2254 29.1602 25.5454ZM25.5602 23.9987C25.5602 23.1587 24.8669 22.4787 24.0269 22.4787H24.0135C23.1735 22.4787 22.4935 23.1587 22.4935 23.9987C22.4935 24.8387 23.1869 25.5187 24.0269 25.5187C24.8669 25.5187 25.5602 24.8387 25.5602 23.9987Z" fill="#47474F"/>
</g>
</svg>
