<svg width="25" height="24" viewBox="0 0 25 24" fill="none" xmlns="http://www.w3.org/2000/svg">
<g id="Icon">
<path id="arrow-left" d="M22.4988 12.0003C22.4988 12.5523 22.0518 13.0003 21.4988 13.0003H5.91291L11.2059 18.2933C11.5969 18.6842 11.5969 19.3163 11.2059 19.7073C11.0109 19.9023 10.7548 20.0003 10.4988 20.0003C10.2428 20.0003 9.98681 19.9023 9.79181 19.7073L2.79279 12.7083C2.69979 12.6153 2.62675 12.5054 2.57575 12.3824C2.47475 12.1384 2.47475 11.8622 2.57575 11.6182C2.62675 11.4952 2.69979 11.3853 2.79279 11.2923L9.79181 4.29325C10.1828 3.90225 10.8149 3.90225 11.2059 4.29325C11.5969 4.68425 11.5969 5.31631 11.2059 5.70731L5.91291 11.0003H21.4988C22.0518 11.0003 22.4988 11.4483 22.4988 12.0003Z" fill="#126FE1"/>
</g>
</svg>
