<svg width="24" height="24" viewBox="0 0 24 24" fill="none" xmlns="http://www.w3.org/2000/svg">
<g id="Icon">
<path id="eye-slash" d="M20.3399 10.2708C20.8899 11.1808 20.8899 12.3207 20.3399 13.2307C19.1099 15.2807 16.3598 18.7508 11.7498 18.7508C11.0018 18.7508 10.2978 18.6557 9.64382 18.4907C9.42082 18.4347 9.3507 18.1488 9.5137 17.9868L11.4097 16.0908C11.5257 15.9748 11.6698 16.0008 11.7498 16.0008C14.0938 16.0008 15.9998 14.0938 15.9998 11.7508C15.9998 11.6708 15.9878 11.5127 16.0708 11.4297L18.8128 8.68777C18.9398 8.56077 19.1537 8.57387 19.2647 8.71487C19.7047 9.27087 20.0629 9.80378 20.3399 10.2708ZM21.2798 3.28079L3.27981 21.2808C3.13381 21.4268 2.94178 21.5008 2.74978 21.5008C2.55778 21.5008 2.36575 21.4278 2.21975 21.2808C1.92675 20.9878 1.92675 20.5127 2.21975 20.2197L5.92483 16.5147C4.65483 15.4337 3.73369 14.1868 3.15969 13.2298C2.60969 12.3198 2.60969 11.1798 3.15969 10.2698C4.38969 8.2198 7.13978 4.74978 11.7498 4.74978C13.5738 4.74978 15.0968 5.29668 16.3628 6.07668L20.2197 2.21975C20.5127 1.92675 20.9878 1.92675 21.2808 2.21975C21.5738 2.51275 21.5728 2.98779 21.2798 3.28079ZM8.2698 14.1697L9.35867 13.0808C9.13667 12.6858 8.99978 12.2368 8.99978 11.7508C8.99978 11.4008 9.06972 11.0708 9.18972 10.7608C9.37972 10.9208 9.61967 11.0208 9.88967 11.0208C10.5097 11.0208 11.0198 10.5106 11.0198 9.89065C11.0198 9.62065 10.9198 9.3807 10.7598 9.1907C11.0698 9.0707 11.3998 9.00076 11.7498 9.00076C12.2358 9.00076 12.6859 9.13764 13.0799 9.35964L14.1687 8.27078C13.4807 7.78878 12.6488 7.50076 11.7498 7.50076C9.40978 7.50076 7.49978 9.41076 7.49978 11.7508C7.49978 12.6508 7.7878 13.4817 8.2698 14.1697Z" fill="#47474F"/>
</g>
</svg>
