<svg width="47" height="5" viewBox="0 0 47 5" fill="none" xmlns="http://www.w3.org/2000/svg">
<path d="M0.0880001 2.16C0.0880001 1.648 0.173333 1.23733 0.344 0.927999C0.514667 0.607999 0.744 0.378666 1.032 0.24C1.33067 0.101333 1.656 0.0319996 2.008 0.0319996C2.36 0.0319996 2.68 0.101333 2.968 0.24C3.256 0.378666 3.48533 0.607999 3.656 0.927999C3.83733 1.23733 3.928 1.648 3.928 2.16C3.928 2.66133 3.83733 3.072 3.656 3.392C3.48533 3.70133 3.256 3.93067 2.968 4.08C2.68 4.21867 2.36 4.288 2.008 4.288C1.656 4.288 1.33067 4.21867 1.032 4.08C0.744 3.93067 0.514667 3.70133 0.344 3.392C0.173333 3.072 0.0880001 2.66133 0.0880001 2.16ZM6.10363 2.16C6.10363 1.648 6.18896 1.23733 6.35963 0.927999C6.53029 0.607999 6.75963 0.378666 7.04763 0.24C7.34629 0.101333 7.67163 0.0319996 8.02363 0.0319996C8.37563 0.0319996 8.69563 0.101333 8.98363 0.24C9.27163 0.378666 9.50096 0.607999 9.67163 0.927999C9.85296 1.23733 9.94363 1.648 9.94363 2.16C9.94363 2.66133 9.85296 3.072 9.67163 3.392C9.50096 3.70133 9.27163 3.93067 8.98363 4.08C8.69563 4.21867 8.37563 4.288 8.02363 4.288C7.67163 4.288 7.34629 4.21867 7.04763 4.08C6.75963 3.93067 6.53029 3.70133 6.35963 3.392C6.18896 3.072 6.10363 2.66133 6.10363 2.16ZM12.1193 2.16C12.1193 1.648 12.2046 1.23733 12.3753 0.927999C12.5459 0.607999 12.7753 0.378666 13.0633 0.24C13.3619 0.101333 13.6873 0.0319996 14.0393 0.0319996C14.3913 0.0319996 14.7113 0.101333 14.9993 0.24C15.2873 0.378666 15.5166 0.607999 15.6873 0.927999C15.8686 1.23733 15.9593 1.648 15.9593 2.16C15.9593 2.66133 15.8686 3.072 15.6873 3.392C15.5166 3.70133 15.2873 3.93067 14.9993 4.08C14.7113 4.21867 14.3913 4.288 14.0393 4.288C13.6873 4.288 13.3619 4.21867 13.0633 4.08C12.7753 3.93067 12.5459 3.70133 12.3753 3.392C12.2046 3.072 12.1193 2.66133 12.1193 2.16ZM18.1349 2.16C18.1349 1.648 18.2202 1.23733 18.3909 0.927999C18.5615 0.607999 18.7909 0.378666 19.0789 0.24C19.3775 0.101333 19.7029 0.0319996 20.0549 0.0319996C20.4069 0.0319996 20.7269 0.101333 21.0149 0.24C21.3029 0.378666 21.5322 0.607999 21.7029 0.927999C21.8842 1.23733 21.9749 1.648 21.9749 2.16C21.9749 2.66133 21.8842 3.072 21.7029 3.392C21.5322 3.70133 21.3029 3.93067 21.0149 4.08C20.7269 4.21867 20.4069 4.288 20.0549 4.288C19.7029 4.288 19.3775 4.21867 19.0789 4.08C18.7909 3.93067 18.5615 3.70133 18.3909 3.392C18.2202 3.072 18.1349 2.66133 18.1349 2.16ZM24.1505 2.16C24.1505 1.648 24.2358 1.23733 24.4065 0.927999C24.5772 0.607999 24.8065 0.378666 25.0945 0.24C25.3932 0.101333 25.7185 0.0319996 26.0705 0.0319996C26.4225 0.0319996 26.7425 0.101333 27.0305 0.24C27.3185 0.378666 27.5478 0.607999 27.7185 0.927999C27.8998 1.23733 27.9905 1.648 27.9905 2.16C27.9905 2.66133 27.8998 3.072 27.7185 3.392C27.5478 3.70133 27.3185 3.93067 27.0305 4.08C26.7425 4.21867 26.4225 4.288 26.0705 4.288C25.7185 4.288 25.3932 4.21867 25.0945 4.08C24.8065 3.93067 24.5772 3.70133 24.4065 3.392C24.2358 3.072 24.1505 2.66133 24.1505 2.16ZM30.1661 2.16C30.1661 1.648 30.2515 1.23733 30.4221 0.927999C30.5928 0.607999 30.8221 0.378666 31.1101 0.24C31.4088 0.101333 31.7341 0.0319996 32.0861 0.0319996C32.4381 0.0319996 32.7581 0.101333 33.0461 0.24C33.3341 0.378666 33.5635 0.607999 33.7341 0.927999C33.9155 1.23733 34.0061 1.648 34.0061 2.16C34.0061 2.66133 33.9155 3.072 33.7341 3.392C33.5635 3.70133 33.3341 3.93067 33.0461 4.08C32.7581 4.21867 32.4381 4.288 32.0861 4.288C31.7341 4.288 31.4088 4.21867 31.1101 4.08C30.8221 3.93067 30.5928 3.70133 30.4221 3.392C30.2515 3.072 30.1661 2.66133 30.1661 2.16ZM36.1818 2.16C36.1818 1.648 36.2671 1.23733 36.4378 0.927999C36.6084 0.607999 36.8378 0.378666 37.1258 0.24C37.4244 0.101333 37.7498 0.0319996 38.1018 0.0319996C38.4538 0.0319996 38.7738 0.101333 39.0618 0.24C39.3498 0.378666 39.5791 0.607999 39.7498 0.927999C39.9311 1.23733 40.0218 1.648 40.0218 2.16C40.0218 2.66133 39.9311 3.072 39.7498 3.392C39.5791 3.70133 39.3498 3.93067 39.0618 4.08C38.7738 4.21867 38.4538 4.288 38.1018 4.288C37.7498 4.288 37.4244 4.21867 37.1258 4.08C36.8378 3.93067 36.6084 3.70133 36.4378 3.392C36.2671 3.072 36.1818 2.66133 36.1818 2.16ZM42.1974 2.16C42.1974 1.648 42.2827 1.23733 42.4534 0.927999C42.624 0.607999 42.8534 0.378666 43.1414 0.24C43.44 0.101333 43.7654 0.0319996 44.1174 0.0319996C44.4694 0.0319996 44.7894 0.101333 45.0774 0.24C45.3654 0.378666 45.5947 0.607999 45.7654 0.927999C45.9467 1.23733 46.0374 1.648 46.0374 2.16C46.0374 2.66133 45.9467 3.072 45.7654 3.392C45.5947 3.70133 45.3654 3.93067 45.0774 4.08C44.7894 4.21867 44.4694 4.288 44.1174 4.288C43.7654 4.288 43.44 4.21867 43.1414 4.08C42.8534 3.93067 42.624 3.70133 42.4534 3.392C42.2827 3.072 42.1974 2.66133 42.1974 2.16Z" fill="#0D101D"/>
</svg>
