<svg width="64" height="58" viewBox="0 0 64 58" fill="none" xmlns="http://www.w3.org/2000/svg">
<path d="M0 12C0 5.37258 5.37258 0 12 0H52C58.6274 0 64 5.37258 64 12V46C64 52.6274 58.6274 58 52 58H12C5.37258 58 0 52.6274 0 46V12Z" fill="#126FE1" fill-opacity="0.1"/>
<path d="M42.6667 16H21.3333C17.7778 16 16 17.7333 16 21.2V36.8C16 40.2667 17.7778 42 21.3333 42H42.6667C46.2222 42 48 40.2667 48 36.8V21.2C48 17.7333 46.2222 16 42.6667 16ZM42.5616 23.9837L33.8294 30.1752C33.2819 30.5635 32.64 30.7576 32 30.7576C31.36 30.7576 30.7164 30.5635 30.1706 30.1769L21.4384 23.9837C20.8428 23.5625 20.7112 22.7479 21.145 22.1672C21.577 21.5883 22.4069 21.4565 23.0078 21.8812L31.7405 28.0727C31.8969 28.1819 32.1048 28.1836 32.2613 28.0727L40.9939 21.8812C41.593 21.4565 42.4248 21.5883 42.8568 22.1672C43.2905 22.7496 43.1572 23.5625 42.5616 23.9837Z" fill="#126FE1"/>
</svg>
