<svg width="24" height="24" viewBox="0 0 24 24" fill="none" xmlns="http://www.w3.org/2000/svg">
<g id="Mask group" clip-path="url(#clip0_2917_78821)">
<path id="Vector" d="M12 0C5.37258 0 0 5.37258 0 12C0 18.6274 5.37258 24 12 24C18.6274 24 24 18.6274 24 12C24 5.37258 18.6274 0 12 0Z" fill="#F0F0F0"/>
<g id="Group">
<path id="Vector_2" d="M21.5187 19.3047C22.4613 18.0783 23.1721 16.6648 23.5859 15.1292H17.3432L21.5187 19.3047Z" fill="#0052B4"/>
<path id="Vector_3" d="M0.413625 15.1293C0.827485 16.6648 1.5383 18.0783 2.48086 19.3047L6.65625 15.1293H0.413625Z" fill="#0052B4"/>
<path id="Vector_4" d="M23.5859 8.86914C23.172 7.33361 22.4613 5.92009 21.5187 4.69375L17.3434 8.86914H23.5859Z" fill="#0052B4"/>
<path id="Vector_5" d="M4.69175 21.5187C5.91814 22.4613 7.33161 23.172 8.86719 23.5859V17.3433L4.69175 21.5187Z" fill="#0052B4"/>
<path id="Vector_6" d="M19.3047 2.48091C18.0783 1.5383 16.6648 0.827531 15.1293 0.413625V6.65625L19.3047 2.48091Z" fill="#0052B4"/>
<path id="Vector_7" d="M15.1293 23.5859C16.6648 23.172 18.0783 22.4613 19.3047 21.5187L15.1293 17.3433V23.5859Z" fill="#0052B4"/>
<path id="Vector_8" d="M8.86719 0.413625C7.33166 0.827531 5.91814 1.5383 4.6918 2.48086L8.86719 6.65625V0.413625Z" fill="#0052B4"/>
<path id="Vector_9" d="M6.65625 8.86914L2.48086 4.6937C1.5383 5.92005 0.827485 7.33361 0.413625 8.86914H6.65625Z" fill="#0052B4"/>
</g>
<g id="Group_2">
<path id="Vector_10" d="M0.101578 13.5652L10.4347 13.5652H10.4347L10.4347 23.8984C10.9471 23.9651 11.4695 24 12 24C12.5306 24 13.0529 23.9651 13.5652 23.8984L13.5652 13.5653V13.5653L23.8984 13.5653C23.9651 13.0529 24 12.5305 24 12C24 11.4694 23.9651 10.9471 23.8984 10.4348L13.5653 10.4348H13.5653L13.5653 0.101578C13.0529 0.034874 12.5306 0 12 0C11.4695 0 10.9471 0.0348282 10.4348 0.101578L10.4348 10.4347V10.4347L0.101578 10.4347C0.034874 10.9471 0 11.4694 0 12C0 12.5305 0.034874 13.0529 0.101578 13.5652Z" fill="#D80027"/>
<path id="Vector_11" d="M8.86719 8.86909L3.51237 3.51428C3.26609 3.76047 3.03116 4.01786 2.807 4.28467L7.39147 8.86914H8.86719V8.86909Z" fill="#D80027"/>
<path id="Vector_12" d="M15.1295 8.86914H15.1296L20.4844 3.51437C20.2382 3.26809 19.9808 3.03316 19.714 2.809L15.1295 7.39356V8.86914Z" fill="#D80027"/>
<path id="Vector_13" d="M15.1273 15.1294V15.1295L20.4821 20.4844C20.7284 20.2382 20.9633 19.9808 21.1875 19.714L16.603 15.1295H15.1273V15.1294Z" fill="#D80027"/>
<path id="Vector_14" d="M8.86719 15.1312L3.51233 20.4861C3.75852 20.7324 4.01591 20.9673 4.28272 21.1914L8.86719 16.6069V15.1312Z" fill="#D80027"/>
</g>
</g>
<defs>
<clipPath id="clip0_2917_78821">
<rect width="24" height="24" fill="white" transform="matrix(-1 0 0 -1 24 24)"/>
</clipPath>
</defs>
</svg>
