<svg width="24" height="24" viewBox="0 0 24 24" fill="none" xmlns="http://www.w3.org/2000/svg">
<g id="Germany" clip-path="url(#clip0_2917_78866)">
<path id="Vector" d="M0.75 16.1743C2.44552 20.7439 6.84403 24.0004 12.0036 24.0004C17.1632 24.0004 21.5617 20.7439 23.2572 16.1743L12.0036 15.1309L0.75 16.1743Z" fill="#FFDA44"/>
<path id="Vector_2" d="M12.0036 0C6.84403 0 2.44552 3.2565 0.75 7.82611L12.0036 8.86955L23.2572 7.82606C21.5617 3.2565 17.1632 0 12.0036 0Z" fill="black"/>
<path id="Vector_3" d="M0.746391 7.82617C0.264047 9.12616 0 10.5322 0 12.0001C0 13.4679 0.264047 14.874 0.746391 16.174H23.2537C23.736 14.874 24 13.4679 24 12.0001C24 10.5322 23.736 9.12616 23.2536 7.82617H0.746391Z" fill="#D80027"/>
</g>
<defs>
<clipPath id="clip0_2917_78866">
<rect width="24" height="24" fill="white"/>
</clipPath>
</defs>
</svg>
