<svg width="24" height="24" viewBox="0 0 24 24" fill="none" xmlns="http://www.w3.org/2000/svg">
<g id="&#208;&#161;zech Republic" clip-path="url(#clip0_2920_78882)">
<path id="Vector" d="M12 24C18.6274 24 24 18.6274 24 12C24 5.37258 18.6274 0 12 0C5.37258 0 0 5.37258 0 12C0 18.6274 5.37258 24 12 24Z" fill="#F0F0F0"/>
<path id="Vector_2" d="M10.9575 12C10.9575 12 3.52266 20.487 3.51562 20.4853C5.68716 22.6568 8.6872 24 12.0009 24C18.6283 24 24.0009 18.6274 24.0009 12H10.9575Z" fill="#D80027"/>
<path id="Vector_3" d="M3.51471 3.51562C-1.17157 8.20191 -1.17157 15.7999 3.51471 20.4862C5.45126 18.5497 7.31374 16.6872 12 12.0009L3.51471 3.51562Z" fill="#0052B4"/>
</g>
<defs>
<clipPath id="clip0_2920_78882">
<rect width="24" height="24" fill="white"/>
</clipPath>
</defs>
</svg>
