<svg width="58" height="58" viewBox="0 0 58 58" fill="none" xmlns="http://www.w3.org/2000/svg">
<path d="M0 12C0 5.37258 5.37258 0 12 0H46C52.6274 0 58 5.37258 58 12V45.9991C58 52.6265 52.6274 57.9991 46 57.9991H12C5.37258 57.9991 0 52.6265 0 45.9991V12Z" fill="#126FE1" fill-opacity="0.1"/>
<path d="M37.1247 32.1388L40.9424 34.4151C41.731 34.886 42.1382 35.8018 41.9576 36.7031C41.2195 40.3994 37.5075 42.7682 33.872 41.7701C25.2936 39.4157 18.5928 32.7353 16.2298 24.1382C15.2303 20.5012 17.5963 16.7861 21.294 16.0466L21.3184 16.0423C22.2211 15.8617 23.1414 16.2705 23.6109 17.0635L25.8685 20.8753C26.6716 22.2301 26.2727 23.9778 24.9597 24.8503L22.5607 26.4463C24.2536 30.5008 27.4889 33.7493 31.5318 35.4392L33.1424 33.0343C34.022 31.7242 35.7698 31.3313 37.1247 32.1388ZM37.3053 26.1098C37.3053 23.1228 34.8743 20.6933 31.8887 20.6933C31.2907 20.6933 30.8054 21.1786 30.8054 21.7766C30.8054 22.3745 31.2907 22.8599 31.8887 22.8599C33.6798 22.8599 35.1386 24.3173 35.1386 26.1098C35.1386 26.7078 35.624 27.1931 36.2219 27.1931C36.8199 27.1931 37.3053 26.7078 37.3053 26.1098ZM40.5552 27.1931C39.9572 27.1931 39.4719 26.7078 39.4719 26.1098C39.4719 21.9282 36.0703 18.5266 31.8887 18.5266C31.2907 18.5266 30.8054 18.0413 30.8054 17.4433C30.8054 16.8453 31.2907 16.36 31.8887 16.36C37.2648 16.36 41.6385 20.7337 41.6385 26.1098C41.6385 26.7078 41.1532 27.1931 40.5552 27.1931Z" fill="#126FE1"/>
</svg>
