<svg width="24" height="24" viewBox="0 0 24 24" fill="none" xmlns="http://www.w3.org/2000/svg">
<g id="ph:check-thin">
<path id="Vector" d="M21.2653 7.01552L9.26528 19.0155C9.23045 19.0504 9.18909 19.078 9.14357 19.0969C9.09804 19.1158 9.04925 19.1255 8.99996 19.1255C8.95068 19.1255 8.90189 19.1158 8.85636 19.0969C8.81084 19.078 8.76948 19.0504 8.73465 19.0155L3.48465 13.7655C3.41429 13.6952 3.37476 13.5997 3.37476 13.5002C3.37476 13.4007 3.41429 13.3053 3.48465 13.2349C3.55502 13.1645 3.65045 13.125 3.74996 13.125C3.84948 13.125 3.94491 13.1645 4.01528 13.2349L8.99996 18.2196L20.7347 6.4849C20.805 6.41453 20.9005 6.375 21 6.375C21.0995 6.375 21.1949 6.41453 21.2653 6.4849C21.3356 6.55526 21.3752 6.6507 21.3752 6.75021C21.3752 6.84972 21.3356 6.94516 21.2653 7.01552Z" fill="#2E9532"/>
</g>
</svg>
