<svg width="32" height="26" viewBox="0 0 32 26" fill="none" xmlns="http://www.w3.org/2000/svg">
<path id="envelope" d="M26.6667 0H5.33333C1.77778 0 0 1.73333 0 5.2V20.8C0 24.2667 1.77778 26 5.33333 26H26.6667C30.2222 26 32 24.2667 32 20.8V5.2C32 1.73333 30.2222 0 26.6667 0ZM26.5616 7.98374L17.8294 14.1752C17.2819 14.5635 16.64 14.7576 16 14.7576C15.36 14.7576 14.7164 14.5635 14.1706 14.1769L5.43837 7.98374C4.84281 7.56254 4.71119 6.74786 5.14497 6.1672C5.57697 5.58826 6.40692 5.45654 7.00781 5.88121L15.7405 12.0727C15.8969 12.1819 16.1048 12.1836 16.2613 12.0727L24.9939 5.88121C25.593 5.45654 26.4248 5.58826 26.8568 6.1672C27.2905 6.7496 27.1572 7.56254 26.5616 7.98374Z" fill="#126FE1"/>
</svg>
