<svg width="32" height="32" viewBox="0 0 32 32" fill="none" xmlns="http://www.w3.org/2000/svg">
<g id="Icon" clip-path="url(#clip0_1092_13870)">
<path id="Vector" d="M16 0C20.2435 0 24.3131 1.68571 27.3137 4.68629C30.3143 7.68687 32 11.7565 32 16C32 20.2435 30.3143 24.3131 27.3137 27.3137C24.3131 30.3143 20.2435 32 16 32C11.7565 32 7.68687 30.3143 4.68629 27.3137C1.68571 24.3131 0 20.2435 0 16C0 11.7565 1.68571 7.68687 4.68629 4.68629C7.68687 1.68571 11.7565 0 16 0ZM14.0069 19.1566L10.4526 15.6C10.3252 15.4726 10.1739 15.3715 10.0074 15.3025C9.84092 15.2336 9.66249 15.1981 9.48229 15.1981C9.30209 15.1981 9.12365 15.2336 8.95717 15.3025C8.79069 15.3715 8.63942 15.4726 8.512 15.6C8.25466 15.8573 8.1101 16.2064 8.1101 16.5703C8.1101 16.9342 8.25466 17.2832 8.512 17.5406L13.0377 22.0663C13.1648 22.1943 13.3159 22.296 13.4825 22.3653C13.649 22.4347 13.8276 22.4704 14.008 22.4704C14.1884 22.4704 14.367 22.4347 14.5335 22.3653C14.7001 22.296 14.8512 22.1943 14.9783 22.0663L24.3497 12.6926C24.4788 12.5657 24.5816 12.4145 24.652 12.2477C24.7224 12.0809 24.759 11.9018 24.7599 11.7208C24.7607 11.5398 24.7257 11.3603 24.6569 11.1929C24.588 11.0255 24.4867 10.8733 24.3588 10.7452C24.2308 10.6172 24.0788 10.5157 23.9115 10.4466C23.7441 10.3776 23.5647 10.3424 23.3837 10.343C23.2027 10.3436 23.0235 10.3801 22.8567 10.4503C22.6898 10.5205 22.5385 10.623 22.4114 10.752L14.0069 19.1566Z" fill="#126FE1"/>
</g>
<defs>
<clipPath id="clip0_1092_13870">
<rect width="32" height="32" fill="white"/>
</clipPath>
</defs>
</svg>
