<svg width="91" height="50" viewBox="0 0 91 50" fill="none" xmlns="http://www.w3.org/2000/svg">
<g id="logoidea2 7" clip-path="url(#clip0_3234_58151)">
<path id="Vector" d="M45.8457 2.11936V47.736C45.8457 48.2987 46.069 48.8384 46.4665 49.2363C46.864 49.6342 47.403 49.8577 47.9652 49.8577H60.5283C61.0904 49.8577 61.6295 49.6342 62.027 49.2363C62.4245 48.8384 62.6478 48.2987 62.6478 47.736V46.7484C62.6485 46.4888 62.6013 46.2314 62.5085 45.9891C61.8221 44.2181 59.0521 34.9357 68.1684 34.3614C76.5839 33.8232 77.0639 42.2333 75.2181 45.8161C74.9781 46.2822 74.6132 46.6739 74.5772 47.1977L74.558 47.4933C74.5387 47.7819 74.5786 48.0714 74.6752 48.344C74.7719 48.6166 74.9232 48.8665 75.12 49.0783C75.3167 49.2901 75.5547 49.4594 75.8193 49.5756C76.0838 49.6919 76.3694 49.7528 76.6583 49.7544L88.8662 49.8409C89.1456 49.8431 89.4227 49.7899 89.6815 49.6844C89.9403 49.5789 90.1757 49.4232 90.3741 49.2261C90.5724 49.0291 90.7299 48.7947 90.8373 48.5365C90.9447 48.2783 91.0001 48.0013 91.0001 47.7216V2.11936C91.0001 1.84084 90.9452 1.56505 90.8387 1.30777C90.7321 1.05048 90.576 0.816734 90.3791 0.619902C90.1823 0.42307 89.9486 0.267006 89.6915 0.160639C89.4344 0.0542732 89.1588 -0.00031442 88.8806 1.36226e-06H76.8503C76.5656 -0.00017434 76.2838 0.0570757 76.0217 0.168332C75.7595 0.279588 75.5225 0.442573 75.3247 0.647555C75.1269 0.852536 74.9723 1.09532 74.8703 1.3614C74.7683 1.62748 74.7209 1.91142 74.7309 2.19625L74.7573 2.88829C74.7639 3.10984 74.8061 3.32889 74.8821 3.53707C75.5445 5.33684 78.5425 15.4338 68.4229 15.256C58.5817 15.0806 61.6204 4.7193 62.6478 3.79418C63.1278 3.36406 63.2983 2.83302 63.0822 1.71327C62.9872 1.23064 62.7277 0.795988 62.3482 0.483529C61.9687 0.17107 61.4926 0.000170143 61.0012 1.36226e-06H47.9652C47.6869 -0.00031442 47.4114 0.0542732 47.1543 0.160639C46.8971 0.267006 46.6635 0.42307 46.4666 0.619902C46.2698 0.816734 46.1136 1.05048 46.0071 1.30777C45.9005 1.56505 45.8457 1.84084 45.8457 2.11936Z" fill="#126FE1"/>
<path id="Vector_2" d="M59.9305 24.9325C59.6472 34.7219 53.6465 32.3815 49.806 31.0238C46.148 29.7383 46.0616 32.8477 46.0616 33.148V34.5153C46.0616 38.5846 44.4474 42.4874 41.574 45.3657C38.7006 48.2441 34.803 49.8624 30.7381 49.865H17.0156C12.5027 49.865 8.17474 48.0703 4.98368 44.8758C1.79262 41.6813 -9.88592e-05 37.3486 -9.88592e-05 32.8308V3.13582C-0.00168788 2.72338 0.0783259 2.3147 0.235331 1.93337C0.392335 1.55205 0.623222 1.20562 0.914662 0.914085C1.2061 0.622552 1.55233 0.391684 1.93336 0.234801C2.31439 0.0779186 2.72269 -0.00187329 3.13469 3.33806e-05H12.8751C13.2873 -0.00155974 13.6957 0.0786208 14.0768 0.235945C14.4579 0.39327 14.804 0.624625 15.0953 0.916637C15.3865 1.20865 15.6171 1.55554 15.7737 1.93726C15.9302 2.31898 16.0097 2.72798 16.0075 3.14062L15.9691 31.4203C15.967 32.7521 16.4876 34.0314 17.4188 34.9825C18.35 35.9335 19.6172 36.4803 20.9473 36.5049L23.6356 36.5529C24.325 36.566 25.0101 36.4413 25.6507 36.186C26.2913 35.9307 26.8746 35.55 27.3664 35.0662C27.8581 34.5824 28.2485 34.0052 28.5147 33.3684C28.7808 32.7316 28.9173 32.0481 28.9163 31.3579L28.8899 3.14783C28.8879 2.73539 28.9677 2.32665 29.1244 1.9452C29.2811 1.56376 29.5117 1.21716 29.8029 0.9254C30.0941 0.633644 30.4402 0.402507 30.8211 0.245332C31.202 0.0881568 31.6102 0.00805628 32.0222 0.00964703H42.9268C43.3376 0.00964398 43.7443 0.0908381 44.1237 0.248573C44.503 0.406308 44.8476 0.637482 45.1375 0.928824C45.4274 1.22017 45.657 1.56594 45.8131 1.94632C45.9692 2.3267 46.0487 2.7342 46.0472 3.14543V17.4787C46.04 18.0148 46.2241 18.5358 46.5664 18.9481C46.9088 19.3604 47.3868 19.6369 47.9146 19.7278C48.3984 19.8016 48.8927 19.7056 49.314 19.4563C49.8193 19.1541 50.3625 18.9206 50.9294 18.7619C53.6369 18.0554 60.1561 17.1591 59.9305 24.9325Z" fill="#FFD100"/>
</g>
<defs>
<clipPath id="clip0_3234_58151">
<rect width="91" height="49.8673" fill="white"/>
</clipPath>
</defs>
</svg>
