<svg width="191" height="61" viewBox="0 0 191 61" fill="none" xmlns="http://www.w3.org/2000/svg">
<g clip-path="url(#clip0_308_1159)">
<path d="M45.9716 2.125V47.863C45.9716 48.4272 46.1955 48.9683 46.594 49.3673C46.9926 49.7662 47.5332 49.9904 48.0968 49.9904H60.6945C61.2582 49.9904 61.7987 49.7662 62.1973 49.3673C62.5959 48.9683 62.8198 48.4272 62.8198 47.863V46.8727C62.8205 46.6125 62.7732 46.3544 62.6802 46.1114C61.9918 44.3358 59.2143 35.0287 68.3556 34.4529C76.7942 33.9132 77.2756 42.3457 75.4247 45.9379C75.184 46.4053 74.8181 46.7981 74.782 47.3233L74.7628 47.6196C74.7434 47.909 74.7834 48.1993 74.8803 48.4726C74.9772 48.7459 75.129 48.9965 75.3263 49.2088C75.5236 49.4212 75.7622 49.5909 76.0275 49.7075C76.2928 49.8241 76.5791 49.8851 76.8688 49.8868L89.1102 49.9735C89.3904 49.9757 89.6683 49.9224 89.9278 49.8166C90.1873 49.7108 90.4233 49.5546 90.6222 49.3571C90.8212 49.1596 90.979 48.9245 91.0868 48.6656C91.1945 48.4067 91.25 48.129 91.25 47.8485V2.125C91.25 1.84574 91.195 1.56922 91.0881 1.31124C90.9813 1.05327 90.8247 0.818906 90.6273 0.621551C90.43 0.424195 90.1956 0.267716 89.9378 0.161067C89.68 0.0544176 89.4037 -0.000315257 89.1247 1.36589e-06H77.0613C76.7759 -0.000174803 76.4933 0.0572275 76.2304 0.16878C75.9676 0.280332 75.7299 0.443751 75.5315 0.649278C75.3332 0.854804 75.1782 1.09823 75.0759 1.36502C74.9736 1.63181 74.9261 1.9165 74.9361 2.2021L74.9625 2.89597C74.9692 3.11812 75.0115 3.33774 75.0877 3.54648C75.752 5.35104 78.7582 15.4749 68.6108 15.2966C58.7425 15.1207 61.7896 4.73185 62.8198 3.80427C63.3012 3.37301 63.472 2.84056 63.2554 1.71783C63.1601 1.23391 62.9 0.798105 62.5194 0.484815C62.1388 0.171525 61.6614 0.000170595 61.1687 1.36589e-06H48.0968C47.8179 -0.000315257 47.5415 0.0544176 47.2837 0.161067C47.0259 0.267716 46.7916 0.424195 46.5942 0.621551C46.3968 0.818906 46.2402 1.05327 46.1334 1.31124C46.0265 1.56922 45.9716 1.84574 45.9716 2.125Z" fill="#0066CC"/>
<path d="M60.0951 24.9986C59.8111 34.8141 53.7939 32.4674 49.9429 31.1062C46.2748 29.8172 46.1881 32.9349 46.1881 33.236V34.6069C46.1881 38.6871 44.5696 42.6002 41.6882 45.4862C38.8069 48.3723 34.8986 49.9949 30.8225 49.9974H17.0623C12.5371 49.9974 8.1972 48.198 4.99737 44.995C1.79754 41.792 -9.87954e-05 37.4477 -9.87954e-05 32.918V3.14398C-0.00169218 2.73044 0.0785414 2.32067 0.235977 1.93833C0.393413 1.55599 0.624934 1.20864 0.917175 0.916334C1.20942 0.624025 1.55659 0.392543 1.93867 0.235243C2.32075 0.0779428 2.73017 -0.00206138 3.1433 -0.000149636H12.9105C13.3238 -0.00174699 13.7333 0.0786468 14.1155 0.23639C14.4976 0.394133 14.8447 0.626104 15.1367 0.918892C15.4288 1.21168 15.66 1.55949 15.817 1.94223C15.974 2.32497 16.0537 2.73505 16.0514 3.14879L16.0129 31.5037C16.0108 32.839 16.5329 34.1217 17.4667 35.0753C18.4004 36.0289 19.6711 36.5771 21.0048 36.6018L23.7005 36.65C24.3918 36.6631 25.0788 36.5381 25.7211 36.2821C26.3635 36.0261 26.9484 35.6444 27.4415 35.1593C27.9347 34.6742 28.3262 34.0954 28.593 33.457C28.8599 32.8185 28.9968 32.1332 28.9957 31.4411L28.9692 3.15602C28.9673 2.74248 29.0472 2.33265 29.2044 1.95019C29.3615 1.56773 29.5928 1.22021 29.8848 0.927679C30.1768 0.635146 30.5238 0.403394 30.9058 0.245801C31.2877 0.0882082 31.6971 0.00789461 32.1102 0.00948958H43.0447C43.4566 0.00948653 43.8645 0.0908967 44.2449 0.249051C44.6253 0.407205 44.9708 0.638995 45.2615 0.931112C45.5522 1.22323 45.7824 1.56993 45.939 1.95132C46.0955 2.33271 46.1753 2.74129 46.1737 3.15361V17.525C46.1665 18.0625 46.3511 18.585 46.6944 18.9984C47.0376 19.4117 47.517 19.689 48.0462 19.7801C48.5313 19.8541 49.0271 19.7579 49.4495 19.5079C49.9561 19.2049 50.5009 18.9707 51.0693 18.8116C53.7843 18.1033 60.3214 17.2046 60.0951 24.9986Z" fill="#FFD100"/>
</g>
<path d="M107.078 36.4375C107.953 40.8125 111.016 43.3281 115.719 43.3281C119.656 43.3281 122.609 41.9062 124.688 39.6094L130.047 44.8594C126.766 48.3594 121.953 50.5469 115.609 50.5469C104.234 50.5469 98.4375 43.3281 98.4375 33.5938C98.4375 23.5312 105 16.6406 115.062 16.6406C125.016 16.6406 131.359 23.3125 131.359 33.5938C131.359 34.25 131.359 34.9062 131.031 36.4375H107.078ZM115.062 23.6406C111.016 23.6406 108.172 26.0469 107.188 30.0938H122.609C121.734 25.9375 119.109 23.6406 115.062 23.6406ZM137.922 50V6.25H146.672V50H137.922ZM174.562 16.6406C183.094 16.6406 188.562 23.3125 188.562 33.5938C188.562 43.7656 182.875 50.5469 174.562 50.5469C170.297 50.5469 166.906 48.9062 164.391 46.1719V60.9375H155.641V17.1875H163.516L163.953 21.7812C166.469 18.5 170.078 16.6406 174.562 16.6406ZM171.828 43.3281C176.75 43.3281 179.703 39.6094 179.703 33.5938C179.703 27.5781 176.75 23.8594 171.828 23.8594C166.906 23.8594 164.062 27.5781 164.062 33.5938C164.062 39.6094 166.906 43.3281 171.828 43.3281Z" fill="#28262B"/>
<defs>
<clipPath id="clip0_308_1159">
<rect width="91.25" height="50" fill="white"/>
</clipPath>
</defs>
</svg>
