<svg width="235" height="95" viewBox="0 0 235 95" fill="none" xmlns="http://www.w3.org/2000/svg">
<g clip-path="url(#clip0_368_13877)">
<path d="M73.1428 3.4V76.5807C73.1428 77.4835 73.499 78.3493 74.1332 78.9876C74.7673 79.626 75.6274 79.9846 76.5242 79.9846H96.568C97.4648 79.9846 98.3249 79.626 98.9591 78.9876C99.5932 78.3493 99.9495 77.4835 99.9495 76.5807V74.9964C99.9507 74.58 99.8754 74.167 99.7274 73.7783C98.6321 70.9372 94.2128 56.0459 108.757 55.1246C122.184 54.2611 122.95 67.7531 120.005 73.5007C119.622 74.2485 119.04 74.8769 118.982 75.7172L118.952 76.1914C118.921 76.6544 118.984 77.1188 119.139 77.5561C119.293 77.9934 119.534 78.3943 119.848 78.7341C120.162 79.074 120.542 79.3455 120.964 79.532C121.386 79.7186 121.841 79.8162 122.302 79.8188L141.779 79.9576C142.225 79.9612 142.667 79.8758 143.08 79.7066C143.493 79.5373 143.869 79.2874 144.185 78.9714C144.502 78.6553 144.753 78.2793 144.924 77.865C145.096 77.4507 145.184 77.0064 145.184 76.5576V3.4C145.184 2.95318 145.096 2.51075 144.926 2.09799C144.756 1.68523 144.507 1.31025 144.193 0.994482C143.879 0.678713 143.506 0.428346 143.096 0.257707C142.686 0.0870681 142.246 -0.000504411 141.802 2.18542e-06H122.609C122.155 -0.000279686 121.705 0.091564 121.287 0.270047C120.869 0.448531 120.49 0.710001 120.175 1.03884C119.859 1.36769 119.613 1.75717 119.45 2.18403C119.287 2.6109 119.211 3.0664 119.227 3.52335L119.269 4.63356C119.28 4.98899 119.347 5.34039 119.469 5.67436C120.526 8.56166 125.309 24.7598 109.163 24.4745C93.4622 24.1931 98.3104 7.57096 99.9495 6.08684C100.715 5.39682 100.987 4.54489 100.643 2.74852C100.491 1.97425 100.077 1.27697 99.4715 0.775704C98.866 0.27444 98.1064 0.000272952 97.3224 2.18542e-06H76.5242C76.0803 -0.000504411 75.6407 0.0870681 75.2305 0.257707C74.8202 0.428346 74.4474 0.678713 74.1334 0.994482C73.8193 1.31025 73.5702 1.68523 73.4002 2.09799C73.2302 2.51075 73.1428 2.95318 73.1428 3.4Z" fill="#004BBF"/>
<path d="M95.6158 39.9981C95.1639 55.7029 85.5901 51.9482 79.4628 49.7702C73.6266 47.7079 73.4887 52.6961 73.4887 53.1779V55.3713C73.4887 61.8996 70.9135 68.1607 66.3291 72.7783C61.7447 77.3959 55.5264 79.9921 49.041 79.9962H27.1476C19.9476 79.9962 13.0425 77.1171 7.95136 71.9923C2.86021 66.8675 3.7032e-05 59.9167 3.7032e-05 52.6691V5.03066C-0.00249816 4.36899 0.125159 3.71337 0.375651 3.10163C0.626143 2.48988 0.994509 1.93412 1.45949 1.46643C1.92446 0.998733 2.47684 0.628362 3.08476 0.376682C3.69267 0.125001 4.34409 -0.00300524 5.0014 5.35511e-05H20.5416C21.1993 -0.00250222 21.8509 0.126128 22.4589 0.378517C23.0669 0.630906 23.6191 1.00206 24.0838 1.47052C24.5485 1.93898 24.9163 2.49548 25.1661 3.10786C25.4159 3.72025 25.5427 4.37638 25.5392 5.03836L25.4779 50.4063C25.4745 52.5427 26.3052 54.595 27.7909 56.1208C29.2765 57.6466 31.2983 58.5237 33.4204 58.5631L37.7094 58.6403C38.8093 58.6613 39.9023 58.4612 40.9244 58.0516C41.9464 57.6421 42.877 57.0313 43.6616 56.2551C44.4462 55.479 45.0691 54.553 45.4937 53.5315C45.9183 52.5099 46.1361 51.4134 46.1344 50.306L46.0923 5.04993C46.0892 4.38826 46.2164 3.73254 46.4664 3.1206C46.7165 2.50867 47.0844 1.95263 47.549 1.48458C48.0136 1.01653 48.5657 0.645724 49.1735 0.393575C49.7812 0.141426 50.4325 0.0129243 51.0898 0.0154763H68.4874C69.1428 0.0154714 69.7917 0.145728 70.397 0.398775C71.0022 0.651822 71.5519 1.02268 72.0144 1.49007C72.477 1.95746 72.8433 2.51217 73.0923 3.1224C73.3414 3.73263 73.4683 4.38635 73.4658 5.04607V28.0403C73.4543 28.9003 73.7481 29.7362 74.2942 30.3977C74.8404 31.0591 75.6031 31.5026 76.4451 31.6485C77.217 31.7668 78.0057 31.6129 78.6778 31.2129C79.4839 30.7281 80.3506 30.3534 81.255 30.0988C85.5747 28.9655 95.9758 27.5276 95.6158 39.9981Z" fill="#FFD100"/>
</g>
<path d="M179.754 62.4371C179.754 63.1998 179.715 63.9885 179.637 64.8031C179.607 65.1217 179.337 65.3615 179.017 65.3615H157.623C157.256 65.3615 156.965 65.6746 157.016 66.0381C157.252 67.7394 157.872 69.0736 158.873 70.0406C160.043 71.0934 161.466 71.6198 163.143 71.6198C165.492 71.6198 167.167 70.6872 168.169 68.8218C168.285 68.6055 168.506 68.4614 168.751 68.4614H178.183C178.594 68.4614 178.895 68.8489 178.772 69.241C178.197 71.0764 177.276 72.7466 176.011 74.2519C174.607 75.9675 172.833 77.3128 170.688 78.2876C168.543 79.2624 166.145 79.7498 163.494 79.7498C160.297 79.7498 157.45 79.0674 154.955 77.7027C152.459 76.338 150.509 74.3883 149.106 71.8538C147.702 69.3193 147 66.3558 147 62.9635C147 59.5711 147.682 56.6076 149.047 54.0731C150.451 51.5386 152.4 49.589 154.896 48.2242C157.392 46.8595 160.258 46.1771 163.494 46.1771C166.652 46.1771 169.46 46.84 171.916 48.1657C174.373 49.4915 176.284 51.3826 177.648 53.8392C179.052 56.2957 179.754 59.1617 179.754 62.4371ZM168.888 59.805C169.236 59.805 169.522 59.5224 169.491 59.1758C169.362 57.7524 168.787 56.5974 167.764 55.7108C166.594 54.697 165.132 54.1901 163.377 54.1901C161.7 54.1901 160.277 54.6775 159.107 55.6523C158.133 56.4924 157.477 57.6366 157.139 59.0849C157.052 59.4606 157.349 59.805 157.735 59.805H168.888Z" fill="#001B47"/>
<path d="M191.859 36C192.207 36 192.489 36.2821 192.489 36.63V78.6519C192.489 78.9998 192.207 79.2819 191.859 79.2819H183.117C182.769 79.2819 182.487 78.9998 182.487 78.6519V36.63C182.487 36.2821 182.769 36 183.117 36H191.859Z" fill="#001B47"/>
<path d="M207.196 49.1155C207.196 49.7447 208.094 50.037 208.535 49.589C209.3 48.8136 210.198 48.1442 211.231 47.5808C212.947 46.645 214.955 46.1771 217.256 46.1771C219.946 46.1771 222.383 46.8595 224.567 48.2242C226.75 49.589 228.466 51.5386 229.714 54.0731C231.001 56.6076 231.644 59.5516 231.644 62.905C231.644 66.2583 231.001 69.2218 229.714 71.7953C228.466 74.3298 226.75 76.299 224.567 77.7027C222.383 79.0674 219.946 79.7498 217.256 79.7498C214.994 79.7498 212.986 79.2819 211.231 78.3461C210.193 77.7797 209.29 77.1133 208.523 76.347C208.081 75.905 207.196 76.1983 207.196 76.8236V94.21C207.196 94.5579 206.913 94.84 206.566 94.84H197.824C197.476 94.84 197.194 94.5579 197.194 94.21V47.275C197.194 46.9271 197.476 46.645 197.824 46.645H206.566C206.913 46.645 207.196 46.9271 207.196 47.275V49.1155ZM221.467 62.905C221.467 60.4094 220.765 58.4598 219.361 57.0561C217.997 55.6133 216.3 54.892 214.273 54.892C212.284 54.892 210.588 55.6133 209.184 57.0561C207.819 58.4988 207.137 60.4679 207.137 62.9635C207.137 65.459 207.819 67.4281 209.184 68.8709C210.588 70.3136 212.284 71.035 214.273 71.035C216.261 71.035 217.958 70.3136 219.361 68.8709C220.765 67.3891 221.467 65.4005 221.467 62.905Z" fill="#001B47"/>
<defs>
<clipPath id="clip0_368_13877">
<rect width="145.185" height="80" fill="white"/>
</clipPath>
</defs>
</svg>
