<svg width="89" height="18" viewBox="0 0 89 18" fill="none" xmlns="http://www.w3.org/2000/svg">
<path d="M0.90625 10.6025V2.34003C0.90625 1.63684 1.0625 1.10945 1.375 0.757858C1.69531 0.406265 2.11328 0.230469 2.62891 0.230469C3.16797 0.230469 3.59375 0.406265 3.90625 0.757858C4.22656 1.10945 4.38672 1.63684 4.38672 2.34003V10.79C4.38672 11.751 4.49219 12.5558 4.70312 13.2043C4.92188 13.8449 5.30469 14.345 5.85156 14.7044C6.39844 15.056 7.16406 15.2318 8.14844 15.2318C9.50781 15.2318 10.4688 14.8724 11.0312 14.1536C11.5938 13.4269 11.875 12.3292 11.875 10.8603V2.34003C11.875 1.62903 12.0312 1.10164 12.3438 0.757858C12.6562 0.406265 13.0742 0.230469 13.5977 0.230469C14.1211 0.230469 14.543 0.406265 14.8633 0.757858C15.1914 1.10164 15.3555 1.62903 15.3555 2.34003V10.6025C15.3555 11.9463 15.2227 13.0675 14.957 13.966C14.6992 14.8646 14.207 15.6537 13.4805 16.3334C12.8555 16.9116 12.1289 17.3335 11.3008 17.5992C10.4727 17.8648 9.50391 17.9976 8.39453 17.9976C7.07422 17.9976 5.9375 17.857 4.98438 17.5757C4.03125 17.2866 3.25391 16.8452 2.65234 16.2514C2.05078 15.6498 1.60938 14.8841 1.32812 13.9543C1.04688 13.0167 0.90625 11.8995 0.90625 10.6025Z" fill="#031C35"/>
<path d="M23.1016 12.8761H19.3984C18.8359 12.8761 18.4062 12.7472 18.1094 12.4893C17.8203 12.2237 17.6758 11.8838 17.6758 11.4697C17.6758 11.0478 17.8164 10.7079 18.0977 10.4501C18.3867 10.1845 18.8203 10.0516 19.3984 10.0516H23.1016C23.6797 10.0516 24.1094 10.1845 24.3906 10.4501C24.6797 10.7079 24.8242 11.0478 24.8242 11.4697C24.8242 11.8838 24.6836 12.2237 24.4023 12.4893C24.1211 12.7472 23.6875 12.8761 23.1016 12.8761Z" fill="#031C35"/>
<path d="M30.6133 2.34003V6.26233C30.6133 6.81461 31.061 7.26233 31.6133 7.26233H37.125C37.6773 7.26233 38.125 6.81461 38.125 6.26233V2.34003C38.125 1.63684 38.2812 1.10945 38.5938 0.757858C38.9141 0.406265 39.332 0.230469 39.8477 0.230469C40.3711 0.230469 40.793 0.406265 41.1133 0.757858C41.4414 1.10164 41.6055 1.62903 41.6055 2.34003V15.8764C41.6055 16.5874 41.4414 17.1187 41.1133 17.4702C40.7852 17.8218 40.3633 17.9976 39.8477 17.9976C39.3242 17.9976 38.9062 17.8218 38.5938 17.4702C38.2812 17.1108 38.125 16.5795 38.125 15.8764V11.0985C38.125 10.5462 37.6773 10.0985 37.125 10.0985H31.6133C31.061 10.0985 30.6133 10.5462 30.6133 11.0985V15.8764C30.6133 16.5874 30.4492 17.1187 30.1211 17.4702C29.793 17.8218 29.3711 17.9976 28.8555 17.9976C28.332 17.9976 27.9141 17.8218 27.6016 17.4702C27.2891 17.1108 27.1328 16.5795 27.1328 15.8764V2.34003C27.1328 1.63684 27.2852 1.10945 27.5898 0.757858C27.9023 0.406265 28.3242 0.230469 28.8555 0.230469C29.3789 0.230469 29.8008 0.406265 30.1211 0.757858C30.4492 1.10164 30.6133 1.62903 30.6133 2.34003Z" fill="#031C35"/>
<path d="M56.6641 3.20729H49.8242C49.2719 3.20729 48.8242 3.655 48.8242 4.20729V6.42641C48.8242 6.97869 49.2719 7.42641 49.8242 7.42641H56.043C56.5742 7.42641 56.9688 7.54751 57.2266 7.78972C57.4922 8.02411 57.625 8.33664 57.625 8.7273C57.625 9.11796 57.4961 9.4383 57.2383 9.68832C56.9805 9.93053 56.582 10.0516 56.043 10.0516H49.8242C49.2719 10.0516 48.8242 10.4993 48.8242 11.0516V13.9388C48.8242 14.4911 49.2719 14.9388 49.8242 14.9388H56.9336C57.4805 14.9388 57.8906 15.0677 58.1641 15.3255C58.4453 15.5756 58.5859 15.9115 58.5859 16.3334C58.5859 16.7397 58.4453 17.0718 58.1641 17.3296C57.8906 17.5796 57.4805 17.7046 56.9336 17.7046H47.4766C46.7188 17.7046 46.1719 17.5367 45.8359 17.2007C45.5078 16.8647 45.3438 16.3217 45.3438 15.5716V2.65646C45.3438 2.15642 45.418 1.75013 45.5664 1.4376C45.7148 1.11726 45.9453 0.886776 46.2578 0.746139C46.5781 0.597688 46.9844 0.523463 47.4766 0.523463H56.6641C57.2188 0.523463 57.6289 0.648474 57.8945 0.898495C58.168 1.1407 58.3047 1.46104 58.3047 1.85952C58.3047 2.2658 58.168 2.59396 57.8945 2.84398C57.6289 3.08619 57.2188 3.20729 56.6641 3.20729Z" fill="#031C35"/>
<path d="M64.7617 2.34003V13.845C64.7617 14.3973 65.2094 14.845 65.7617 14.845H71.8164C72.3789 14.845 72.8086 14.9817 73.1055 15.2552C73.4102 15.5287 73.5625 15.8725 73.5625 16.2865C73.5625 16.7085 73.4141 17.0522 73.1172 17.3179C72.8203 17.5757 72.3867 17.7046 71.8164 17.7046H63.4141C62.6562 17.7046 62.1094 17.5367 61.7734 17.2007C61.4453 16.8647 61.2812 16.3217 61.2812 15.5716V2.34003C61.2812 1.63684 61.4375 1.10945 61.75 0.757858C62.0703 0.406265 62.4883 0.230469 63.0039 0.230469C63.5273 0.230469 63.9492 0.406265 64.2695 0.757858C64.5977 1.10164 64.7617 1.62903 64.7617 2.34003Z" fill="#031C35"/>
<path d="M82.5273 11.0127H79.3398V15.8764C79.3398 16.5717 79.1758 17.0991 78.8477 17.4585C78.5195 17.8179 78.1055 17.9976 77.6055 17.9976C77.082 17.9976 76.6602 17.8218 76.3398 17.4702C76.0195 17.1108 75.8594 16.5874 75.8594 15.8998V2.65646C75.8594 1.89077 76.0352 1.34385 76.3867 1.01569C76.7383 0.68754 77.2969 0.523463 78.0625 0.523463H82.5273C83.8477 0.523463 84.8633 0.625034 85.5742 0.828177C86.2773 1.02351 86.8828 1.34775 87.3906 1.80092C87.9062 2.25408 88.2969 2.80882 88.5625 3.46512C88.8281 4.12143 88.9609 4.85978 88.9609 5.68016C88.9609 7.43031 88.4219 8.75855 87.3438 9.66488C86.2656 10.5634 84.6602 11.0127 82.5273 11.0127ZM81.6836 3.13697H80.3398C79.7876 3.13697 79.3398 3.58469 79.3398 4.13697V7.38743C79.3398 7.93971 79.7876 8.38743 80.3398 8.38743H81.6836C82.5039 8.38743 83.1875 8.30148 83.7344 8.12959C84.2891 7.9577 84.7109 7.67643 85 7.28577C85.2891 6.89511 85.4336 6.38335 85.4336 5.75048C85.4336 4.9926 85.2109 4.37536 84.7656 3.89876C84.2656 3.3909 83.2383 3.13697 81.6836 3.13697Z" fill="#031C35"/>
</svg>
