<svg width="66" height="36" viewBox="0 0 66 36" fill="none" xmlns="http://www.w3.org/2000/svg">
<g id="logoidea2 3" clip-path="url(#clip0_308_859)">
<path id="Vector" d="M33.1326 1.53V34.4613C33.1326 34.8676 33.2939 35.2572 33.5812 35.5444C33.8684 35.8317 34.258 35.9931 34.6643 35.9931H43.7436C44.1499 35.9931 44.5395 35.8317 44.8267 35.5444C45.114 35.2572 45.2754 34.8676 45.2754 34.4613V33.7484C45.2759 33.561 45.2418 33.3752 45.1748 33.2002C44.6786 31.9217 42.6768 25.2206 49.2652 24.8061C55.347 24.4175 55.6939 30.4889 54.3599 33.0753C54.1865 33.4118 53.9228 33.6946 53.8968 34.0728L53.8829 34.2861C53.8689 34.4945 53.8977 34.7035 53.9676 34.9003C54.0374 35.097 54.1468 35.2775 54.289 35.4304C54.4312 35.5833 54.6032 35.7055 54.7944 35.7894C54.9856 35.8734 55.1919 35.9173 55.4008 35.9185L64.2234 35.9809C64.4253 35.9825 64.6256 35.9441 64.8126 35.868C64.9996 35.7918 65.1697 35.6793 65.3131 35.5371C65.4565 35.3949 65.5703 35.2257 65.6479 35.0392C65.7256 34.8528 65.7655 34.6529 65.7655 34.4509V1.53C65.7655 1.32893 65.7259 1.12984 65.6489 0.944096C65.5719 0.758355 65.459 0.589613 65.3168 0.447517C65.1745 0.305421 65.0057 0.192755 64.8198 0.115968C64.634 0.0391807 64.4349 -0.000226985 64.2338 9.8344e-07H55.5395C55.3338 -0.000125858 55.1301 0.0412038 54.9407 0.121521C54.7512 0.201839 54.5799 0.319501 54.437 0.46748C54.294 0.615459 54.1823 0.790725 54.1086 0.982815C54.0349 1.1749 54.0006 1.37988 54.0078 1.58551L54.0269 2.0851C54.0317 2.24504 54.0621 2.40317 54.1171 2.55346C54.5959 3.85275 56.7625 11.1419 49.449 11.0135C42.3368 10.8869 44.5329 3.40693 45.2754 2.73908C45.6223 2.42857 45.7455 2.0452 45.5894 1.23684C45.5207 0.888415 45.3332 0.574636 45.0589 0.349067C44.7846 0.123498 44.4405 0.000122829 44.0854 9.8344e-07H34.6643C34.4632 -0.000226985 34.2641 0.0391807 34.0782 0.115968C33.8924 0.192755 33.7235 0.305421 33.5813 0.447517C33.439 0.589613 33.3262 0.758355 33.2492 0.944096C33.1722 1.12984 33.1326 1.32893 33.1326 1.53Z" fill="#126FE1"/>
<path id="Vector_2" d="M43.3116 17.9992C43.1069 25.0663 38.7702 23.3767 35.9947 22.3966C33.3511 21.4685 33.2886 23.7132 33.2886 23.9301V24.9171C33.2886 27.8548 32.1221 30.6723 30.0455 32.7502C27.9688 34.8282 25.1521 35.9965 22.2144 35.9983H12.2971C9.03571 35.9983 5.90787 34.7027 3.6017 32.3965C1.29552 30.0904 -7.09634e-05 26.9625 -7.09634e-05 23.7011V2.2638C-0.00121935 1.96605 0.0566064 1.67102 0.170073 1.39573C0.28354 1.12045 0.450402 0.870354 0.661025 0.659892C0.871648 0.44943 1.12186 0.282763 1.39724 0.169507C1.67261 0.0562507 1.96768 -0.00135236 2.26543 2.4098e-05H9.3048C9.60269 -0.001126 9.89787 0.0567575 10.1733 0.170333C10.4487 0.283908 10.6988 0.450927 10.9093 0.661734C11.1198 0.872542 11.2864 1.12297 11.3996 1.39854C11.5127 1.67411 11.5702 1.96937 11.5686 2.26726L11.5408 22.6828C11.5393 23.6442 11.9156 24.5678 12.5885 25.2544C13.2615 25.941 14.1773 26.3357 15.1386 26.3534L17.0814 26.3881C17.5796 26.3976 18.0747 26.3075 18.5377 26.1232C19.0007 25.9389 19.4222 25.6641 19.7776 25.3148C20.133 24.9655 20.4152 24.5489 20.6075 24.0892C20.7998 23.6295 20.8985 23.136 20.8977 22.6377L20.8786 2.27247C20.8773 1.97472 20.9349 1.67964 21.0481 1.40427C21.1614 1.1289 21.328 0.878684 21.5385 0.66806C21.749 0.457437 21.9991 0.290576 22.2743 0.177109C22.5496 0.0636417 22.8447 0.00581595 23.1424 0.00696434H31.0231C31.32 0.00696214 31.6139 0.0655774 31.8881 0.179449C32.1623 0.29332 32.4113 0.460208 32.6208 0.670533C32.8303 0.880857 32.9962 1.13048 33.109 1.40508C33.2219 1.67968 33.2793 1.97386 33.2782 2.27073V12.6182C33.273 13.0052 33.4061 13.3813 33.6535 13.6789C33.9009 13.9766 34.2464 14.1762 34.6278 14.2418C34.9774 14.2951 35.3347 14.2258 35.6391 14.0458C36.0043 13.8276 36.3969 13.659 36.8066 13.5445C38.7633 13.0345 43.4747 12.3874 43.3116 17.9992Z" fill="#FFD100"/>
</g>
<defs>
<clipPath id="clip0_308_859">
<rect width="65.7655" height="36" fill="white"/>
</clipPath>
</defs>
</svg>
