<svg width="50" height="27" viewBox="0 0 50 27" fill="none" xmlns="http://www.w3.org/2000/svg">
<g clip-path="url(#clip0_4426_64625)">
<path d="M25.1855 1.10521V24.8935C25.1855 25.187 25.3042 25.4684 25.5155 25.6759C25.7268 25.8834 26.0133 26 26.3121 26H32.9895C33.2883 26 33.5748 25.8834 33.7861 25.6759C33.9973 25.4684 34.116 25.187 34.116 24.8935V24.3785C34.1164 24.2432 34.0913 24.1089 34.042 23.9826C33.6771 23.059 32.2049 18.2184 37.0503 17.9189C41.5232 17.6382 41.7784 22.024 40.7973 23.8923C40.6697 24.1354 40.4758 24.3397 40.4567 24.6128L40.4464 24.767C40.4362 24.9175 40.4574 25.0685 40.5087 25.2106C40.5601 25.3528 40.6406 25.4831 40.7451 25.5935C40.8497 25.704 40.9762 25.7923 41.1168 25.8529C41.2574 25.9135 41.4092 25.9453 41.5628 25.9461L48.0514 25.9912C48.1999 25.9924 48.3472 25.9647 48.4847 25.9096C48.6223 25.8546 48.7474 25.7734 48.8528 25.6706C48.9583 25.5679 49.0419 25.4457 49.099 25.311C49.1561 25.1763 49.1856 25.0319 49.1855 24.886V1.10521C49.1855 0.959968 49.1564 0.81615 49.0998 0.681978C49.0431 0.547806 48.9601 0.425913 48.8555 0.323269C48.7509 0.220624 48.6267 0.139239 48.49 0.0837709C48.3534 0.0283026 48.2069 -0.000163965 48.059 7.10399e-07H41.6648C41.5135 -9.09153e-05 41.3637 0.029764 41.2244 0.0877823C41.0851 0.145801 40.9591 0.230795 40.8539 0.337689C40.7488 0.444584 40.6667 0.571189 40.6124 0.709948C40.5582 0.848706 40.533 0.996772 40.5383 1.14531L40.5523 1.5062C40.5559 1.62173 40.5783 1.73596 40.6187 1.84452C40.9708 2.78307 42.5642 8.04849 37.1855 7.95576C31.9548 7.86429 33.57 2.46104 34.116 1.9786C34.3712 1.7543 34.4618 1.47737 34.3469 0.893442C34.2964 0.641756 34.1585 0.415095 33.9568 0.252153C33.7551 0.0892102 33.502 8.87266e-05 33.2408 7.10399e-07H26.3121C26.1642 -0.000163965 26.0177 0.0283026 25.8811 0.0837709C25.7444 0.139239 25.6202 0.220624 25.5156 0.323269C25.4109 0.425913 25.328 0.547806 25.2713 0.681978C25.2147 0.81615 25.1855 0.959968 25.1855 1.10521Z" fill="#126FE1"/>
<path d="M33.4969 13C33.3409 18.1043 30.037 16.884 27.9225 16.1761C25.9084 15.5058 25.8609 17.127 25.8609 17.2836V17.9965C25.8609 20.1183 24.9721 22.1533 23.3901 23.6541C21.808 25.1549 19.6621 25.9987 17.424 26H9.86859C7.38389 26 5.00095 25.0643 3.244 23.3986C1.48705 21.733 0.500013 19.4738 0.500013 17.1183V1.63504C0.499138 1.41999 0.543192 1.2069 0.629637 1.00808C0.716081 0.80925 0.843203 0.628619 1.00367 0.476611C1.16413 0.324604 1.35475 0.204227 1.56454 0.122427C1.77434 0.0406274 1.99914 -0.00097675 2.22598 1.74049e-05H7.58889C7.81584 -0.00081326 8.04072 0.0409935 8.25053 0.123024C8.46034 0.205054 8.65093 0.325685 8.81129 0.477942C8.97164 0.630199 9.09859 0.811069 9.1848 1.0101C9.271 1.20914 9.31476 1.42239 9.31353 1.63755L9.29239 16.3828C9.29122 17.0772 9.57788 17.7442 10.0906 18.2401C10.6033 18.736 11.301 19.0211 12.0333 19.0339L13.5135 19.059C13.893 19.0658 14.2702 19.0008 14.6229 18.8677C14.9756 18.7346 15.2968 18.5361 15.5676 18.2838C15.8383 18.0315 16.0533 17.7306 16.1998 17.3986C16.3463 17.0665 16.4215 16.7101 16.4209 16.3502L16.4064 1.6413C16.4053 1.42625 16.4492 1.21313 16.5355 1.01424C16.6218 0.815355 16.7487 0.634635 16.9091 0.482511C17.0694 0.330387 17.26 0.20987 17.4697 0.127918C17.6794 0.0459657 17.9042 0.00420061 18.131 0.00503004H24.1349C24.3611 0.00502845 24.585 0.0473637 24.7939 0.129608C25.0028 0.211852 25.1924 0.332388 25.3521 0.484297C25.5117 0.636205 25.6381 0.816495 25.724 1.01483C25.81 1.21316 25.8538 1.42563 25.8529 1.64005V9.11354C25.849 9.39306 25.9503 9.66474 26.1388 9.87971C26.3273 10.0947 26.5905 10.2388 26.8811 10.2862C27.1475 10.3247 27.4197 10.2747 27.6516 10.1447C27.9298 9.98709 28.2289 9.86533 28.541 9.78259C30.0317 9.41424 33.6211 8.94691 33.4969 13Z" fill="#FFD100"/>
</g>
<defs>
<clipPath id="clip0_4426_64625">
<rect width="49" height="27" fill="white" transform="translate(0.5)"/>
</clipPath>
</defs>
</svg>
