<svg width="68" height="56" viewBox="0 0 68 56" fill="none" xmlns="http://www.w3.org/2000/svg">
<g clip-path="url(#clip0_4265_80913)">
<g clip-path="url(#clip1_4265_80913)">
<path d="M34.2583 1.56166V35.1744C34.2583 35.5891 34.4252 35.9867 34.7222 36.2799C35.0192 36.5731 35.422 36.7379 35.8421 36.7379H45.2299C45.65 36.7379 46.0528 36.5731 46.3498 36.2799C46.6468 35.9867 46.8137 35.5891 46.8137 35.1744V34.4467C46.8143 34.2555 46.779 34.0658 46.7097 33.8872C46.1967 32.5823 44.1268 25.7425 50.939 25.3194C57.2275 24.9228 57.5862 31.1198 56.2069 33.7597C56.0276 34.1032 55.7549 34.3918 55.728 34.7778L55.7137 34.9956C55.6992 35.2083 55.729 35.4216 55.8012 35.6225C55.8735 35.8233 55.9866 36.0074 56.1336 36.1635C56.2806 36.3196 56.4584 36.4443 56.6561 36.53C56.8538 36.6157 57.0672 36.6605 57.2831 36.6617L66.4055 36.7255C66.6143 36.7271 66.8214 36.6879 67.0147 36.6102C67.2081 36.5324 67.384 36.4177 67.5322 36.2725C67.6805 36.1273 67.7981 35.9546 67.8784 35.7643C67.9587 35.574 68 35.3699 68 35.1638V1.56166C68 1.35643 67.959 1.15322 67.8794 0.963632C67.7998 0.774048 67.6831 0.601813 67.536 0.456777C67.3889 0.311741 67.2143 0.196744 67.0222 0.118368C66.8301 0.0399914 66.6241 -0.000231682 66.4162 1.00379e-06H57.4266C57.2138 -0.000128463 57.0032 0.0420564 56.8074 0.124036C56.6115 0.206015 56.4344 0.326112 56.2866 0.477153C56.1387 0.628195 56.0233 0.807088 55.947 1.00315C55.8708 1.19922 55.8353 1.40843 55.8428 1.61832L55.8625 2.12825C55.8675 2.2915 55.899 2.4529 55.9558 2.6063C56.4508 3.93247 58.6911 11.3725 51.1292 11.2414C43.7753 11.1122 46.046 3.47743 46.8137 2.79576C47.1724 2.47882 47.2998 2.08752 47.1383 1.26243C47.0673 0.906798 46.8734 0.586527 46.5898 0.35629C46.3062 0.126053 45.9505 0.00012537 45.5833 1.00379e-06H35.8421C35.6342 -0.000231682 35.4283 0.0399914 35.2361 0.118368C35.044 0.196744 34.8694 0.311741 34.7223 0.456777C34.5752 0.601813 34.4585 0.774048 34.3789 0.963632C34.2993 1.15322 34.2583 1.35643 34.2583 1.56166Z" fill="#126FE1"/>
<path d="M44.7833 18.3677C44.5717 25.5811 40.0876 23.8565 37.2178 22.8561C34.4843 21.9089 34.4197 24.2 34.4197 24.4213V25.4288C34.4197 28.4273 33.2136 31.3031 31.0664 33.424C28.9192 35.5449 26.0067 36.7374 22.9692 36.7393H12.715C9.3428 36.7393 6.10869 35.4169 3.72416 33.063C1.33963 30.7091 1.73446e-05 27.5165 1.73446e-05 24.1876V2.30673C-0.00117006 2.00282 0.0586204 1.70169 0.175943 1.42071C0.293265 1.13973 0.465795 0.884458 0.683575 0.669641C0.901355 0.454824 1.16007 0.284708 1.4448 0.169108C1.72953 0.0535084 2.03463 -0.00528659 2.34249 -0.00388165H9.62103C9.92905 -0.00505555 10.2343 0.0540258 10.519 0.169951C10.8038 0.285876 11.0624 0.456351 11.2801 0.671521C11.4977 0.886691 11.67 1.1423 11.787 1.42357C11.904 1.70485 11.9634 2.00621 11.9617 2.31027L11.933 23.1483C11.9314 24.1296 12.3205 25.0722 13.0163 25.7731C13.7122 26.4739 14.6591 26.8767 15.653 26.8948L17.6619 26.9303C18.177 26.9399 18.6889 26.848 19.1676 26.6599C19.6463 26.4718 20.0822 26.1912 20.4497 25.8347C20.8172 25.4782 21.1089 25.0529 21.3078 24.5837C21.5066 24.1145 21.6087 23.6109 21.6078 23.1023L21.5881 2.31559C21.5867 2.01168 21.6462 1.71049 21.7634 1.42942C21.8805 1.14835 22.0528 0.89296 22.2704 0.677978C22.488 0.462996 22.7466 0.292682 23.0312 0.176867C23.3159 0.0610524 23.6209 0.00203005 23.9288 0.0032022H32.0772C32.3842 0.00319996 32.6881 0.0630282 32.9716 0.179256C33.2551 0.295483 33.5126 0.465825 33.7292 0.680502C33.9458 0.895179 34.1174 1.14996 34.2341 1.43025C34.3507 1.71054 34.4101 2.0108 34.409 2.31381V12.8754C34.4036 13.2704 34.5412 13.6543 34.797 13.9581C35.0528 14.2619 35.41 14.4656 35.8044 14.5326C36.1659 14.587 36.5353 14.5163 36.8501 14.3325C37.2277 14.1099 37.6336 13.9378 38.0572 13.8208C40.0804 13.3003 44.9519 12.6399 44.7833 18.3677Z" fill="#FFD100"/>
</g>
<path d="M1.42432 50.5528V44.4646C1.42432 43.9464 1.54107 43.5578 1.77459 43.2988C2.01395 43.0397 2.32627 42.9102 2.71158 42.9102C3.11439 42.9102 3.43256 43.0397 3.66607 43.2988C3.90543 43.5578 4.02511 43.9464 4.02511 44.4646V50.691C4.02511 51.3991 4.10392 51.9921 4.26154 52.4699C4.425 52.942 4.71106 53.3105 5.11971 53.5753C5.52837 53.8344 6.10048 53.9639 6.83606 53.9639C7.85186 53.9639 8.56992 53.6991 8.99025 53.1694C9.41058 52.634 9.62074 51.8251 9.62074 50.7428V44.4646C9.62074 43.9407 9.7375 43.5521 9.97102 43.2988C10.2045 43.0397 10.5169 42.9102 10.908 42.9102C11.2991 42.9102 11.6144 43.0397 11.8537 43.2988C12.0989 43.5521 12.2215 43.9407 12.2215 44.4646V50.5528C12.2215 51.543 12.1223 52.3692 11.9238 53.0313C11.7312 53.6933 11.3634 54.2748 10.8204 54.7757C10.3534 55.2017 9.81048 55.5126 9.19166 55.7083C8.57284 55.9041 7.84894 56.002 7.01996 56.002C6.03335 56.002 5.18393 55.8983 4.47171 55.6911C3.75948 55.4781 3.17861 55.1528 2.72909 54.7152C2.27957 54.2719 1.94973 53.7077 1.73956 53.0226C1.5294 52.3318 1.42432 51.5085 1.42432 50.5528Z" fill="#031C35"/>
<path d="M18.0098 52.2281H15.2427C14.8223 52.2281 14.5012 52.1331 14.2794 51.9432C14.0634 51.7474 13.9554 51.497 13.9554 51.1918C13.9554 50.881 14.0605 50.6305 14.2706 50.4405C14.4866 50.2448 14.8106 50.1469 15.2427 50.1469H18.0098C18.4418 50.1469 18.7629 50.2448 18.9731 50.4405C19.1891 50.6305 19.2971 50.881 19.2971 51.1918C19.2971 51.497 19.192 51.7474 18.9818 51.9432C18.7717 52.1331 18.4477 52.2281 18.0098 52.2281Z" fill="#031C35"/>
<path d="M23.623 44.4646V47.3444C23.623 47.7571 23.9575 48.0916 24.3702 48.0916H28.4889C28.9016 48.0916 29.2361 47.7571 29.2361 47.3444V44.4646C29.2361 43.9464 29.3529 43.5578 29.5864 43.2988C29.8258 43.0397 30.1381 42.9102 30.5234 42.9102C30.9145 42.9102 31.2298 43.0397 31.4691 43.2988C31.7143 43.5521 31.8369 43.9407 31.8369 44.4646V54.4389C31.8369 54.9628 31.7143 55.3543 31.4691 55.6134C31.2239 55.8724 30.9087 56.002 30.5234 56.002C30.1322 56.002 29.8199 55.8724 29.5864 55.6134C29.3529 55.3485 29.2361 54.957 29.2361 54.4389V50.9287C29.2361 50.516 28.9016 50.1815 28.4889 50.1815H24.3702C23.9575 50.1815 23.623 50.516 23.623 50.9287V54.4389C23.623 54.9628 23.5004 55.3543 23.2552 55.6134C23.01 55.8724 22.6947 56.002 22.3094 56.002C21.9183 56.002 21.606 55.8724 21.3725 55.6134C21.1389 55.3485 21.0222 54.957 21.0222 54.4389V44.4646C21.0222 43.9464 21.136 43.5578 21.3637 43.2988C21.5972 43.0397 21.9125 42.9102 22.3094 42.9102C22.7006 42.9102 23.0158 43.0397 23.2552 43.2988C23.5004 43.5521 23.623 43.9407 23.623 44.4646Z" fill="#031C35"/>
<path d="M43.0895 45.1036H37.9784C37.5657 45.1036 37.2312 45.4382 37.2312 45.8509V47.4653C37.2312 47.878 37.5657 48.2125 37.9784 48.2125H42.6254C43.0224 48.2125 43.3172 48.3017 43.5098 48.4802C43.7083 48.6529 43.8076 48.8832 43.8076 49.1711C43.8076 49.4589 43.7112 49.695 43.5186 49.8792C43.3259 50.0577 43.0282 50.1469 42.6254 50.1469H37.9784C37.5657 50.1469 37.2312 50.4815 37.2312 50.8942V53.0008C37.2312 53.4135 37.5657 53.748 37.9784 53.748H43.2909C43.6996 53.748 44.006 53.843 44.2104 54.033C44.4205 54.2172 44.5256 54.4648 44.5256 54.7757C44.5256 55.0751 44.4205 55.3197 44.2104 55.5097C44.006 55.694 43.6996 55.7861 43.2909 55.7861H36.2241C35.6578 55.7861 35.2492 55.6623 34.9981 55.4147C34.753 55.1672 34.6304 54.767 34.6304 54.2144V44.6978C34.6304 44.3293 34.6858 44.0299 34.7967 43.7996C34.9077 43.5636 35.0799 43.3938 35.3134 43.2901C35.5527 43.1807 35.8563 43.1261 36.2241 43.1261H43.0895C43.504 43.1261 43.8105 43.2182 44.009 43.4024C44.2133 43.5809 44.3155 43.8169 44.3155 44.1105C44.3155 44.4099 44.2133 44.6517 44.009 44.8359C43.8105 45.0144 43.504 45.1036 43.0895 45.1036Z" fill="#031C35"/>
<path d="M49.1405 44.4646V52.9317C49.1405 53.3444 49.4751 53.6789 49.8877 53.6789H54.4121C54.8325 53.6789 55.1535 53.7797 55.3754 53.9812C55.6031 54.1827 55.7169 54.436 55.7169 54.7411C55.7169 55.052 55.606 55.3053 55.3841 55.5011C55.1623 55.6911 54.8383 55.7861 54.4121 55.7861H48.1335C47.5672 55.7861 47.1585 55.6623 46.9075 55.4147C46.6623 55.1672 46.5397 54.767 46.5397 54.2144V44.4646C46.5397 43.9464 46.6565 43.5578 46.89 43.2988C47.1293 43.0397 47.4417 42.9102 47.827 42.9102C48.2181 42.9102 48.5333 43.0397 48.7727 43.2988C49.0179 43.5521 49.1405 43.9407 49.1405 44.4646Z" fill="#031C35"/>
<path d="M62.4159 50.8551H60.034V54.4389C60.034 54.9513 59.9114 55.3399 59.6662 55.6047C59.4211 55.8695 59.1116 56.002 58.738 56.002C58.3469 56.002 58.0316 55.8724 57.7923 55.6134C57.5529 55.3485 57.4332 54.9628 57.4332 54.4562V44.6978C57.4332 44.1336 57.5646 43.7306 57.8273 43.4888C58.09 43.247 58.5074 43.1261 59.0795 43.1261H62.4159C63.4025 43.1261 64.1614 43.2009 64.6927 43.3506C65.2181 43.4945 65.6705 43.7334 66.05 44.0673C66.4353 44.4013 66.7272 44.81 66.9257 45.2936C67.1242 45.7772 67.2234 46.3213 67.2234 46.9258C67.2234 48.2154 66.8206 49.1941 66.015 49.8619C65.2093 50.524 64.0097 50.8551 62.4159 50.8551ZM61.7854 45.0518H60.7813C60.3686 45.0518 60.034 45.3864 60.034 45.7991V48.1734C60.034 48.5861 60.3686 48.9206 60.7813 48.9206H61.7854C62.3984 48.9206 62.9092 48.8573 63.3179 48.7307C63.7324 48.604 64.0476 48.3967 64.2636 48.1089C64.4796 47.821 64.5876 47.4439 64.5876 46.9776C64.5876 46.4192 64.4212 45.9643 64.0885 45.6131C63.7148 45.2389 62.9472 45.0518 61.7854 45.0518Z" fill="#031C35"/>
</g>
<defs>
<clipPath id="clip0_4265_80913">
<rect width="68" height="56.001" fill="white"/>
</clipPath>
<clipPath id="clip1_4265_80913">
<rect width="68" height="36.7449" fill="white"/>
</clipPath>
</defs>
</svg>
