<svg width="68" height="38" viewBox="0 0 68 38" fill="none" xmlns="http://www.w3.org/2000/svg">
<g id="logoidea2 7" clip-path="url(#clip0_1112_18703)">
<path id="Vector" d="M34.3842 1.58938V35.7989C34.3842 36.2209 34.5517 36.6256 34.8498 36.924C35.1479 37.2224 35.5523 37.3901 35.9738 37.3901H45.3962C45.8178 37.3901 46.2221 37.2224 46.5202 36.924C46.8183 36.6256 46.9858 36.2209 46.9858 35.7989V35.0582C46.9864 34.8636 46.951 34.6706 46.8814 34.4888C46.3665 33.1607 44.2891 26.1995 51.1263 25.7688C57.4379 25.3652 57.7979 31.6723 56.4136 34.3591C56.2335 34.7087 55.9599 35.0024 55.9329 35.3952L55.9185 35.6169C55.904 35.8333 55.9339 36.0504 56.0064 36.2548C56.0789 36.4593 56.1924 36.6467 56.34 36.8055C56.4875 36.9644 56.666 37.0913 56.8644 37.1785C57.0628 37.2657 57.277 37.3113 57.4937 37.3126L66.6496 37.3774C66.8592 37.3791 67.067 37.3392 67.2611 37.2601C67.4552 37.181 67.6317 37.0642 67.7805 36.9164C67.9293 36.7687 68.0474 36.5929 68.1279 36.3992C68.2085 36.2056 68.25 35.9979 68.25 35.7881V1.58938C68.25 1.38051 68.2089 1.17369 68.129 0.980739C68.0491 0.787789 67.9319 0.612497 67.7843 0.464886C67.6367 0.317275 67.4614 0.200237 67.2686 0.120469C67.0757 0.0407014 66.8691 -0.000235795 66.6604 1.02161e-06H57.6377C57.4242 -0.000130743 57.2128 0.042803 57.0162 0.126238C56.8196 0.209673 56.6419 0.331901 56.4935 0.485624C56.3451 0.639347 56.2292 0.821415 56.1527 1.02096C56.0762 1.22051 56.0406 1.43344 56.0481 1.64705L56.0679 2.16603C56.0729 2.33218 56.1045 2.49645 56.1615 2.65257C56.6584 4.00228 58.9069 11.5744 51.3171 11.441C43.9362 11.3095 46.2153 3.53916 46.9858 2.84539C47.3458 2.52283 47.4737 2.12458 47.3116 1.28484C47.2403 0.922896 47.0458 0.596939 46.7611 0.362615C46.4765 0.128291 46.1194 0.000127596 45.7508 1.02161e-06H35.9738C35.7652 -0.000235795 35.5585 0.0407014 35.3657 0.120469C35.1728 0.200237 34.9976 0.317275 34.8499 0.464886C34.7023 0.612497 34.5852 0.787789 34.5053 0.980739C34.4254 1.17369 34.3842 1.38051 34.3842 1.58938Z" fill="#126FE1"/>
<path id="Vector_2" d="M44.9479 18.6978C44.7354 26.0392 40.2349 24.284 37.3545 23.2659C34.611 22.3018 34.5462 24.6336 34.5462 24.8589V25.8842C34.5462 28.9359 33.3356 31.8628 31.1805 34.0214C29.0254 36.1799 26.1023 37.3936 23.0536 37.3955H12.7617C9.37706 37.3955 6.13105 36.0496 3.73776 33.6539C1.34446 31.2582 -7.41444e-05 28.009 -7.41444e-05 24.621V2.35166C-0.00126591 2.04235 0.0587444 1.73587 0.176498 1.4499C0.294251 1.16393 0.467416 0.904135 0.685997 0.685504C0.904577 0.466874 1.16424 0.293738 1.45002 0.176086C1.73579 0.0584339 2.04202 -0.00140485 2.35101 2.50333e-05H9.65631C9.96546 -0.0011697 10.2718 0.0589605 10.5576 0.176944C10.8434 0.294927 11.103 0.468428 11.3215 0.687418C11.5399 0.906408 11.7128 1.16655 11.8302 1.45282C11.9477 1.73909 12.0073 2.04581 12.0056 2.35526L11.9768 23.5632C11.9752 24.5619 12.3657 25.5213 13.0641 26.2346C13.7625 26.9478 14.7129 27.3578 15.7105 27.3763L17.7267 27.4123C18.2437 27.4221 18.7575 27.3286 19.238 27.1371C19.7185 26.9457 20.1559 26.6602 20.5248 26.2974C20.8936 25.9345 21.1864 25.5017 21.386 25.0241C21.5856 24.5466 21.688 24.034 21.6872 23.5163L21.6674 2.36067C21.666 2.05136 21.7257 1.74483 21.8433 1.45877C21.9608 1.17272 22.1338 0.912788 22.3522 0.69399C22.5706 0.475191 22.8301 0.301854 23.1158 0.183983C23.4015 0.0661118 23.7077 0.00604169 24.0167 0.00723464H32.1951C32.5032 0.00723236 32.8082 0.0681227 33.0928 0.186413C33.3773 0.304704 33.6357 0.47807 33.8531 0.696558C34.0705 0.915046 34.2427 1.17436 34.3598 1.45962C34.4769 1.74488 34.5366 2.05047 34.5354 2.35887V13.1079C34.53 13.5099 34.6681 13.9007 34.9248 14.2099C35.1816 14.5191 35.5401 14.7264 35.9359 14.7946C36.2988 14.8499 36.6696 14.7779 36.9855 14.591C37.3645 14.3643 37.7719 14.1892 38.197 14.0702C40.2277 13.5404 45.1171 12.8682 44.9479 18.6978Z" fill="#FFD100"/>
</g>
<defs>
<clipPath id="clip0_1112_18703">
<rect width="68.25" height="37.3973" fill="white"/>
</clipPath>
</defs>
</svg>
