<svg width="68" height="60" viewBox="0 0 68 60" fill="none" xmlns="http://www.w3.org/2000/svg">
<g clip-path="url(#clip0_1194_18455)">
<g clip-path="url(#clip1_1194_18455)">
<path d="M34.3848 1.58938V35.7989C34.3848 36.2209 34.5522 36.6256 34.8503 36.924C35.1485 37.2224 35.5528 37.3901 35.9744 37.3901H45.3967C45.8183 37.3901 46.2226 37.2224 46.5207 36.924C46.8188 36.6256 46.9863 36.2209 46.9863 35.7989V35.0582C46.9869 34.8636 46.9515 34.6706 46.8819 34.4888C46.367 33.1607 44.2896 26.1995 51.1268 25.7688C57.4384 25.3652 57.7984 31.6723 56.4141 34.3591C56.2341 34.7087 55.9604 35.0024 55.9334 35.3952L55.919 35.6169C55.9045 35.8333 55.9344 36.0504 56.0069 36.2548C56.0794 36.4593 56.1929 36.6467 56.3405 36.8055C56.488 36.9644 56.6665 37.0913 56.8649 37.1785C57.0634 37.2657 57.2775 37.3113 57.4942 37.3126L66.6501 37.3774C66.8597 37.3791 67.0675 37.3392 67.2616 37.2601C67.4557 37.181 67.6322 37.0642 67.781 36.9164C67.9298 36.7687 68.0479 36.5929 68.1285 36.3992C68.209 36.2056 68.2505 35.9979 68.2505 35.7881V1.58938C68.2505 1.38051 68.2094 1.17369 68.1295 0.980739C68.0496 0.787789 67.9325 0.612497 67.7848 0.464886C67.6372 0.317275 67.462 0.200237 67.2691 0.120469C67.0763 0.0407014 66.8696 -0.000235795 66.6609 1.02161e-06H57.6382C57.4247 -0.000130743 57.2133 0.042803 57.0167 0.126238C56.8201 0.209673 56.6424 0.331901 56.494 0.485624C56.3456 0.639347 56.2297 0.821415 56.1532 1.02096C56.0767 1.22051 56.0411 1.43344 56.0486 1.64705L56.0684 2.16603C56.0734 2.33218 56.105 2.49645 56.162 2.65257C56.6589 4.00228 58.9074 11.5744 51.3176 11.441C43.9367 11.3095 46.2158 3.53916 46.9863 2.84539C47.3464 2.52283 47.4742 2.12458 47.3122 1.28484C47.2409 0.922896 47.0463 0.596939 46.7616 0.362615C46.477 0.128291 46.1199 0.000127596 45.7514 1.02161e-06H35.9744C35.7657 -0.000235795 35.559 0.0407014 35.3662 0.120469C35.1733 0.200237 34.9981 0.317275 34.8505 0.464886C34.7028 0.612497 34.5857 0.787789 34.5058 0.980739C34.4259 1.17369 34.3848 1.38051 34.3848 1.58938Z" fill="#126FE1"/>
<path d="M44.9479 18.6978C44.7355 26.0392 40.235 24.284 37.3546 23.2659C34.6111 22.3018 34.5463 24.6336 34.5463 24.8589V25.8842C34.5463 28.9359 33.3357 31.8628 31.1806 34.0214C29.0255 36.1799 26.1023 37.3936 23.0537 37.3955H12.7618C9.37715 37.3955 6.13115 36.0496 3.73785 33.6539C1.34455 31.2582 1.74083e-05 28.009 1.74083e-05 24.621V2.35166C-0.00117436 2.04235 0.0588359 1.73587 0.176589 1.4499C0.294343 1.16393 0.467508 0.904135 0.686088 0.685504C0.904668 0.466874 1.16434 0.293738 1.45011 0.176086C1.73589 0.0584339 2.04211 -0.00140485 2.35111 2.50333e-05H9.6564C9.96555 -0.0011697 10.2719 0.0589605 10.5577 0.176944C10.8435 0.294927 11.1031 0.468428 11.3215 0.687418C11.54 0.906408 11.7129 1.16655 11.8303 1.45282C11.9478 1.73909 12.0074 2.04581 12.0057 2.35526L11.9769 23.5632C11.9753 24.5619 12.3658 25.5213 13.0642 26.2346C13.7626 26.9478 14.713 27.3578 15.7105 27.3763L17.7268 27.4123C18.2438 27.4221 18.7576 27.3286 19.2381 27.1371C19.7186 26.9457 20.156 26.6602 20.5249 26.2974C20.8937 25.9345 21.1865 25.5017 21.3861 25.0241C21.5857 24.5466 21.6881 24.034 21.6873 23.5163L21.6675 2.36067C21.6661 2.05136 21.7258 1.74483 21.8434 1.45877C21.9609 1.17272 22.1339 0.912788 22.3523 0.69399C22.5707 0.475191 22.8302 0.301854 23.1159 0.183983C23.4016 0.0661118 23.7078 0.00604169 24.0168 0.00723464H32.1952C32.5033 0.00723236 32.8083 0.0681227 33.0928 0.186413C33.3774 0.304704 33.6358 0.47807 33.8532 0.696558C34.0706 0.915046 34.2428 1.17436 34.3599 1.45962C34.477 1.74488 34.5367 2.05047 34.5355 2.35887V13.1079C34.5301 13.5099 34.6682 13.9007 34.9249 14.2099C35.1817 14.5191 35.5402 14.7264 35.936 14.7946C36.2989 14.8499 36.6697 14.7779 36.9856 14.591C37.3645 14.3643 37.772 14.1892 38.1971 14.0702C40.2278 13.5404 45.1172 12.8682 44.9479 18.6978Z" fill="#FFD100"/>
</g>
<path d="M12.8952 42.983V50.111C12.8952 50.892 13.0987 51.4915 13.5057 51.9095C13.9127 52.3165 14.4847 52.52 15.2217 52.52C15.9697 52.52 16.5472 52.3165 16.9542 51.9095C17.3612 51.4915 17.5647 50.892 17.5647 50.111V42.983H19.8912V50.0945C19.8912 51.0735 19.6767 51.904 19.2477 52.586C18.8297 53.257 18.2632 53.763 17.5482 54.104C16.8442 54.445 16.0577 54.6155 15.1887 54.6155C14.3307 54.6155 13.5497 54.445 12.8457 54.104C12.1527 53.763 11.6027 53.257 11.1957 52.586C10.7887 51.904 10.5852 51.0735 10.5852 50.0945V42.983H12.8952ZM31.6766 42.983V54.5H29.3666V49.5995H24.4331V54.5H22.1231V42.983H24.4331V47.7185H29.3666V42.983H31.6766ZM42.4478 49.7315C42.4478 50.0615 42.4258 50.3585 42.3818 50.6225H35.6993C35.7543 51.2825 35.9853 51.7995 36.3923 52.1735C36.7993 52.5475 37.2998 52.7345 37.8938 52.7345C38.7518 52.7345 39.3623 52.366 39.7253 51.629H42.2168C41.9528 52.509 41.4468 53.235 40.6988 53.807C39.9508 54.368 39.0323 54.6485 37.9433 54.6485C37.0633 54.6485 36.2713 54.456 35.5673 54.071C34.8743 53.675 34.3298 53.1195 33.9338 52.4045C33.5488 51.6895 33.3563 50.8645 33.3563 49.9295C33.3563 48.9835 33.5488 48.153 33.9338 47.438C34.3188 46.723 34.8578 46.173 35.5508 45.788C36.2438 45.403 37.0413 45.2105 37.9433 45.2105C38.8123 45.2105 39.5878 45.3975 40.2698 45.7715C40.9628 46.1455 41.4963 46.679 41.8703 47.372C42.2553 48.054 42.4478 48.8405 42.4478 49.7315ZM40.0553 49.0715C40.0443 48.4775 39.8298 48.0045 39.4118 47.6525C38.9938 47.2895 38.4823 47.108 37.8773 47.108C37.3053 47.108 36.8213 47.284 36.4253 47.636C36.0403 47.977 35.8038 48.4555 35.7158 49.0715H40.0553ZM46.4439 42.29V54.5H44.1339V42.29H46.4439ZM51.0361 46.679C51.3331 46.261 51.7401 45.9145 52.2571 45.6395C52.7851 45.3535 53.3846 45.2105 54.0556 45.2105C54.8366 45.2105 55.5406 45.403 56.1676 45.788C56.8056 46.173 57.3061 46.723 57.6691 47.438C58.0431 48.142 58.2301 48.9615 58.2301 49.8965C58.2301 50.8315 58.0431 51.662 57.6691 52.388C57.3061 53.103 56.8056 53.6585 56.1676 54.0545C55.5406 54.4505 54.8366 54.6485 54.0556 54.6485C53.3846 54.6485 52.7906 54.511 52.2736 54.236C51.7676 53.961 51.3551 53.6145 51.0361 53.1965V58.856H48.7261V45.359H51.0361V46.679ZM55.8706 49.8965C55.8706 49.3465 55.7551 48.8735 55.5241 48.4775C55.3041 48.0705 55.0071 47.7625 54.6331 47.5535C54.2701 47.3445 53.8741 47.24 53.4451 47.24C53.0271 47.24 52.6311 47.35 52.2571 47.57C51.8941 47.779 51.5971 48.087 51.3661 48.494C51.1461 48.901 51.0361 49.3795 51.0361 49.9295C51.0361 50.4795 51.1461 50.958 51.3661 51.365C51.5971 51.772 51.8941 52.0855 52.2571 52.3055C52.6311 52.5145 53.0271 52.619 53.4451 52.619C53.8741 52.619 54.2701 52.509 54.6331 52.289C55.0071 52.069 55.3041 51.7555 55.5241 51.3485C55.7551 50.9415 55.8706 50.4575 55.8706 49.8965Z" fill="#031C35"/>
</g>
<defs>
<clipPath id="clip0_1194_18455">
<rect width="68" height="60" fill="white"/>
</clipPath>
<clipPath id="clip1_1194_18455">
<rect width="68.25" height="37.3973" fill="white"/>
</clipPath>
</defs>
</svg>
