<svg width="24" height="25" viewBox="0 0 24 25" fill="none" xmlns="http://www.w3.org/2000/svg">
<g id="Icon">
<path id="bell" d="M14.1641 20.251C14.2531 20.406 14.2521 20.598 14.1621 20.752C13.7061 21.533 12.898 22 12 22C11.102 22 10.294 21.533 9.83805 20.752C9.74805 20.598 9.74705 20.406 9.83605 20.251C9.92505 20.096 10.0901 20 10.2701 20H13.73C13.909 20 14.0741 20.096 14.1641 20.251ZM20.3911 18.188C20.3721 18.165 18.495 15.782 18.495 13V9.495C18.495 5.914 15.581 3 12 3C8.41905 3 5.50505 5.914 5.50505 9.495V13C5.50505 15.781 3.62905 18.164 3.60905 18.188C3.48905 18.338 3.46605 18.544 3.54905 18.717C3.63205 18.89 3.80705 19 3.99905 19H19.999C20.191 19 20.3661 18.89 20.4491 18.717C20.5341 18.543 20.5101 18.338 20.3911 18.188Z" fill="#03091C"/>
</g>
</svg>
