<svg width="83" height="33" viewBox="0 0 83 33" fill="none" xmlns="http://www.w3.org/2000/svg">
<g clip-path="url(#clip0_716_1732)">
<path d="M24.6855 1.60521V25.3935C24.6855 25.687 24.8042 25.9684 25.0155 26.1759C25.2268 26.3834 25.5133 26.5 25.8121 26.5H32.4895C32.7883 26.5 33.0748 26.3834 33.2861 26.1759C33.4973 25.9684 33.616 25.687 33.616 25.3935V24.8785C33.6164 24.7432 33.5913 24.6089 33.542 24.4826C33.1771 23.559 31.7049 18.7184 36.5503 18.4189C41.0232 18.1382 41.2784 22.524 40.2973 24.3923C40.1697 24.6354 39.9758 24.8397 39.9567 25.1128L39.9464 25.267C39.9362 25.4175 39.9574 25.5685 40.0087 25.7106C40.0601 25.8528 40.1406 25.9831 40.2451 26.0935C40.3497 26.204 40.4762 26.2923 40.6168 26.3529C40.7574 26.4135 40.9092 26.4453 41.0628 26.4461L47.5514 26.4912C47.6999 26.4924 47.8472 26.4647 47.9847 26.4096C48.1223 26.3546 48.2474 26.2734 48.3528 26.1706C48.4583 26.0679 48.5419 25.9457 48.599 25.811C48.6561 25.6763 48.6856 25.5319 48.6855 25.386V1.60521C48.6855 1.45997 48.6564 1.31615 48.5998 1.18198C48.5431 1.04781 48.4601 0.925913 48.3555 0.823269C48.2509 0.720624 48.1267 0.639239 47.99 0.583771C47.8534 0.528303 47.7069 0.499836 47.559 0.500001H41.1648C41.0135 0.499909 40.8637 0.529764 40.7244 0.587782C40.5851 0.645801 40.4591 0.730795 40.3539 0.837689C40.2488 0.944584 40.1667 1.07119 40.1124 1.20995C40.0582 1.34871 40.033 1.49677 40.0383 1.64531L40.0523 2.0062C40.0559 2.12173 40.0783 2.23596 40.1187 2.34452C40.4708 3.28307 42.0642 8.54849 36.6855 8.45576C31.4548 8.36429 33.07 2.96104 33.616 2.4786C33.8712 2.2543 33.9618 1.97737 33.8469 1.39344C33.7964 1.14176 33.6585 0.915095 33.4568 0.752153C33.2551 0.58921 33.002 0.500089 32.7408 0.500001H25.8121C25.6642 0.499836 25.5177 0.528303 25.3811 0.583771C25.2444 0.639239 25.1202 0.720624 25.0156 0.823269C24.9109 0.925913 24.828 1.04781 24.7713 1.18198C24.7147 1.31615 24.6855 1.45997 24.6855 1.60521Z" fill="#126FE1"/>
<path d="M32.9969 13.5C32.8409 18.6043 29.537 17.384 27.4225 16.6761C25.4084 16.0058 25.3609 17.627 25.3609 17.7836V18.4965C25.3609 20.6183 24.4721 22.6533 22.8901 24.1541C21.308 25.6549 19.1621 26.4987 16.924 26.5H9.36859C6.88389 26.5 4.50095 25.5643 2.744 23.8986C0.987054 22.233 1.27797e-05 19.9738 1.27797e-05 17.6183V2.13504C-0.000862111 1.91999 0.0431922 1.7069 0.129637 1.50808C0.216081 1.30925 0.343203 1.12862 0.503666 0.976611C0.664129 0.824604 0.854754 0.704227 1.06454 0.622427C1.27434 0.540627 1.49914 0.499023 1.72598 0.500017H7.08889C7.31584 0.499187 7.54072 0.540993 7.75053 0.623024C7.96034 0.705054 8.15093 0.825685 8.31129 0.977942C8.47164 1.1302 8.59859 1.31107 8.6848 1.5101C8.771 1.70914 8.81476 1.92239 8.81353 2.13755L8.79239 16.8828C8.79122 17.5772 9.07788 18.2442 9.59059 18.7401C10.1033 19.236 10.801 19.5211 11.5333 19.5339L13.0135 19.559C13.393 19.5658 13.7702 19.5008 14.1229 19.3677C14.4756 19.2346 14.7968 19.0361 15.0676 18.7838C15.3383 18.5315 15.5533 18.2306 15.6998 17.8986C15.8463 17.5665 15.9215 17.2101 15.9209 16.8502L15.9064 2.1413C15.9053 1.92625 15.9492 1.71313 16.0355 1.51424C16.1218 1.31535 16.2487 1.13464 16.4091 0.982511C16.5694 0.830387 16.76 0.70987 16.9697 0.627918C17.1794 0.545966 17.4042 0.504201 17.631 0.50503H23.6349C23.8611 0.505028 24.085 0.547364 24.2939 0.629608C24.5028 0.711852 24.6924 0.832388 24.8521 0.984297C25.0117 1.1362 25.1381 1.3165 25.224 1.51483C25.31 1.71316 25.3538 1.92563 25.3529 2.14005V9.61354C25.349 9.89306 25.4503 10.1647 25.6388 10.3797C25.8273 10.5947 26.0905 10.7388 26.3811 10.7862C26.6475 10.8247 26.9197 10.7747 27.1516 10.6447C27.4298 10.4871 27.7289 10.3653 28.041 10.2826C29.5317 9.91424 33.1211 9.44691 32.9969 13.5Z" fill="#FFD100"/>
</g>
<path d="M54.7364 20.644C54.1045 20.644 53.6181 21.2383 53.9271 21.7895C54.5137 22.8356 55.5795 23.416 57.028 23.416C58.1913 23.416 59.1434 23.1141 59.9012 22.5947C60.3661 22.2761 61.0099 22.244 61.4146 22.6362L62.1448 23.3438C62.5383 23.7251 62.5557 24.359 62.1256 24.6985C60.8417 25.7121 59.1277 26.32 56.9835 26.32C52.3575 26.32 50 23.416 50 19.5C50 15.452 52.6689 12.68 56.7611 12.68C60.8089 12.68 63.3888 15.364 63.3888 19.5C63.3888 19.6079 63.3888 19.7158 63.3797 19.8477C63.3473 20.3173 62.9195 20.644 62.4488 20.644H54.7364ZM56.7611 15.496C55.5618 15.496 54.6223 16.01 54.0459 16.9189C53.6984 17.4669 54.1852 18.092 54.8342 18.092H58.5951C59.2312 18.092 59.7209 17.4896 59.4072 16.9363C58.8762 15.9997 57.9763 15.496 56.7611 15.496Z" fill="#01112D"/>
<path d="M65.4959 26.1C64.9436 26.1 64.4959 25.6523 64.4959 25.1V9.5C64.4959 8.94772 64.9436 8.5 65.4959 8.5H67.0544C67.6067 8.5 68.0544 8.94772 68.0544 9.5V25.1C68.0544 25.6523 67.6067 26.1 67.0544 26.1H65.4959Z" fill="#01112D"/>
<path d="M77.3064 12.68C80.7759 12.68 83 15.364 83 19.5C83 23.592 80.687 26.32 77.3064 26.32C76.5577 26.32 75.8754 26.1971 75.2592 25.9689C74.4073 25.6534 73.1697 26.1951 73.1697 27.1036V29.5C73.1697 30.0523 72.722 30.5 72.1697 30.5H70.6112C70.0589 30.5 69.6112 30.0523 69.6112 29.5V13.9C69.6112 13.3477 70.0589 12.9 70.6112 12.9H72.3221C72.601 12.9 72.8342 13.1119 72.861 13.3895C72.908 13.8775 73.5633 14.0825 73.9497 13.7808C74.8613 13.0689 75.9914 12.68 77.3064 12.68ZM76.1944 23.416C78.196 23.416 79.397 21.92 79.397 19.5C79.397 17.08 78.196 15.584 76.1944 15.584C74.1928 15.584 73.0362 17.08 73.0362 19.5C73.0362 21.92 74.1928 23.416 76.1944 23.416Z" fill="#01112D"/>
<defs>
<clipPath id="clip0_716_1732">
<rect width="49" height="27" fill="white" transform="translate(0 0.5)"/>
</clipPath>
</defs>
</svg>
