<svg width="24" height="24" viewBox="0 0 24 24" fill="none" xmlns="http://www.w3.org/2000/svg">
<path d="M13.028 2.001C13.7578 1.9982 14.4875 2.00553 15.217 2.023L15.411 2.03C15.635 2.038 15.856 2.048 16.123 2.06C17.187 2.11 17.913 2.278 18.55 2.525C19.21 2.779 19.766 3.123 20.322 3.679C20.8304 4.17861 21.2239 4.78295 21.475 5.45C21.722 6.087 21.89 6.814 21.94 7.878C21.952 8.144 21.962 8.366 21.97 8.59L21.976 8.784C21.9938 9.51319 22.0015 10.2426 21.999 10.972L22 11.718V13.028C22.0025 13.7577 21.9948 14.4875 21.977 15.217L21.971 15.411C21.963 15.635 21.953 15.856 21.941 16.123C21.891 17.187 21.721 17.913 21.475 18.55C21.2247 19.2178 20.8311 19.8226 20.322 20.322C19.822 20.8303 19.2173 21.2238 18.55 21.475C17.913 21.722 17.187 21.89 16.123 21.94C15.856 21.952 15.635 21.962 15.411 21.97L15.217 21.976C14.4875 21.9938 13.7578 22.0014 13.028 21.999L12.282 22H10.973C10.2433 22.0025 9.51355 21.9948 8.78403 21.977L8.59003 21.971C8.35264 21.9624 8.1153 21.9524 7.87803 21.941C6.81403 21.891 6.08803 21.721 5.45003 21.475C4.78271 21.2243 4.17827 20.8308 3.67903 20.322C3.17007 19.8223 2.77625 19.2176 2.52503 18.55C2.27803 17.913 2.11003 17.187 2.06003 16.123C2.04889 15.8857 2.03889 15.6484 2.03003 15.411L2.02503 15.217C2.00659 14.4875 1.99826 13.7577 2.00003 13.028V10.972C1.99724 10.2426 2.00457 9.5132 2.02203 8.784L2.02903 8.59C2.03703 8.366 2.04703 8.144 2.05903 7.878C2.10903 6.813 2.27703 6.088 2.52403 5.45C2.7754 4.78262 3.16999 4.17844 3.68003 3.68C4.17892 3.17075 4.78299 2.77657 5.45003 2.525C6.08803 2.278 6.81303 2.11 7.87803 2.06L8.59003 2.03L8.78403 2.025C9.51321 2.00657 10.2426 1.99824 10.972 2L13.028 2.001ZM12 7.001C11.3375 6.99163 10.6798 7.11402 10.065 7.36107C9.45022 7.60811 8.89067 7.97488 8.41887 8.44005C7.94707 8.90523 7.57243 9.45954 7.31671 10.0708C7.061 10.682 6.92932 11.3379 6.92932 12.0005C6.92932 12.6631 7.061 13.319 7.31671 13.9302C7.57243 14.5415 7.94707 15.0958 8.41887 15.5609C8.89067 16.0261 9.45022 16.3929 10.065 16.6399C10.6798 16.887 11.3375 17.0094 12 17C13.3261 17 14.5979 16.4732 15.5356 15.5355C16.4732 14.5979 17 13.3261 17 12C17 10.6739 16.4732 9.40215 15.5356 8.46447C14.5979 7.52678 13.3261 7.001 12 7.001ZM12 9.001C12.3985 8.99366 12.7945 9.0658 13.1648 9.21321C13.5351 9.36062 13.8724 9.58034 14.1568 9.85954C14.4412 10.1387 14.6672 10.4718 14.8215 10.8393C14.9757 11.2069 15.0552 11.6014 15.0553 12C15.0554 12.3986 14.976 12.7932 14.8219 13.1607C14.6677 13.5283 14.4419 13.8614 14.1575 14.1407C13.8732 14.42 13.536 14.6399 13.1658 14.7874C12.7955 14.9349 12.3995 15.0072 12.001 15C11.2054 15 10.4423 14.6839 9.87971 14.1213C9.3171 13.5587 9.00103 12.7956 9.00103 12C9.00103 11.2044 9.3171 10.4413 9.87971 9.87868C10.4423 9.31607 11.2054 9 12.001 9L12 9.001ZM17.25 5.501C16.9274 5.51391 16.6223 5.65115 16.3986 5.88397C16.1749 6.11679 16.05 6.42713 16.05 6.75C16.05 7.07287 16.1749 7.38321 16.3986 7.61603C16.6223 7.84885 16.9274 7.98609 17.25 7.999C17.5815 7.999 17.8995 7.8673 18.1339 7.63288C18.3683 7.39846 18.5 7.08052 18.5 6.749C18.5 6.41748 18.3683 6.09954 18.1339 5.86512C17.8995 5.6307 17.5815 5.499 17.25 5.499V5.501Z" fill="#03091C"/>
</svg>
