<svg width="28" height="28" viewBox="0 0 28 28" fill="none" xmlns="http://www.w3.org/2000/svg">
<rect x="1" y="1" width="26" height="26" rx="13" fill="#126FE1"/>
<rect x="1" y="1" width="26" height="26" rx="13" stroke="#F8F9FB" stroke-width="2"/>
<path d="M17.3581 13.7167C17.4361 13.7947 17.4361 13.922 17.3581 14L11.3333 19.9987H8V16.6654L13.9987 10.6407C14.0767 10.562 14.2034 10.562 14.2821 10.6407L17.3581 13.7167ZM19.6066 9.87206L18.1266 8.392C17.604 7.86933 16.7561 7.86933 16.2334 8.392L14.9813 9.64403C14.9033 9.72203 14.9033 9.84867 14.9813 9.92667L18.0719 13.0173C18.1499 13.0953 18.2767 13.0953 18.3547 13.0173L19.6066 11.7654C20.1293 11.2427 20.1293 10.3947 19.6066 9.87206Z" fill="#FDFEFF"/>
</svg>
