<svg width="24" height="24" viewBox="0 0 24 24" fill="none" xmlns="http://www.w3.org/2000/svg">
<g id="Icon">
<path id="location-pin" d="M12.5 2C7.813 2 4 5.813 4 10.5C4 15.483 8.629 18.541 11.692 20.564L12.222 20.916C12.306 20.972 12.403 21 12.499 21C12.595 21 12.692 20.972 12.776 20.916L13.306 20.564C16.369 18.541 20.998 15.483 20.998 10.5C21 5.813 17.187 2 12.5 2ZM12.5 13C11.119 13 10 11.881 10 10.5C10 9.119 11.119 8 12.5 8C13.881 8 15 9.119 15 10.5C15 11.881 13.881 13 12.5 13Z" fill="#47474F"/>
</g>
</svg>
