<svg width="24" height="24" viewBox="0 0 24 24" fill="none" xmlns="http://www.w3.org/2000/svg">
<g id="Icon">
<path id="Vector" d="M14.584 3.08785C14.2475 2.74349 13.8456 2.46987 13.4018 2.28305C12.9581 2.09624 12.4815 2 12 2C11.5185 2 11.0419 2.09624 10.5982 2.28305C10.1544 2.46987 9.75249 2.74349 9.41599 3.08785L8.63841 3.88543L7.5258 3.87168C7.04419 3.86598 6.5663 3.95664 6.12024 4.13832C5.67417 4.32 5.26894 4.58904 4.92836 4.92961C4.58779 5.27019 4.31875 5.67542 4.13707 6.12149C3.95539 6.56755 3.86473 7.04544 3.87043 7.52705L3.88293 8.63966L3.08785 9.41724C2.74349 9.75374 2.46987 10.1557 2.28305 10.5994C2.09624 11.0432 2 11.5198 2 12.0013C2 12.4827 2.09624 12.9593 2.28305 13.4031C2.46987 13.8468 2.74349 14.2488 3.08785 14.5853L3.88418 15.3628L3.87043 16.4755C3.86473 16.9571 3.95539 17.435 4.13707 17.881C4.31875 18.3271 4.58779 18.7323 4.92836 19.0729C5.26894 19.4135 5.67417 19.6825 6.12024 19.8642C6.5663 20.0459 7.04419 20.1365 7.5258 20.1308L8.63841 20.1183L9.41599 20.9134C9.75249 21.2578 10.1544 21.5314 10.5982 21.7182C11.0419 21.905 11.5185 22.0013 12 22.0013C12.4815 22.0013 12.9581 21.905 13.4018 21.7182C13.8456 21.5314 14.2475 21.2578 14.584 20.9134L15.3616 20.1171L16.4742 20.1308C16.9558 20.1365 17.4337 20.0459 17.8798 19.8642C18.3258 19.6825 18.7311 19.4135 19.0716 19.0729C19.4122 18.7323 19.6812 18.3271 19.8629 17.881C20.0446 17.435 20.1353 16.9571 20.1296 16.4755L20.1171 15.3628L20.9121 14.5853C21.2565 14.2488 21.5301 13.8468 21.7169 13.4031C21.9038 12.9593 22 12.4827 22 12.0013C22 11.5198 21.9038 11.0432 21.7169 10.5994C21.5301 10.1557 21.2565 9.75374 20.9121 9.41724L20.1158 8.63966L20.1296 7.52705C20.1353 7.04544 20.0446 6.56755 19.8629 6.12149C19.6812 5.67542 19.4122 5.27019 19.0716 4.92961C18.7311 4.58904 18.3258 4.32 17.8798 4.13832C17.4337 3.95664 16.9558 3.86598 16.4742 3.87168L15.3616 3.88418L14.584 3.08785ZM14.9428 10.5686L11.1924 14.319C11.1344 14.3772 11.0654 14.4234 10.9894 14.4549C10.9135 14.4864 10.8321 14.5026 10.7499 14.5026C10.6677 14.5026 10.5862 14.4864 10.5103 14.4549C10.4344 14.4234 10.3654 14.3772 10.3073 14.319L8.43214 12.4438C8.37402 12.3857 8.32793 12.3167 8.29647 12.2408C8.26502 12.1648 8.24883 12.0834 8.24883 12.0013C8.24883 11.9191 8.26502 11.8377 8.29647 11.7617C8.32793 11.6858 8.37402 11.6168 8.43214 11.5587C8.49026 11.5006 8.55925 11.4545 8.63518 11.423C8.71111 11.3916 8.7925 11.3754 8.87469 11.3754C8.95687 11.3754 9.03826 11.3916 9.11419 11.423C9.19012 11.4545 9.25911 11.5006 9.31723 11.5587L10.7499 12.9926L14.0577 9.68352C14.1751 9.56615 14.3343 9.50021 14.5003 9.50021C14.6662 9.50021 14.8254 9.56615 14.9428 9.68352C15.0602 9.80089 15.1261 9.96008 15.1261 10.1261C15.1261 10.292 15.0602 10.4512 14.9428 10.5686Z" fill="#126FE1"/>
</g>
</svg>
