<svg width="200" height="120" viewBox="0 0 200 120" fill="none" xmlns="http://www.w3.org/2000/svg">
<g id="Image" clip-path="url(#clip0_4452_81067)">
<path id="Vector" d="M90.6621 104.199C90.4324 105.069 90.1984 107.624 90.5451 111.383C90.9784 116.261 94.8134 119.346 98.1284 117.322C99.5801 116.452 101.387 114.059 101.803 110.569" stroke="#1D1D1B" stroke-width="2.15693" stroke-linecap="round" stroke-linejoin="round"/>
<g id="Vector_2">
<path d="M97.7028 98.8125C97.7028 98.8125 95.6141 110.16 109.403 115.055L97.7028 98.8125Z" fill="white"/>
<path d="M97.7028 98.8125C97.7028 98.8125 95.6141 110.16 109.403 115.055" stroke="#1D1D1B" stroke-width="1.85868" stroke-linecap="round" stroke-linejoin="round"/>
</g>
<path id="Vector_3" d="M174.122 85.1378C174.122 85.1378 177.186 85.5381 182.789 82.4357C188.634 79.2028 187.902 68.573 181.515 63.9999C175.448 59.6488 166.816 50.5767 173.086 36.6574C180.787 19.5618 193.193 31.6144 196.92 35.8263C197.439 36.4087 197.838 37.0882 198.096 37.8259C198.353 38.5635 198.463 39.3449 198.419 40.1253C198.298 41.5133 197.591 42.8926 195.329 43.0492C193.714 43.103 192.126 42.618 190.814 41.6699L189.757 40.9607C185.423 38.0367 180.514 40.2427 179.859 45.5859C179.383 49.4715 181.255 54.4405 189.54 59.7402C199.507 66.1277 200.079 73.6247 198.436 79.2115C197.032 83.9978 193.917 87.4787 189.926 89.0581L176.809 94.2795" stroke="#1D1D1B" stroke-width="1.729" stroke-linecap="round" stroke-linejoin="round"/>
<path id="Vector_4" d="M84.8682 84.3713C84.0752 83.4532 84.3048 83.6925 83.8585 83.3618C83.4122 83.0311 83.0612 82.6656 82.6148 82.3871C78.9262 80.0445 75.5731 77.2075 72.6482 73.9546C72.3492 73.624 71.9982 73.1888 71.6429 72.7233C69.9856 70.5416 68.634 68.1421 67.6259 65.5918C56.4113 37.2833 85.6048 22.0586 93.1925 18.9171C93.7176 18.7004 94.1888 18.3701 94.5722 17.9497C94.9557 17.5293 95.2422 17.0291 95.4111 16.4848L99.8571 2.06951C99.9278 1.8415 100.044 1.63025 100.198 1.44853C100.352 1.2668 100.542 1.11838 100.755 1.01223C100.968 0.906081 101.2 0.844406 101.438 0.830937C101.675 0.817469 101.913 0.852478 102.136 0.93386C109.88 3.76645 140.833 16.8416 142.909 45.5765V45.6766C143.013 46.2727 143.996 52.708 140.274 63.3683C139.953 64.2864 139.992 64.9695 140.755 64.3734C140.909 64.2589 141.074 64.1612 141.249 64.0819C141.249 64.0819 150.609 63.042 156.307 66.5708" stroke="#1D1D1B" stroke-width="1.63823" stroke-linecap="round" stroke-linejoin="round"/>
<path id="Vector_5" d="M79.6588 26.2768C77.8128 23.0526 71.8589 18.745 69.2329 16.9262C69.0845 16.8241 68.914 16.7588 68.7356 16.7358C68.5571 16.7128 68.3758 16.7328 68.2065 16.794C68.0372 16.8551 67.8848 16.9559 67.7619 17.0878C67.639 17.2197 67.5491 17.3791 67.4996 17.5528C66.0609 22.6045 61.8662 39.5434 65.1942 54.4591" stroke="#1D1D1B" stroke-width="1.63823" stroke-linecap="round" stroke-linejoin="round"/>
<path id="Vector_6" d="M117.93 28.897C121.939 35.4977 117.857 43.3602 110.824 46.7671C101.724 51.1835 95.2628 46.989 92.1558 40.5276C89.0488 34.0662 90.6912 27.67 99.5745 23.3624C106.625 19.9554 114.208 22.7576 117.93 28.897Z" stroke="#1D1D1B" stroke-width="1.36591" stroke-linecap="round" stroke-linejoin="round"/>
<path id="Vector_7" d="M79.352 45.9059C81.8999 53.1723 78.7626 58.7112 75.452 60.3168C71.162 62.3923 64.2893 59.7816 65.3597 52.6849C66.4517 45.4707 66.8157 41.1065 69.7797 38.3262C71.526 36.6814 76.4443 37.6039 79.352 45.9059Z" stroke="#1D1D1B" stroke-width="1.36591" stroke-linecap="round" stroke-linejoin="round"/>
<path id="Vector_8" d="M108.134 33.4181C108.884 34.6713 108.199 36.1158 106.968 36.7119C105.374 37.4865 104.204 36.6641 103.614 35.4414C103.025 34.2188 103.285 33.0352 104.841 32.2825C105.431 32.0169 106.099 31.9864 106.711 32.1973C107.322 32.4082 107.831 32.8446 108.134 33.4181Z" fill="#1D1D1B" stroke="#1D1D1B" stroke-width="0.0518701" stroke-linecap="round" stroke-linejoin="round"/>
<path id="Vector_9" d="M77.0774 48.2176C77.8271 49.4708 77.1424 50.9154 75.9118 51.5115C74.3171 52.286 73.1471 51.4679 72.5578 50.2453C71.9685 49.0226 72.2285 47.8391 73.7841 47.082C74.3743 46.8175 75.0424 46.7875 75.6536 46.9983C76.2648 47.2091 76.7737 47.6449 77.0774 48.2176Z" fill="#1D1D1B" stroke="#1D1D1B" stroke-width="0.0518701" stroke-linecap="round" stroke-linejoin="round"/>
<path id="Vector_10" d="M86.5313 41.9331C86.7826 42.6859 86.1326 43.3342 85.578 43.5996C85.0233 43.865 84.0873 43.8694 83.6583 43.2428C83.2726 42.6859 83.5846 41.994 84.577 41.5023C85.3656 41.1325 86.319 41.2848 86.5313 41.9331Z" fill="#1D1D1B" stroke="#1D1D1B" stroke-width="0.0302575" stroke-linecap="round" stroke-linejoin="round"/>
<path id="Vector_11" d="M85.5654 23.4961C85.5654 23.4961 84.586 26.5854 85.3877 27.6036" stroke="#1D1D1B" stroke-width="0.972564" stroke-linecap="round" stroke-linejoin="round"/>
<path id="Vector_12" d="M83.4126 24.1367C83.4126 24.1367 82.4333 27.226 83.2306 28.2442" stroke="#1D1D1B" stroke-width="0.972564" stroke-linecap="round" stroke-linejoin="round"/>
<path id="Vector_13" d="M85.9258 44.4163C85.9258 44.4163 86.3591 44.0769 88.6341 44.103C90.9091 44.1291 95.0344 48.5237 91.2731 50.5731" stroke="#1D1D1B" stroke-width="1.09359" stroke-linecap="round" stroke-linejoin="round"/>
<path id="Vector_14" d="M85.4611 44.6328C85.4611 44.6328 84.5945 44.846 83.7061 46.9346C83.1688 48.2399 83.5025 54.5055 87.1988 52.591" stroke="#1D1D1B" stroke-width="1.09359" stroke-linecap="round" stroke-linejoin="round"/>
<path id="Vector_15" d="M85.4434 52.8136C85.4434 52.8136 86.4227 46.1476 92.3767 49.572C91.643 50.7137 90.6027 51.6239 89.3759 52.1975C88.1492 52.7711 86.7858 52.9846 85.4434 52.8136Z" fill="#1D1D1B" stroke="#1D1D1B" stroke-width="1.09359" stroke-linecap="round" stroke-linejoin="round"/>
<path id="Vector_16" d="M61.7897 34.5117C61.7897 34.5117 60.2947 40.4336 60.8407 42.5135C61.651 45.5941 61.7897 34.5117 61.7897 34.5117Z" fill="#1D1D1B" stroke="#1D1D1B" stroke-width="0.194513" stroke-linecap="round" stroke-linejoin="round"/>
<path id="Vector_17" d="M70.4301 76.1125C70.4907 76.317 70.1137 76.4693 67.1584 77.444C65.3254 78.0488 64.8054 77.9052 64.7491 77.7007C64.6927 77.4962 65.1001 77.2656 66.9504 76.7043C70.1961 75.6948 70.3737 75.908 70.4301 76.1125Z" fill="#1D1D1B" stroke="#1D1D1B" stroke-width="0.20748" stroke-linecap="round" stroke-linejoin="round"/>
<path id="Vector_18" d="M71.5726 78.4846C71.6983 78.6543 71.3949 78.9197 68.9509 80.8603C67.4386 82.0612 66.9013 82.1047 66.7843 81.9307C66.6673 81.7566 66.9706 81.4085 68.5176 80.2337C71.2086 78.1756 71.4469 78.3105 71.5726 78.4846Z" fill="#1D1D1B" stroke="#1D1D1B" stroke-width="0.20748" stroke-linecap="round" stroke-linejoin="round"/>
<path id="Vector_19" d="M72.4491 79.3297C72.6094 79.4689 72.3668 79.7996 70.3778 82.1971C69.1385 83.6851 68.6228 83.8374 68.4668 83.6938C68.3108 83.5503 68.5405 83.15 69.8101 81.6793C72.0331 79.1121 72.2931 79.1991 72.4491 79.3297Z" fill="#1D1D1B" stroke="#1D1D1B" stroke-width="0.20748" stroke-linecap="round" stroke-linejoin="round"/>
<path id="Vector_20" d="M74.6024 80.018C74.7454 80.0919 74.7064 80.2442 74.2644 81.3668C73.9914 82.0586 73.7227 82.1239 73.5797 82.0543C73.4367 81.9847 73.4411 81.7889 73.7401 81.1057C74.2687 79.9005 74.4551 79.9483 74.6024 80.018Z" fill="#1D1D1B" stroke="#1D1D1B" stroke-width="0.112385" stroke-linecap="round" stroke-linejoin="round"/>
<path id="Vector_21" d="M75.3441 80.2334C75.5001 80.2682 75.5001 80.4248 75.3441 81.6214C75.2444 82.3611 74.9974 82.4916 74.8414 82.4568C74.6854 82.422 74.6464 82.2349 74.7721 81.4952C74.9931 80.1942 75.1838 80.1942 75.3441 80.2334Z" fill="#1D1D1B" stroke="#1D1D1B" stroke-width="0.112385" stroke-linecap="round" stroke-linejoin="round"/>
<path id="Vector_22" d="M145.422 41.9978C145.548 42.1719 145.899 41.9717 148.499 40.2574C150.111 39.1913 150.323 38.6953 150.197 38.5169C150.072 38.3385 149.647 38.5169 148.031 39.6265C145.244 41.554 145.301 41.8238 145.422 41.9978Z" fill="#1D1D1B" stroke="#1D1D1B" stroke-width="0.20748" stroke-linecap="round" stroke-linejoin="round"/>
<path id="Vector_23" d="M146.558 44.3654C146.614 44.5699 147.013 44.5046 150.025 43.7866C151.901 43.3515 152.269 42.9425 152.213 42.738C152.157 42.5335 151.693 42.5596 149.817 43.0426C146.545 43.8867 146.493 44.1609 146.558 44.3654Z" fill="#1D1D1B" stroke="#1D1D1B" stroke-width="0.20748" stroke-linecap="round" stroke-linejoin="round"/>
<path id="Vector_24" d="M146.682 45.597C146.682 45.8059 147.116 45.8233 150.21 45.7493C152.138 45.7014 152.58 45.3925 152.567 45.1793C152.554 44.9661 152.095 44.8965 150.158 44.9791C146.765 45.1227 146.669 45.3882 146.682 45.597Z" fill="#1D1D1B" stroke="#1D1D1B" stroke-width="0.20748" stroke-linecap="round" stroke-linejoin="round"/>
<path id="Vector_25" d="M145.877 47.7148C145.846 47.8758 145.989 47.9411 147.138 48.2892C147.848 48.5067 148.069 48.337 148.104 48.176C148.139 48.015 147.983 47.9063 147.237 47.7148C145.998 47.3798 145.911 47.5669 145.877 47.7148Z" fill="#1D1D1B" stroke="#1D1D1B" stroke-width="0.112385" stroke-linecap="round" stroke-linejoin="round"/>
<path id="Vector_26" d="M145.582 48.4336C145.513 48.5816 145.638 48.6773 146.665 49.3038C147.307 49.6867 147.558 49.5736 147.632 49.43C147.705 49.2864 147.58 49.1385 146.925 48.7774C145.777 48.129 145.656 48.2813 145.582 48.4336Z" fill="#1D1D1B" stroke="#1D1D1B" stroke-width="0.112385" stroke-linecap="round" stroke-linejoin="round"/>
<path id="Vector_27" d="M92.7891 16.5559C92.8541 16.4079 92.7241 16.3166 91.6668 15.7466C91.0125 15.3898 90.7655 15.516 90.7005 15.6639C90.6355 15.8118 90.7655 15.9511 91.4328 16.2818C92.6071 16.8648 92.7241 16.7082 92.7891 16.5559Z" fill="#1D1D1B" stroke="#1D1D1B" stroke-width="0.112385" stroke-linecap="round" stroke-linejoin="round"/>
<path id="Vector_28" d="M93.3484 15.9017C93.5044 15.8625 93.4958 15.7016 93.2834 14.5137C93.1534 13.7784 92.9065 13.6435 92.7505 13.7044C92.5945 13.7653 92.5641 13.9306 92.7201 14.666C92.9975 15.9496 93.1924 15.9409 93.3484 15.9017Z" fill="#1D1D1B" stroke="#1D1D1B" stroke-width="0.112385" stroke-linecap="round" stroke-linejoin="round"/>
<path id="Vector_29" d="M180.335 113.796C180.361 113.984 180.01 114.071 177.267 114.558C175.564 114.858 175.122 114.667 175.1 114.475C175.079 114.284 175.464 114.145 177.18 113.875C180.179 113.396 180.292 113.605 180.335 113.796Z" fill="#1D1D1B" stroke="#1D1D1B" stroke-width="0.185868" stroke-linecap="round" stroke-linejoin="round"/>
<path id="Vector_30" d="M180.63 115.693C180.63 115.884 180.275 115.936 177.501 116.128C175.768 116.263 175.356 116.023 175.335 115.832C175.313 115.64 175.733 115.54 177.462 115.436C180.513 115.279 180.621 115.501 180.63 115.693Z" fill="#1D1D1B" stroke="#1D1D1B" stroke-width="0.185868" stroke-linecap="round" stroke-linejoin="round"/>
<path id="Vector_31" d="M106.124 7.72727C106.263 7.57063 107.97 8.56704 109.205 9.5852C109.712 10.0203 110.678 11.4997 110.535 11.6607C110.392 11.8217 109.916 11.9 108.507 10.3553C107.528 9.27191 105.985 7.88826 106.124 7.72727Z" fill="#1D1D1B" stroke="#1D1D1B" stroke-width="0.20748" stroke-linecap="round" stroke-linejoin="round"/>
<path id="Vector_32" d="M109.78 8.52777C109.91 8.37983 111.405 9.07167 112.272 10.0333C112.727 10.538 113.472 11.5605 113.342 11.7084C113.212 11.8564 112.909 11.8346 111.674 10.6772C110.439 9.51983 109.659 8.68006 109.78 8.52777Z" fill="#1D1D1B" stroke="#1D1D1B" stroke-width="0.181545" stroke-linecap="round" stroke-linejoin="round"/>
<g id="Vector_33">
<path d="M85.4434 43.668C85.477 43.7895 85.5311 43.9042 85.6033 44.0074L85.4434 43.668Z" fill="white"/>
<path d="M85.4434 43.668C85.477 43.7895 85.5311 43.9042 85.6033 44.0074" stroke="#1D1D1B" stroke-width="1.29675" stroke-linecap="round" stroke-linejoin="round"/>
</g>
<path id="Vector_34" d="M43.4766 103.846C56.436 103.846 66.9416 102.105 66.9416 99.9563C66.9416 97.808 56.436 96.0664 43.4766 96.0664C30.5173 96.0664 20.0117 97.808 20.0117 99.9563C20.0117 102.105 30.5173 103.846 43.4766 103.846Z" fill="white" stroke="#1D1D1B" stroke-width="1.29675" stroke-linecap="round" stroke-linejoin="round"/>
<g id="Vector_35">
<path d="M73.2068 112.395C73.3641 112.545 73.4573 112.751 73.4668 112.969C73.4668 115.358 60.0335 117.294 43.4629 117.294C26.8923 117.294 13.459 115.366 13.459 112.978" fill="white"/>
<path d="M73.2068 112.395C73.3641 112.545 73.4573 112.751 73.4668 112.969C73.4668 115.358 60.0335 117.294 43.4629 117.294C26.8923 117.294 13.459 115.366 13.459 112.978" stroke="#1D1D1B" stroke-width="1.29675" stroke-linecap="round" stroke-linejoin="round"/>
</g>
<g id="Vector_36">
<path d="M20.0098 99.9531C12.8555 112.828 13.4578 112.976 13.4578 112.976L20.0098 99.9531Z" fill="white"/>
<path d="M20.0098 99.9531C12.8555 112.828 13.4578 112.976 13.4578 112.976" stroke="#1D1D1B" stroke-width="1.29675" stroke-linecap="round" stroke-linejoin="round"/>
</g>
<path id="Vector_37" d="M88.8594 82.2969C84.1491 84.69 72.0678 91.9608 66.1051 103.731C65.1171 105.68 65.3641 104.975 65.0608 105.715C64.5581 106.916 64.2851 107.586 65.1865 109.592C65.358 109.921 65.5658 110.231 65.8061 110.514C67.7735 112.433 69.3291 113.516 72.7871 112.485C72.7871 112.485 88.6341 107.064 98.2844 98.1263" stroke="#1D1D1B" stroke-width="1.79816" stroke-linecap="round" stroke-linejoin="round"/>
<path id="Vector_38" d="M7.71781 113.153C7.77414 113.884 7.54448 114.519 8.87914 114.393C10.7078 114.219 10.1791 113.84 10.2441 113.162C10.3091 112.483 9.75013 112.23 8.8878 112.23C8.20314 112.23 7.67014 112.492 7.71781 113.153Z" fill="#1D1D1B" stroke="#1D1D1B" stroke-width="0.025935" stroke-linecap="round" stroke-linejoin="round"/>
<path id="Vector_39" d="M3.36332 111.045C3.39365 111.48 3.25499 111.867 4.05665 111.789C5.15298 111.684 4.84964 111.458 4.87998 111.049C4.91031 110.64 4.58098 110.492 4.06098 110.492C3.65365 110.492 3.33298 110.658 3.36332 111.045Z" fill="#1D1D1B" stroke="#1D1D1B" stroke-width="0.01729" stroke-linecap="round" stroke-linejoin="round"/>
<path id="Vector_40" d="M0.0257954 114.271C0.0691286 114.854 -0.112871 115.363 0.953125 115.259C2.41779 115.124 2.01045 114.824 2.04945 114.275C2.08845 113.727 1.65079 113.531 0.961794 113.531C0.398462 113.531 -0.0262044 113.74 0.0257954 114.271Z" fill="#1D1D1B" stroke="#1D1D1B" stroke-width="0.0216125" stroke-linecap="round" stroke-linejoin="round"/>
<path id="Vector_41" d="M155.06 65.9961C166.708 70.4343 188.86 93.665 169.087 118.162C168.862 118.442 168.576 118.669 168.253 118.825C167.929 118.98 167.574 119.062 167.215 119.063L117.408 118.828C115.595 118.836 113.813 118.361 112.244 117.451C110.674 116.54 109.374 115.227 108.477 113.645C105.409 108.08 107.55 99.0169 142.949 86.5639" stroke="#1D1D1B" stroke-width="1.85868" stroke-linecap="round" stroke-linejoin="round"/>
<path id="Vector_42" d="M78.8926 114.676C78.8406 115.407 79.0702 116.043 77.7356 115.916C75.9069 115.742 76.4356 115.364 76.3663 114.685C76.2969 114.006 76.8646 113.754 77.7269 113.754C78.3899 113.754 78.9229 114.015 78.8926 114.676Z" fill="#1D1D1B" stroke="#1D1D1B" stroke-width="0.025935" stroke-linecap="round" stroke-linejoin="round"/>
<path id="Vector_43" d="M83.2259 112.564C83.1912 112.999 83.3299 113.387 82.5282 113.308C81.4319 113.204 81.7396 112.978 81.7092 112.569C81.6789 112.16 82.0082 112.012 82.5239 112.012C82.9399 112.012 83.2606 112.168 83.2259 112.564Z" fill="#1D1D1B" stroke="#1D1D1B" stroke-width="0.01729" stroke-linecap="round" stroke-linejoin="round"/>
<path id="Vector_44" d="M86.5747 115.794C86.5313 116.377 86.7177 116.887 85.6473 116.782C84.187 116.647 84.5943 116.347 84.5553 115.799C84.5163 115.25 84.954 115.055 85.643 115.055C86.189 115.055 86.618 115.264 86.5747 115.794Z" fill="#1D1D1B" stroke="#1D1D1B" stroke-width="0.0216125" stroke-linecap="round" stroke-linejoin="round"/>
</g>
<defs>
<clipPath id="clip0_4452_81067">
<rect width="200" height="120" fill="white"/>
</clipPath>
</defs>
</svg>
