<svg width="13" height="14" viewBox="0 0 13 14" fill="none" xmlns="http://www.w3.org/2000/svg">
<g id="Icon">
<path id="times" d="M7.20706 7.50006L9.85352 4.85358C10.049 4.65858 10.049 4.34162 9.85352 4.14662C9.65802 3.95113 9.34203 3.95113 9.14653 4.14662L6.50007 6.79307L3.85361 4.14662C3.65812 3.95113 3.34212 3.95113 3.14662 4.14662C2.95113 4.34162 2.95113 4.65858 3.14662 4.85358L5.79308 7.50006L3.14662 10.1465C2.95113 10.3415 2.95113 10.6585 3.14662 10.8535C3.24412 10.951 3.37212 11 3.50012 11C3.62812 11 3.75611 10.951 3.85361 10.8535L6.50007 8.20704L9.14653 10.8535C9.24403 10.951 9.37203 11 9.50002 11C9.62802 11 9.75602 10.951 9.85352 10.8535C10.049 10.6585 10.049 10.3415 9.85352 10.1465L7.20706 7.50006Z" fill="#126FE1"/>
</g>
</svg>
