<svg width="24" height="25" viewBox="0 0 24 25" fill="none" xmlns="http://www.w3.org/2000/svg">
<g id="Icon">
<path id="question-circle" d="M12 2.5C6.477 2.5 2 6.977 2 12.5C2 18.023 6.477 22.5 12 22.5C17.523 22.5 22 18.023 22 12.5C22 6.977 17.523 2.5 12 2.5ZM12.02 18C11.468 18 11.0149 17.552 11.0149 17C11.0149 16.448 11.458 16 12.01 16H12.02C12.573 16 13.02 16.448 13.02 17C13.02 17.552 12.572 18 12.02 18ZM13.603 13.0281C12.872 13.5181 12.7359 13.791 12.7109 13.863C12.6059 14.176 12.314 14.374 12 14.374C11.921 14.374 11.841 14.362 11.762 14.335C11.369 14.203 11.1581 13.778 11.2891 13.385C11.4701 12.845 11.9391 12.336 12.7671 11.781C13.7881 11.097 13.657 10.3471 13.614 10.1011C13.501 9.44707 12.95 8.88988 12.303 8.77588C11.811 8.68588 11.3301 8.81488 10.9541 9.12988C10.5761 9.44688 10.3589 9.91391 10.3589 10.4099C10.3589 10.8239 10.0229 11.1599 9.60889 11.1599C9.19489 11.1599 8.85889 10.8239 8.85889 10.4099C8.85889 9.46891 9.27099 8.58396 9.98999 7.98096C10.702 7.38496 11.639 7.13605 12.564 7.30005C13.831 7.52405 14.8701 8.57097 15.0911 9.84497C15.3111 11.107 14.782 12.2381 13.603 13.0281Z" fill="#47474F"/>
</g>
</svg>
