<svg width="24" height="25" viewBox="0 0 24 25" fill="none" xmlns="http://www.w3.org/2000/svg">
<path d="M20.83 15.1C19.9 14.56 19.33 13.57 19.33 12.5C19.33 11.43 19.9 10.44 20.83 9.89999C20.99 9.79999 21.05 9.6 20.95 9.44L19.28 6.56C19.22 6.45 19.11 6.39001 19 6.39001C18.94 6.39001 18.88 6.41 18.83 6.44C18.37 6.7 17.85 6.84 17.33 6.84C16.8 6.84 16.28 6.69999 15.81 6.42999C14.88 5.88999 14.31 4.91 14.31 3.84C14.31 3.65 14.16 3.5 13.98 3.5H10.02C9.83999 3.5 9.69 3.65 9.69 3.84C9.69 4.91 9.12 5.88999 8.19 6.42999C7.72 6.69999 7.20001 6.84 6.67001 6.84C6.15001 6.84 5.63001 6.7 5.17001 6.44C5.01001 6.34 4.81 6.4 4.72 6.56L3.04001 9.44C3.01001 9.49 3 9.55001 3 9.60001C3 9.72001 3.06001 9.82999 3.17001 9.89999C4.10001 10.44 4.67001 11.42 4.67001 12.49C4.67001 13.57 4.09999 14.56 3.17999 15.1H3.17001C3.01001 15.2 2.94999 15.4 3.04999 15.56L4.72 18.44C4.78 18.55 4.89 18.61 5 18.61C5.06 18.61 5.12001 18.59 5.17001 18.56C6.11001 18.03 7.26 18.03 8.19 18.57C9.11 19.11 9.67999 20.09 9.67999 21.16C9.67999 21.35 9.82999 21.5 10.02 21.5H13.98C14.16 21.5 14.31 21.35 14.31 21.16C14.31 20.09 14.88 19.11 15.81 18.57C16.28 18.3 16.8 18.16 17.33 18.16C17.85 18.16 18.37 18.3 18.83 18.56C18.99 18.66 19.19 18.6 19.28 18.44L20.96 15.56C20.99 15.51 21 15.45 21 15.4C21 15.28 20.94 15.17 20.83 15.1ZM12 15.5C10.34 15.5 9 14.16 9 12.5C9 10.84 10.34 9.5 12 9.5C13.66 9.5 15 10.84 15 12.5C15 14.16 13.66 15.5 12 15.5Z" fill="#47474F"/>
</svg>
