<svg width="24" height="25" viewBox="0 0 24 25" fill="none" xmlns="http://www.w3.org/2000/svg">
<g id="Icon">
<path id="log-out" d="M8 13.25H15V17.5V18.5C15 20.5 14 21.5 12 21.5H6C4 21.5 3 20.5 3 18.5V6.5C3 4.5 4 3.5 6 3.5H12C14 3.5 15 4.5 15 6.5V7.5V11.75H8C7.586 11.75 7.25 12.086 7.25 12.5C7.25 12.914 7.586 13.25 8 13.25ZM21.692 12.213C21.654 12.121 21.599 12.038 21.53 11.969L18.53 8.96899C18.237 8.67599 17.762 8.67599 17.469 8.96899C17.176 9.26199 17.176 9.737 17.469 10.03L19.189 11.75H15V13.25H19.189L17.469 14.97C17.176 15.263 17.176 15.738 17.469 16.031C17.615 16.177 17.807 16.251 17.999 16.251C18.191 16.251 18.383 16.178 18.529 16.031L21.529 13.031C21.598 12.962 21.653 12.879 21.691 12.787C21.768 12.603 21.768 12.397 21.692 12.213Z" fill="#B3261E"/>
</g>
</svg>
