<svg width="24" height="24" viewBox="0 0 24 24" fill="none" xmlns="http://www.w3.org/2000/svg">
<g id="Icon">
<path id="dislike" d="M13.7023 19.97L15.9873 13.046C15.9973 13.016 16.0022 12.984 16.0022 12.952V3.29999M13.7023 19.97L13.2332 19.7968C13.2323 19.7993 13.2314 19.8017 13.2304 19.8042M13.7023 19.97L13.2275 19.8133L13.2304 19.8042M13.7023 19.97C13.4623 20.62 12.8523 21 12.2223 21C11.9223 21 11.6123 20.91 11.3423 20.73C10.5023 20.18 10.0022 19.24 10.0022 18.24V15.5V15H9.50219H6.10229C3.09229 15 2.60219 12.99 3.25219 11.05L5.25219 5.04999C5.66219 3.82999 6.09229 3 8.10229 3H15.7013C15.8663 3 16.0012 3.13399 16.0022 3.29999M13.2304 19.8042L15.5022 12.9205M13.2304 19.8042C13.0653 20.242 12.6528 20.5 12.2223 20.5C12.0209 20.5 11.8074 20.4391 11.6196 20.3139L11.6162 20.3117C10.9192 19.8553 10.5022 19.0737 10.5022 18.24V15V14.5H10.0022H6.10229C4.70757 14.5 4.04015 14.042 3.74091 13.508C3.42124 12.9376 3.42307 12.1138 3.72629 11.2088L3.72653 11.2081L5.72614 5.20927L5.25222 5.05L5.72653 5.2081L5.72633 5.20872C5.93182 4.59734 6.10836 4.20554 6.40713 3.94323C6.69014 3.69474 7.16066 3.5 8.10229 3.5H15.5022M15.5022 12.9205V12.952C15.5022 12.9341 15.5048 12.913 15.5125 12.8893L15.5022 12.9205ZM15.5022 12.9205V3.5M15.5022 3.5H15.7013C15.5905 3.5 15.5029 3.41111 15.5022 3.303L15.7013 3.3018L16.0022 3.29999M15.5022 3.5V3.29999H15.7013H16.0022M20.5002 4.5V11.5C20.5002 12.0521 20.0529 12.5 19.5002 12.5H18.0002V3.5H19.5002C20.0529 3.5 20.5002 3.94793 20.5002 4.5Z" stroke="#47474F"/>
</g>
</svg>
