<svg width="24" height="24" viewBox="0 0 24 24" fill="none" xmlns="http://www.w3.org/2000/svg">
<g id="Icon">
<path id="like" d="M13.498 9V9.5H13.998H17.8979C19.2927 9.5 19.96 9.95803 20.2591 10.4919C20.5786 11.0622 20.5766 11.886 20.2729 12.7909L20.2726 12.7919L18.273 18.7907C18.2729 18.7909 18.2729 18.7911 18.2728 18.7913C18.0673 19.4027 17.8908 19.7945 17.5921 20.0568C17.3091 20.3053 16.8386 20.5 15.897 20.5H8.49805V11.0795L10.7698 4.19579C10.935 3.75801 11.3474 3.5 11.778 3.5C11.9794 3.5 12.1929 3.56088 12.3806 3.68604L12.3806 3.68606L12.3841 3.68833C13.081 4.14465 13.498 4.92628 13.498 5.76001V9ZM4.5 11.5H6V20.5H4.5C3.94814 20.5 3.5 20.0519 3.5 19.5V12.5C3.5 11.9481 3.94814 11.5 4.5 11.5Z" stroke="#47474F"/>
</g>
</svg>
