<svg width="24" height="24" viewBox="0 0 24 24" fill="none" xmlns="http://www.w3.org/2000/svg">
<path d="M10.502 15V14.5L10.002 14.5H6.10205C4.70731 14.5 4.03997 14.042 3.74089 13.5081C3.42137 12.9378 3.4234 12.114 3.72708 11.2091L3.72739 11.2081L5.727 5.20927C5.72707 5.20907 5.72713 5.20888 5.7272 5.20869C5.93269 4.5973 6.1092 4.20552 6.40794 3.94321C6.69092 3.69475 7.1614 3.5 8.10303 3.5H15.502L15.502 12.9205L13.2302 19.8042C13.065 20.242 12.6526 20.5 12.222 20.5C12.0206 20.5 11.8071 20.4391 11.6194 20.314L11.6194 20.3139L11.6159 20.3117C10.919 19.8553 10.502 19.0737 10.502 18.24V15ZM19.5 12.5H18L18 3.5H19.5C20.0519 3.5 20.5 3.94814 20.5 4.5L20.5 11.5C20.5 12.0519 20.0519 12.5 19.5 12.5Z" stroke="#47474F"/>
</svg>
